<svg id="Capa_1" enable-background="new 0 0 509.66 509.66" height="512" viewBox="0 0 509.66 509.66" width="512" xmlns="http://www.w3.org/2000/svg"><g><g><path d="m399.393 253.598-19.562-.011c13.846-.234 25-11.524 25-25.426 0-13.902-11.154-25.192-25-25.426v-61.72c0-16.569-13.431-30-30-30h-190.168c-16.569 0-30 13.431-30 30v61.728c-13.711.387-24.708 11.615-24.708 25.419 0 13.804 10.998 25.032 24.708 25.419l-19.271.018c-14.049 0-25.438 11.389-25.438 25.438 0 14.049 11.389 25.438 25.438 25.438h289c14.049 0 25.438-11.389 25.438-25.438 0-14.051-11.389-25.439-25.437-25.439z" fill="#c6d2db"/><path d="m472.33 509.66h-435v-119.089c0-29.804 21.877-55.09 51.371-59.376l165.066-22.535 167.105 22.598c29.533 4.248 51.457 29.552 51.457 59.389v119.013z" fill="#f88fa4"/><path d="m420.873 331.258s31.457 25.85 31.457 59.389v119.013h20v-119.013c0-29.837-21.924-55.14-51.457-59.389z" fill="#f05475"/><g fill="#ffe1ba"><path d="m172.226 202.723h-20.031c-12.444 0-22.531-10.088-22.531-22.531 0-12.444 10.088-22.531 22.531-22.531h20.031z"/><path d="m337.434 202.723h20.031c12.444 0 22.531-10.088 22.531-22.531 0-12.444-10.088-22.531-22.531-22.531h-20.031z"/></g><path d="m253.768 204.556c-68.541 0-124.104 55.563-124.104 124.104v181h248.208v-181c0-68.541-55.564-124.104-124.104-124.104z" fill="#feef8f"/><path d="m253.768 204.556c-3.367 0-6.701.139-10 .402 63.864 5.093 114.104 58.528 114.104 123.702v181h20v-181c0-68.541-55.564-124.104-124.104-124.104z" fill="#ffc277"/><path d="m253.768 309.206-58.813 7.483v192.971h119.875v-192.742z" fill="#b5efff"/><path d="m294.83 314.392v195.268h20v-192.742z" fill="#80dbff"/><path d="m149.83 202.723v35.938c0 28.002 19.184 51.521 45.125 58.139v.001c0 14.174 9.256 26.187 22.054 30.322 10.097 3.263 19.978 7.162 29.264 12.297l7.557 4.178 8.69-4.454c9.265-4.749 18.882-8.86 28.92-11.621 13.485-3.709 23.39-16.059 23.39-30.722v-.03c25.878-6.661 45-30.152 45-58.11v-35.938z" fill="#fff"/><path d="m339.83 202.723v35.938c0 18.266-12.33 34.197-29.985 38.741l-15.015 3.864v24.796c0 11.487-3.39 21.461-3.39 21.461 13.485-3.709 23.39-16.059 23.39-30.722v-.03c25.878-6.661 45-30.152 45-58.11v-35.938z" fill="#c6d2db"/><path d="m172.393 111.013v99.147c0 11.046 8.954 20 20 20h17.438v-8.438c0-11.046 8.954-20 20-20h10v7c0 8.284 6.716 15 15 15s15-6.716 15-15v-7h10c11.046 0 20 8.954 20 20v8.438h17.438c11.046 0 20-8.954 20-20v-99.147z" fill="#fef2e2"/><path d="m317.268 111.013v99.147c0 10.175-7.605 18.557-17.438 19.818v.182h17.438c11.046 0 20-8.954 20-20v-99.147z" fill="#ffe1ba"/><path d="m328.33 66.66-2-40-43.089 30.506-28.348-43.443-28.394 43.499-43.169-30.562-2 40h-46.375l14.875 44.353h210l15-44.353z" fill="#feef8f"/><path d="m328.33 66.66-2-40-43.089 30.506-28.348-43.443-11.943 18.296 34.894 53.473 30.329-21.472 1.132 22.64h37.648l-6.546 24.353h19.423l15-44.353z" fill="#ffc277"/><circle cx="254.83" cy="433.66" fill="#feef8f" r="29.875"/><path d="m254.83 403.785c-3.508 0-6.873.61-10 1.721 11.58 4.114 19.875 15.163 19.875 28.154s-8.295 24.041-19.875 28.154c3.127 1.111 6.492 1.721 10 1.721 16.5 0 29.875-13.375 29.875-29.875s-13.375-29.875-29.875-29.875z" fill="#ffc277"/></g><g><path d="m464.83 448.66h15v61h-15z"/><path d="m463.345 346.445c-10.631-12.269-25.335-20.299-41.467-22.619l-36.867-4.986c-.17-2.301-.42-4.588-.709-6.868h15.091c18.162 0 32.938-14.776 32.938-32.938 0-15.743-11.103-28.942-25.886-32.178 3.707-5.329 5.886-11.782 5.886-18.697 0-15.317-10.689-28.365-25-31.953v-55.194c0-13.851-7.554-25.962-18.752-32.456l16.706-49.397h-49.819l-2.325-46.51-47.874 33.893-30.373-46.542-30.418 46.601-47.955-33.95-2.325 46.51h-49.667l16.537 49.31c-11.282 6.472-18.903 18.63-18.903 32.543v55.238c-14.318 3.622-24.708 16.475-24.708 31.909 0 6.973 2.12 13.418 5.765 18.724-14.725 3.282-25.765 16.451-25.765 32.151 0 18.162 14.776 32.938 32.938 32.938h12.834c-.294 2.333-.535 4.678-.706 7.035l-34.898 4.765c-16.048 2.332-30.729 10.37-41.339 22.634s-16.454 27.948-16.454 44.165v119.087h15v-119.089c0-25.895 19.324-48.23 44.886-51.945l32.448-4.43v39.402h15v-44.938c0-19.816 4.917-38.948 14.319-56.044 7.924 13.625 20.528 24.333 35.972 29.74v207.304h15v-145.047l37.023 34.985c-12.971 5.869-22.023 18.924-22.023 34.063 0 20.609 16.766 37.375 37.375 37.375s37.375-16.766 37.375-37.375c0-15.122-9.032-28.165-21.98-34.043l37.105-34.843v144.885h15v-207.347c14.671-5.17 26.771-15.134 34.717-27.832 8.747 16.631 13.325 35.13 13.325 54.179v181h15v-175.635l34.433 4.657c25.669 3.692 45.025 26.032 45.025 51.965v42.951h15v-42.951c0-16.234-5.854-31.932-16.485-44.202zm-105.88-151.222h-12.531v-30.063h12.531c7.569 0 13.831 5.629 14.865 12.917v4.229c-1.033 7.288-7.296 12.917-14.865 12.917zm14.865-41.109c-4.387-2.51-9.459-3.953-14.865-3.953h-12.698v-31.647h5.062c12.407 0 22.5 10.093 22.5 22.5v13.1zm-217.105-50.601-9.844-29.353h43.083l1.675-33.49 38.383 27.174 26.369-40.398 26.326 40.342 38.304-27.118 1.675 33.49h43.181l-9.927 29.353h-134.62v15h109.938v91.647c0 6.893-5.607 12.5-12.5 12.5h-9.938v-.938c0-15.164-12.336-27.5-27.5-27.5h-17.5v14.5c0 4.136-3.364 7.5-7.5 7.5s-7.5-3.364-7.5-7.5v-14.5h-17.5c-15.164 0-27.5 12.336-27.5 27.5v.938h-9.938c-6.893 0-12.5-5.607-12.5-12.5v-91.647h25.062v-15zm4.439 15h5.229v31.647h-12.698c-5.474 0-10.607 1.48-15.031 4.049v-13.196c0-12.407 10.093-22.5 22.5-22.5zm-7.469 76.71c-8.288 0-15.031-6.743-15.031-15.031s6.743-15.031 15.031-15.031h12.531v30.062zm-26.183 101.75h-15.619c-9.891 0-17.938-8.047-17.938-17.938s8.047-17.938 17.945-17.938l19.271-.019.204-14.997c-9.768-.275-17.42-8.147-17.42-17.922 0-9.774 7.652-17.646 17.42-17.922l7.289-.206v-3.859c1.632.948 3.359 1.746 5.167 2.377v30.11c0 5.757.736 11.371 2.11 16.751-8.592 12.792-14.789 26.813-18.429 41.563zm151.193 136.687c0 12.337-10.038 22.375-22.375 22.375s-22.375-10.038-22.375-22.375 10.038-22.375 22.375-22.375 22.375 10.038 22.375 22.375zm-22.359-40.179-52.391-49.506v-16.228c3.588 2.818 7.71 5.045 12.248 6.511 10.912 3.526 20.051 7.361 27.94 11.723l11.053 6.112 12.244-6.277c9.925-5.087 18.916-8.706 27.489-11.064 5.178-1.424 9.864-3.879 13.901-7.077v16.522zm67.484-107.372v-18.782h-15v29.443.029.001c0 10.935-7.352 20.595-17.879 23.49-9.575 2.634-19.503 6.617-30.353 12.178l-5.135 2.632-4.062-2.246c-8.742-4.834-18.747-9.043-30.586-12.87-10.084-3.259-16.86-12.577-16.86-23.187v-29.472h-15v18.84c-18.127-8.516-30.125-26.86-30.125-47.506v-28.438h7.564c.034 15.135 12.356 27.438 27.498 27.438h24.938v-15.938c0-6.893 5.607-12.5 12.5-12.5h2.505c.267 12.176 10.255 22 22.495 22s22.228-9.824 22.495-22h2.505c6.893 0 12.5 5.607 12.5 12.5v15.938h24.938c15.143 0 27.464-12.303 27.498-27.438h7.564v28.438c0 20.588-11.946 38.906-30 47.45zm42.263-28.414c1.781-6.068 2.737-12.46 2.737-19.035v-30.11c1.746-.609 3.417-1.375 5-2.281v3.839l7.373.125c9.72.165 17.627 8.207 17.627 17.927s-7.907 17.763-17.627 17.927l.123 14.999 19.567.011c9.891 0 17.938 8.047 17.938 17.938s-8.047 17.938-17.938 17.938h-17.883c-3.428-13.871-9.112-27.115-16.917-39.278z"/><path d="m216.861 165.223h15v15h-15z"/><path d="m277.799 165.223h15v15h-15z"/><path d="m122.164 388.66h15v121h-15z"/><path d="m247.393 73.66h15v15h-15z"/><path d="m105.33 492.863h-15v-15h15zm0-30h-15v-15h15zm0-30h-15v-15h15z" fill="#fff"/></g></g></svg>