<svg id="Capa_1" enable-background="new 0 0 514.688 514.688" height="512" viewBox="0 0 514.688 514.688" width="512" xmlns="http://www.w3.org/2000/svg"><g><g><path d="m298.625 357.833 104.948 15.096v-17.674c0-33.137-26.863-60-60-60h-87.771c-33.137 0-60 26.863-60 60v17.52z" fill="#80dbff"/><path d="m299.688 131.862c27.473 0 53.373 1.857 76.158 5.139l-38.602-63.15 57.406-43.333c9.018-6.807 4.204-21.175-7.094-21.175h-76.398c-8.279 0-15.949 4.346-20.204 11.448l-69.832 116.561c23.36-3.501 50.122-5.49 78.566-5.49z" fill="#b5efff"/><path d="m387.555 9.343-76.832 59.468 38.514 65.145c9.246.804 18.143 1.825 26.608 3.044l-38.602-63.15 57.406-43.333c9.018-6.806 4.205-21.174-7.094-21.174z" fill="#80dbff"/><path d="m244.406 98.487-23.284 38.865c23.36-3.501 50.122-5.49 78.565-5.49 27.473 0 53.373 1.857 76.158 5.139l-23.709-38.786c-16.478-1.525-34.113-2.353-52.449-2.353-19.392 0-37.997.927-55.281 2.625z" fill="#feef8f"/><path d="m327.088 96.491 22.15 37.465c9.246.804 18.143 1.825 26.608 3.044l-23.709-38.786c-8.088-.748-16.458-1.326-25.049-1.723z" fill="#ffc277"/><ellipse cx="299.688" cy="177.445" fill="#80dbff" rx="165" ry="45.583"/><path d="m382.125 237.442v-63.109c0-13.443-1.987-26.123-6.301-37.335-22.78-3.279-48.672-5.135-76.137-5.135-27.475 0-53.375 1.857-76.161 5.139-4.301 11.211-6.276 23.889-6.276 37.331v63.109c0 45.529 22.562 82.437 82.438 82.437 60 0 82.437-36.908 82.437-82.437z" fill="#fef2e2"/><path d="m375.824 136.997c-7.012-1.009-14.321-1.883-21.878-2.61 3.999 11.314 8.179 27.734 8.179 39.945v63.109c0 42.899-19.934 78.132-72.428 82.06 3.212.241 6.532.377 9.99.377 60 0 82.438-36.908 82.438-82.437v-63.109c0-13.443-1.987-26.122-6.301-37.335z" fill="#ffe1ba"/><path d="m224.688 186.833c31.376 0 57.112-24.088 59.76-54.778-21.814.552-42.397 2.279-60.921 4.947-4.301 11.211-6.276 23.889-6.276 37.331v12.5z" fill="#fff"/><path d="m314.928 132.054c2.648 30.69 28.384 54.778 59.76 54.778h7.438v-12.5c0-13.443-1.987-26.123-6.301-37.335-18.518-2.665-39.093-4.39-60.897-4.943z" fill="#fff"/><path d="m375.824 136.997c-7.012-1.009-14.321-1.883-21.878-2.61 3.999 11.314 8.179 27.734 8.179 39.945v11.166c4.053.864 8.251 1.334 12.562 1.334h7.438v-12.5c0-13.443-1.987-26.122-6.301-37.335z" fill="#c6d2db"/><path d="m507.188 513.255h-415v-73.511c0-29.804 21.877-55.09 51.371-59.376l155.066-22.535 157.105 22.598c29.533 4.248 51.457 29.552 51.457 59.389v73.435z" fill="#b5efff"/><path d="m456.14 380.499c18.675 12.54 31.048 36.907 31.048 59.32v73.435h20v-73.434c0-29.698-21.724-54.897-51.048-59.321z" fill="#80dbff"/><path d="m195.802 372.775-1.114 140.48h210l-1.115-140.327-104.948-15.095z" fill="#feef8f"/><path d="m403.573 372.928-19.835-2.853.95 143.18h20z" fill="#ffc277"/><path d="m217.25 231.895h-20.198c-12.444 0-22.531-10.088-22.531-22.531 0-12.444 10.088-22.531 22.531-22.531h20.198z" fill="#ffe1ba"/><path d="m382.125 231.895h20.198c12.444 0 22.531-10.088 22.531-22.531 0-12.444-10.088-22.531-22.531-22.531h-20.198z" fill="#ffe1ba"/><path d="m305.807 424.446-6.057 2.746-6.192-2.797c-46.555-21.034-76.475-67.384-76.475-118.47v-54.67h165.042v54.793c0 51.023-29.848 97.328-76.318 118.398z" fill="#c6d2db"/><path d="m362.125 251.255v47.792c0 51.023-29.848 97.329-76.318 118.399l-3.093 1.402c3.508 1.998 7.116 3.862 10.844 5.547l6.192 2.797 6.057-2.746c46.47-21.07 76.318-67.375 76.318-118.399v-54.792z" fill="#8ca3b7"/><path d="m284.688 239.192v-7.164h-90.062v14.969c0 16.568 13.431 30 30 30h45.125c14.102 0 25.925-9.732 29.135-22.845-7.91-.42-14.198-6.946-14.198-14.96z" fill="#fff"/><path d="m284.688 239.192v-7.164h-22.861c-.064.902-.108 1.809-.108 2.727 0 16.862 10.996 31.148 26.205 36.102 5.362-4.093 9.307-9.947 10.961-16.705-7.909-.42-14.197-6.946-14.197-14.96z" fill="#c6d2db"/><path d="m314.688 232.028v7.164c0 7.971-6.223 14.472-14.073 14.953 3.207 13.116 15.032 22.851 29.136 22.851h45.125c16.569 0 30-13.431 30-30v-14.969h-90.188z" fill="#fff"/><path d="m384.875 232.028v14.969c0 16.568-13.431 30-30 30h20c16.569 0 30-13.431 30-30v-14.969z" fill="#c6d2db"/><path d="m59.938 8.88h-22.438c-16.569 0-30 13.431-30 30v113.375c0 6.688 2.189 12.863 5.89 17.85 13.636 18.375 20.329 40.99 20.329 63.872v279.278h30v-279.278c0-22.882 6.693-45.497 20.329-63.872 3.701-4.987 5.89-11.162 5.89-17.85v-113.375c0-16.569-13.432-30-30-30z" fill="#e69480"/><path d="m59.938 8.88h-20c16.569 0 30 13.431 30 30v105.375c0 6.688-2.189 12.863-5.89 17.85-13.636 18.375-20.329 40.99-20.329 63.872v287.278h20v-279.278c0-22.882 6.693-45.497 20.329-63.872 3.701-4.987 5.89-11.162 5.89-17.85v-113.375c0-16.569-13.432-30-30-30z" fill="#d9694b"/></g><g><path d="m498.202 395.618c-10.631-12.27-25.335-20.299-41.404-22.611l-45.646-6.566-.079-11.186c0-18.816-7.772-36.592-21.448-49.349v-24.436c13.365-5.74 22.75-19.029 22.75-34.473v-9.338c10.656-3.797 18.555-13.448 19.803-25.065 26.553-9.351 40.009-21.162 40.009-35.149 0-23.552-39.638-39.512-91.795-47.387l-33.203-54.318 51.979-39.236c6.725-5.077 9.341-13.519 6.664-21.508-2.677-7.99-9.852-13.152-18.277-13.152h-76.398c-10.853 0-21.06 5.783-26.638 15.093l-11.148 18.609 12.867 7.709 11.148-18.609c2.884-4.812 8.16-7.802 13.771-7.802h76.398c2.777 0 3.761 2.041 4.055 2.917.294.877.737 3.098-1.479 4.771l-50.793 38.341-13.414-22.017-12.811 7.805 24.964 40.935c-12.53-.814-25.383-1.233-38.39-1.233-14.033 0-27.875.484-41.33 1.431l20.206-33.728-12.867-7.709-49.192 82.11c-12.81 2.033-24.741 4.549-35.487 7.517-35.216 9.729-53.83 23.375-53.83 39.461 0 13.986 13.456 25.798 40.009 35.148 1.253 11.662 9.209 21.342 19.928 25.108v9.296c0 15.33 9.25 28.532 22.458 34.34v24.588c0 .05.003.1.003.15-13.572 12.745-21.284 30.423-21.284 49.126l-.078 11.096-45.743 6.647c-16.048 2.332-30.729 10.37-41.34 22.634s-16.453 27.948-16.453 44.165v73.511h15v-73.511c0-25.895 19.324-48.23 44.949-51.955l43.48-6.318-.929 131.732 15 .105.945-134.019 25.471-3.701c14.135 24.027 35.491 43.726 61.868 55.643l2.644 1.194v80.831h15v-81.62l.79-.358c26.277-11.914 47.562-31.564 61.668-55.518l25.671 3.693.513 72.856 15-.105-.498-70.59 43.403 6.243c25.669 3.692 45.025 26.033 45.025 51.965v73.435h15v-73.436c.001-16.235-5.854-31.932-16.485-44.202zm-100.827-148.621c0 12.407-10.094 22.5-22.5 22.5h-45.125c-7.985 0-15.137-4.155-19.144-10.651 6.833-3.805 11.456-11.057 11.578-19.318h75.19v7.469zm-90.187-22.469v14.665c0 3.946-3.089 7.226-7.032 7.467l-.431.026-.442-.023c-3.979-.211-7.095-3.493-7.095-7.47v-14.665h-67.438v-30.197c16.981-.016 33.2-6.358 45.676-17.866 10.734-9.902 17.885-22.868 20.561-37.039 2.887-.042 5.787-.064 8.7-.064s5.813.023 8.7.064c2.677 14.171 9.827 27.137 20.561 37.039 12.476 11.508 28.695 17.851 45.676 17.866v30.197zm-31.657-84.679c-2.488 9.757-7.744 18.642-15.276 25.59-9.697 8.945-22.304 13.876-35.505 13.892v-4.999c0-11.259 1.466-21.51 4.351-30.551 14.584-1.942 30.201-3.271 46.43-3.932zm99.094 34.484v4.999c-13.201-.016-25.808-4.947-35.505-13.892-7.532-6.948-12.788-15.833-15.276-25.59 16.223.661 31.833 1.989 46.412 3.93 2.898 9.046 4.369 19.298 4.369 30.553zm27.698 50.062h-12.531v-30.062h12.531c8.288 0 15.031 6.743 15.031 15.031s-6.743 15.031-15.031 15.031zm54.865-46.95c0 4.738-7.319 12.531-27.298 20.017-4.618-10.655-15.234-18.129-27.566-18.129h-12.698v-5c0-10.023-1.07-19.404-3.14-28.065 9.982 1.749 19.33 3.813 27.878 6.174 31.608 8.732 42.824 18.927 42.824 25.003zm-208.305-71.837c16.36-1.484 33.425-2.246 50.805-2.246 16.391 0 32.523.678 48.028 1.999l13.59 22.233c-19.754-2.145-40.716-3.232-61.618-3.232-22.35 0-44.054 1.208-64.145 3.512zm-106.695 71.837c0-6.076 11.216-16.271 42.824-25.003 8.545-2.36 17.889-4.424 27.866-6.172-2.062 8.657-3.128 18.037-3.128 28.062v5h-12.698c-12.333 0-22.948 7.475-27.566 18.129-19.98-7.485-27.298-15.279-27.298-20.016zm39.833 31.919c0-8.288 6.743-15.031 15.031-15.031h12.531v30.062h-12.531c-8.288 0-15.031-6.743-15.031-15.031zm20.104 37.633v-7.469h75.065c.122 8.324 4.781 15.595 11.667 19.377-4.014 6.462-11.147 10.592-19.107 10.592h-45.125c-12.406 0-22.5-10.093-22.5-22.5zm1.114 117.119.062-8.861c0-9.997 2.824-19.6 7.994-27.849 1.881 11.844 5.295 23.286 10.073 34.076zm99.472 53.499-2.966 1.345-3.099-1.4c-43.776-19.778-72.063-63.598-72.063-111.635v-21.429c.014 0 .028.001.042.001h45.125c12.125 0 23.093-5.756 30-14.973 6.906 9.216 17.874 14.973 30 14.973h44.875v21.55c0 47.968-28.229 91.761-71.914 111.568zm75.104-55.969c4.83-10.893 8.27-22.45 10.144-34.413 5.243 8.297 8.114 17.98 8.114 28.075l.063 8.974z"/><path d="m397.025 467.191h15v46.065h-15z" transform="matrix(1 -.007 .007 1 -3.451 2.868)"/><path d="m261.719 194.395h15v15h-15z"/><path d="m322.656 194.395h15v15h-15z"/><path d="m245.408 334.029c4.263 15.368 12.107 29.82 22.688 41.793l11.24-9.933c-9.082-10.278-15.815-22.681-19.473-35.87z"/><path d="m26.219 301.755h15v211.5h-15z"/><path d="m97.438 152.255v-113.375c0-20.678-16.822-37.5-37.5-37.5h-22.438c-20.678 0-37.5 16.822-37.5 37.5v113.375c0 8.106 2.548 15.824 7.367 22.319 12.156 16.382 18.852 37.479 18.852 59.403v53.247h15v-53.247c0-25.122-7.744-49.393-21.807-68.342-2.887-3.89-4.412-8.517-4.412-13.38v-73.463l40.126 9.735 3.537-14.577-43.663-10.593v-24.477c0-12.407 10.094-22.5 22.5-22.5h22.438c12.406 0 22.5 10.093 22.5 22.5v88.19l-36.047-8.745-3.537 14.577 39.584 9.604v9.75c0 4.863-1.525 9.49-4.412 13.38-14.062 18.949-21.807 43.22-21.807 68.342v279.278h15v-279.279c0-21.925 6.695-43.021 18.852-59.403 4.819-6.495 7.367-14.213 7.367-22.319z"/><path d="m272.719 512.255h-15v-15h15zm0-30h-15v-15h15zm0-30h-15v-15h15z" fill="#fff"/></g></g></svg>