<svg width="442" height="236" viewBox="0 0 442 236" fill="none" xmlns="http://www.w3.org/2000/svg">
<path d="M36 183L76.5 203.5C68.3267 223.176 49.1142 236 27.8077 236H0C18.0681 230.181 31.2749 214.622 34.0801 195.848L36 183Z" fill="#FFABBB"/>
<rect x="7" width="435" height="217" rx="26" fill="url(#paint0_linear)"/>
<rect x="102.5" y="161.5" width="234.953" height="42.2031" rx="15.5" stroke="white"/>
<path d="M184.186 183.252H182.63V189H180.943V176.203H182.63V181.846H183.949L188.422 176.203H190.523L185.636 182.408L190.883 189H188.818L184.186 183.252ZM191.499 184.157C191.499 183.226 191.68 182.388 192.044 181.644C192.413 180.899 192.922 180.325 193.573 179.921C194.229 179.517 194.976 179.314 195.814 179.314C197.109 179.314 198.155 179.763 198.952 180.659C199.754 181.556 200.156 182.748 200.156 184.236V184.351C200.156 185.276 199.977 186.108 199.62 186.847C199.268 187.579 198.761 188.15 198.099 188.561C197.443 188.971 196.687 189.176 195.832 189.176C194.543 189.176 193.497 188.728 192.694 187.831C191.897 186.935 191.499 185.748 191.499 184.271V184.157ZM193.133 184.351C193.133 185.405 193.377 186.252 193.863 186.891C194.355 187.529 195.011 187.849 195.832 187.849C196.658 187.849 197.314 187.526 197.8 186.882C198.287 186.231 198.53 185.323 198.53 184.157C198.53 183.114 198.281 182.271 197.783 181.626C197.291 180.976 196.634 180.65 195.814 180.65C195.011 180.65 194.364 180.97 193.872 181.608C193.379 182.247 193.133 183.161 193.133 184.351ZM209.964 189H208.338V184.939H203.97V189H202.336V179.49H203.97V183.612H208.338V179.49H209.964V189ZM219.65 180.809H216.46V189H214.834V180.809H211.705V179.49H219.65V180.809ZM226.962 189C226.869 188.812 226.793 188.479 226.734 187.998C225.978 188.783 225.076 189.176 224.027 189.176C223.089 189.176 222.319 188.912 221.715 188.385C221.118 187.852 220.819 187.178 220.819 186.363C220.819 185.373 221.194 184.605 221.944 184.061C222.7 183.51 223.76 183.234 225.126 183.234H226.708V182.487C226.708 181.919 226.538 181.468 226.198 181.134C225.858 180.794 225.357 180.624 224.695 180.624C224.115 180.624 223.628 180.771 223.236 181.063C222.843 181.356 222.647 181.711 222.647 182.127H221.012C221.012 181.652 221.179 181.195 221.513 180.756C221.853 180.311 222.31 179.959 222.884 179.701C223.464 179.443 224.1 179.314 224.792 179.314C225.887 179.314 226.746 179.59 227.367 180.141C227.988 180.686 228.31 181.438 228.334 182.399V186.776C228.334 187.649 228.445 188.344 228.668 188.859V189H226.962ZM224.264 187.761C224.774 187.761 225.257 187.629 225.714 187.365C226.171 187.102 226.502 186.759 226.708 186.337V184.386H225.433C223.441 184.386 222.445 184.969 222.445 186.135C222.445 186.645 222.615 187.043 222.955 187.33C223.294 187.617 223.731 187.761 224.264 187.761ZM233.844 184.948H232.658V189H231.023V179.49H232.658V183.516H233.721L236.92 179.49H238.889L235.127 184.061L239.206 189H237.14L233.844 184.948ZM247.669 180.809H244.479V189H242.853V180.809H239.724V179.49H247.669V180.809ZM251.027 182.769H253.497C254.575 182.78 255.427 183.062 256.054 183.612C256.681 184.163 256.995 184.91 256.995 185.854C256.995 186.803 256.672 187.564 256.028 188.139C255.383 188.713 254.516 189 253.426 189H249.401V179.49H251.027V182.769ZM260.387 189H258.752V179.49H260.387V189ZM251.027 184.096V187.673H253.444C254.053 187.673 254.525 187.518 254.859 187.207C255.193 186.891 255.36 186.46 255.36 185.915C255.36 185.388 255.196 184.957 254.868 184.623C254.545 184.283 254.091 184.107 253.505 184.096H251.027Z" fill="white"/>
<path d="M95.0703 84.4766L99.1602 77.9375H101.809L96.418 86.3984L101.938 95H99.2656L95.0703 88.3438L90.8516 95H88.1914L93.7227 86.3984L88.3203 77.9375H90.957L95.0703 84.4766ZM112.039 95C111.914 94.75 111.812 94.3047 111.734 93.6641C110.727 94.7109 109.523 95.2344 108.125 95.2344C106.875 95.2344 105.848 94.8828 105.043 94.1797C104.246 93.4688 103.848 92.5703 103.848 91.4844C103.848 90.1641 104.348 89.1406 105.348 88.4141C106.355 87.6797 107.77 87.3125 109.59 87.3125H111.699V86.3164C111.699 85.5586 111.473 84.957 111.02 84.5117C110.566 84.0586 109.898 83.832 109.016 83.832C108.242 83.832 107.594 84.0273 107.07 84.418C106.547 84.8086 106.285 85.2812 106.285 85.8359H104.105C104.105 85.2031 104.328 84.5938 104.773 84.0078C105.227 83.4141 105.836 82.9453 106.602 82.6016C107.375 82.2578 108.223 82.0859 109.145 82.0859C110.605 82.0859 111.75 82.4531 112.578 83.1875C113.406 83.9141 113.836 84.918 113.867 86.1992V92.0352C113.867 93.1992 114.016 94.125 114.312 94.8125V95H112.039ZM108.441 93.3477C109.121 93.3477 109.766 93.1719 110.375 92.8203C110.984 92.4688 111.426 92.0117 111.699 91.4492V88.8477H110C107.344 88.8477 106.016 89.625 106.016 91.1797C106.016 91.8594 106.242 92.3906 106.695 92.7734C107.148 93.1562 107.73 93.3477 108.441 93.3477ZM125.469 82.3203H127.637V95H125.469V85.7539L119.621 95H117.453V82.3203H119.621V91.5781L125.469 82.3203ZM126.055 77.7031C126.055 78.6484 125.73 79.4102 125.082 79.9883C124.441 80.5586 123.598 80.8438 122.551 80.8438C121.504 80.8438 120.656 80.5547 120.008 79.9766C119.359 79.3984 119.035 78.6406 119.035 77.7031H120.805C120.805 78.25 120.953 78.6797 121.25 78.9922C121.547 79.2969 121.98 79.4492 122.551 79.4492C123.098 79.4492 123.523 79.2969 123.828 78.9922C124.141 78.6875 124.297 78.2578 124.297 77.7031H126.055ZM131.047 98.3984L129.816 97.5547C130.551 96.5312 130.934 95.4766 130.965 94.3906V92.4336H133.086V94.1328C133.086 94.9219 132.891 95.7109 132.5 96.5C132.117 97.2891 131.633 97.9219 131.047 98.3984ZM151.473 82.3203V95H149.293V90.0664H146.023L143.035 95H140.691L143.879 89.7383C143.066 89.4414 142.441 88.9844 142.004 88.3672C141.574 87.7422 141.359 87.0156 141.359 86.1875C141.359 85.0312 141.793 84.1016 142.66 83.3984C143.527 82.6875 144.688 82.3281 146.141 82.3203H151.473ZM143.539 86.2109C143.539 86.8281 143.75 87.3281 144.172 87.7109C144.594 88.0859 145.152 88.2773 145.848 88.2852H149.293V84.0781H146.176C145.371 84.0781 144.73 84.2773 144.254 84.6758C143.777 85.0664 143.539 85.5781 143.539 86.2109ZM163.262 95H161.094V82.3203H163.262V95ZM160.918 78.957C160.918 78.6055 161.023 78.3086 161.234 78.0664C161.453 77.8242 161.773 77.7031 162.195 77.7031C162.617 77.7031 162.938 77.8242 163.156 78.0664C163.375 78.3086 163.484 78.6055 163.484 78.957C163.484 79.3086 163.375 79.6016 163.156 79.8359C162.938 80.0703 162.617 80.1875 162.195 80.1875C161.773 80.1875 161.453 80.0703 161.234 79.8359C161.023 79.6016 160.918 79.3086 160.918 78.957ZM180.207 87.0195C180.207 88.6914 179.926 90.1523 179.363 91.4023C178.801 92.6445 178.004 93.5938 176.973 94.25C175.941 94.9062 174.738 95.2344 173.363 95.2344C172.02 95.2344 170.828 94.9062 169.789 94.25C168.75 93.5859 167.941 92.6445 167.363 91.4258C166.793 90.1992 166.5 88.7812 166.484 87.1719V85.9414C166.484 84.3008 166.77 82.8516 167.34 81.5938C167.91 80.3359 168.715 79.375 169.754 78.7109C170.801 78.0391 171.996 77.7031 173.34 77.7031C174.707 77.7031 175.91 78.0352 176.949 78.6992C177.996 79.3555 178.801 80.3125 179.363 81.5703C179.926 82.8203 180.207 84.2773 180.207 85.9414V87.0195ZM177.969 85.918C177.969 83.8945 177.562 82.3438 176.75 81.2656C175.938 80.1797 174.801 79.6367 173.34 79.6367C171.918 79.6367 170.797 80.1797 169.977 81.2656C169.164 82.3438 168.746 83.8438 168.723 85.7656V87.0195C168.723 88.9805 169.133 90.5234 169.953 91.6484C170.781 92.7656 171.918 93.3242 173.363 93.3242C174.816 93.3242 175.941 92.7969 176.738 91.7422C177.535 90.6797 177.945 89.1602 177.969 87.1836V85.918ZM188.609 87.3945C186.68 86.8398 185.273 86.1602 184.391 85.3555C183.516 84.543 183.078 83.543 183.078 82.3555C183.078 81.0117 183.613 79.9023 184.684 79.0273C185.762 78.1445 187.16 77.7031 188.879 77.7031C190.051 77.7031 191.094 77.9297 192.008 78.3828C192.93 78.8359 193.641 79.4609 194.141 80.2578C194.648 81.0547 194.902 81.9258 194.902 82.8711H192.641C192.641 81.8398 192.312 81.0312 191.656 80.4453C191 79.8516 190.074 79.5547 188.879 79.5547C187.77 79.5547 186.902 79.8008 186.277 80.293C185.66 80.7773 185.352 81.4531 185.352 82.3203C185.352 83.0156 185.645 83.6055 186.23 84.0898C186.824 84.5664 187.828 85.0039 189.242 85.4023C190.664 85.8008 191.773 86.2422 192.57 86.7266C193.375 87.2031 193.969 87.7617 194.352 88.4023C194.742 89.043 194.938 89.7969 194.938 90.6641C194.938 92.0469 194.398 93.1562 193.32 93.9922C192.242 94.8203 190.801 95.2344 188.996 95.2344C187.824 95.2344 186.73 95.0117 185.715 94.5664C184.699 94.1133 183.914 93.4961 183.359 92.7148C182.812 91.9336 182.539 91.0469 182.539 90.0547H184.801C184.801 91.0859 185.18 91.9023 185.938 92.5039C186.703 93.0977 187.723 93.3945 188.996 93.3945C190.184 93.3945 191.094 93.1523 191.727 92.668C192.359 92.1836 192.676 91.5234 192.676 90.6875C192.676 89.8516 192.383 89.207 191.797 88.7539C191.211 88.293 190.148 87.8398 188.609 87.3945ZM214.156 88.8008C214.156 90.7305 213.715 92.2852 212.832 93.4648C211.949 94.6445 210.754 95.2344 209.246 95.2344C207.707 95.2344 206.496 94.7461 205.613 93.7695V99.875H203.445V82.3203H205.426L205.531 83.7266C206.414 82.6328 207.641 82.0859 209.211 82.0859C210.734 82.0859 211.938 82.6602 212.82 83.8086C213.711 84.957 214.156 86.5547 214.156 88.6016V88.8008ZM211.988 88.5547C211.988 87.125 211.684 85.9961 211.074 85.168C210.465 84.3398 209.629 83.9258 208.566 83.9258C207.254 83.9258 206.27 84.5078 205.613 85.6719V91.7305C206.262 92.8867 207.254 93.4648 208.59 93.4648C209.629 93.4648 210.453 93.0547 211.062 92.2344C211.68 91.4062 211.988 90.1797 211.988 88.5547ZM224.75 95C224.625 94.75 224.523 94.3047 224.445 93.6641C223.438 94.7109 222.234 95.2344 220.836 95.2344C219.586 95.2344 218.559 94.8828 217.754 94.1797C216.957 93.4688 216.559 92.5703 216.559 91.4844C216.559 90.1641 217.059 89.1406 218.059 88.4141C219.066 87.6797 220.48 87.3125 222.301 87.3125H224.41V86.3164C224.41 85.5586 224.184 84.957 223.73 84.5117C223.277 84.0586 222.609 83.832 221.727 83.832C220.953 83.832 220.305 84.0273 219.781 84.418C219.258 84.8086 218.996 85.2812 218.996 85.8359H216.816C216.816 85.2031 217.039 84.5938 217.484 84.0078C217.938 83.4141 218.547 82.9453 219.312 82.6016C220.086 82.2578 220.934 82.0859 221.855 82.0859C223.316 82.0859 224.461 82.4531 225.289 83.1875C226.117 83.9141 226.547 84.918 226.578 86.1992V92.0352C226.578 93.1992 226.727 94.125 227.023 94.8125V95H224.75ZM221.152 93.3477C221.832 93.3477 222.477 93.1719 223.086 92.8203C223.695 92.4688 224.137 92.0117 224.41 91.4492V88.8477H222.711C220.055 88.8477 218.727 89.625 218.727 91.1797C218.727 91.8594 218.953 92.3906 219.406 92.7734C219.859 93.1562 220.441 93.3477 221.152 93.3477ZM236.949 85.7891C236.949 85.1953 236.723 84.7266 236.27 84.3828C235.816 84.0312 235.195 83.8555 234.406 83.8555C233.641 83.8555 233 84.0547 232.484 84.4531C231.977 84.8516 231.723 85.3203 231.723 85.8594H229.566C229.566 84.7578 230.027 83.8555 230.949 83.1523C231.871 82.4492 233.023 82.0977 234.406 82.0977C235.891 82.0977 237.047 82.418 237.875 83.0586C238.703 83.6914 239.117 84.5977 239.117 85.7773C239.117 86.3477 238.945 86.8711 238.602 87.3477C238.258 87.8242 237.77 88.2031 237.137 88.4844C238.613 88.9844 239.352 89.9688 239.352 91.4375C239.352 92.6016 238.902 93.5234 238.004 94.2031C237.105 94.8828 235.906 95.2227 234.406 95.2227C232.945 95.2227 231.738 94.8672 230.785 94.1562C229.84 93.4375 229.367 92.4688 229.367 91.25H231.523C231.523 91.8672 231.797 92.3984 232.344 92.8438C232.898 93.2812 233.586 93.5 234.406 93.5C235.234 93.5 235.902 93.3086 236.41 92.9258C236.918 92.543 237.172 92.0469 237.172 91.4375C237.172 90.7266 236.957 90.2188 236.527 89.9141C236.105 89.6016 235.445 89.4453 234.547 89.4453H232.379V87.6172H234.734C236.211 87.5781 236.949 86.9688 236.949 85.7891ZM252.875 88.8008C252.875 90.7305 252.434 92.2852 251.551 93.4648C250.668 94.6445 249.473 95.2344 247.965 95.2344C246.426 95.2344 245.215 94.7461 244.332 93.7695V99.875H242.164V82.3203H244.145L244.25 83.7266C245.133 82.6328 246.359 82.0859 247.93 82.0859C249.453 82.0859 250.656 82.6602 251.539 83.8086C252.43 84.957 252.875 86.5547 252.875 88.6016V88.8008ZM250.707 88.5547C250.707 87.125 250.402 85.9961 249.793 85.168C249.184 84.3398 248.348 83.9258 247.285 83.9258C245.973 83.9258 244.988 84.5078 244.332 85.6719V91.7305C244.98 92.8867 245.973 93.4648 247.309 93.4648C248.348 93.4648 249.172 93.0547 249.781 92.2344C250.398 91.4062 250.707 90.1797 250.707 88.5547ZM263.469 95C263.344 94.75 263.242 94.3047 263.164 93.6641C262.156 94.7109 260.953 95.2344 259.555 95.2344C258.305 95.2344 257.277 94.8828 256.473 94.1797C255.676 93.4688 255.277 92.5703 255.277 91.4844C255.277 90.1641 255.777 89.1406 256.777 88.4141C257.785 87.6797 259.199 87.3125 261.02 87.3125H263.129V86.3164C263.129 85.5586 262.902 84.957 262.449 84.5117C261.996 84.0586 261.328 83.832 260.445 83.832C259.672 83.832 259.023 84.0273 258.5 84.418C257.977 84.8086 257.715 85.2812 257.715 85.8359H255.535C255.535 85.2031 255.758 84.5938 256.203 84.0078C256.656 83.4141 257.266 82.9453 258.031 82.6016C258.805 82.2578 259.652 82.0859 260.574 82.0859C262.035 82.0859 263.18 82.4531 264.008 83.1875C264.836 83.9141 265.266 84.918 265.297 86.1992V92.0352C265.297 93.1992 265.445 94.125 265.742 94.8125V95H263.469ZM259.871 93.3477C260.551 93.3477 261.195 93.1719 261.805 92.8203C262.414 92.4688 262.855 92.0117 263.129 91.4492V88.8477H261.43C258.773 88.8477 257.445 89.625 257.445 91.1797C257.445 91.8594 257.672 92.3906 258.125 92.7734C258.578 93.1562 259.16 93.3477 259.871 93.3477ZM274.262 83.0469C275.855 83.0469 277.129 83.582 278.082 84.6523C279.043 85.7148 279.523 87.1172 279.523 88.8594V89.0586C279.523 90.2539 279.293 91.3242 278.832 92.2695C278.371 93.207 277.707 93.9375 276.84 94.4609C275.98 94.9766 274.988 95.2344 273.863 95.2344C272.16 95.2344 270.789 94.668 269.75 93.5352C268.711 92.3945 268.191 90.8672 268.191 88.9531V87.8984C268.191 85.2344 268.684 83.1172 269.668 81.5469C270.66 79.9766 272.121 79.0195 274.051 78.6758C275.145 78.4805 275.883 78.2422 276.266 77.9609C276.648 77.6797 276.84 77.293 276.84 76.8008H278.621C278.621 77.7773 278.398 78.5391 277.953 79.0859C277.516 79.6328 276.812 80.0195 275.844 80.2461L274.227 80.6094C272.938 80.9141 271.969 81.4297 271.32 82.1562C270.68 82.875 270.262 83.8359 270.066 85.0391C271.215 83.7109 272.613 83.0469 274.262 83.0469ZM273.84 84.8281C272.777 84.8281 271.934 85.1875 271.309 85.9062C270.684 86.6172 270.371 87.6055 270.371 88.8711V89.0586C270.371 90.418 270.684 91.4961 271.309 92.293C271.941 93.082 272.793 93.4766 273.863 93.4766C274.941 93.4766 275.793 93.0781 276.418 92.2812C277.043 91.4844 277.355 90.3203 277.355 88.7891C277.355 87.5938 277.039 86.6367 276.406 85.918C275.781 85.1914 274.926 84.8281 273.84 84.8281ZM281.387 88.543C281.387 87.3008 281.629 86.1836 282.113 85.1914C282.605 84.1992 283.285 83.4336 284.152 82.8945C285.027 82.3555 286.023 82.0859 287.141 82.0859C288.867 82.0859 290.262 82.6836 291.324 83.8789C292.395 85.0742 292.93 86.6641 292.93 88.6484V88.8008C292.93 90.0352 292.691 91.1445 292.215 92.1289C291.746 93.1055 291.07 93.8672 290.188 94.4141C289.312 94.9609 288.305 95.2344 287.164 95.2344C285.445 95.2344 284.051 94.6367 282.98 93.4414C281.918 92.2461 281.387 90.6641 281.387 88.6953V88.543ZM283.566 88.8008C283.566 90.207 283.891 91.3359 284.539 92.1875C285.195 93.0391 286.07 93.4648 287.164 93.4648C288.266 93.4648 289.141 93.0352 289.789 92.1758C290.438 91.3086 290.762 90.0977 290.762 88.543C290.762 87.1523 290.43 86.0273 289.766 85.168C289.109 84.3008 288.234 83.8672 287.141 83.8672C286.07 83.8672 285.207 84.293 284.551 85.1445C283.895 85.9961 283.566 87.2148 283.566 88.8008ZM304.812 84.0781H300.559V95H298.391V84.0781H294.219V82.3203H304.812V84.0781ZM316.496 95H314.316V90.4062C313.363 90.6562 312.387 90.7812 311.387 90.7812C309.801 90.7812 308.59 90.375 307.754 89.5625C306.926 88.75 306.504 87.5938 306.488 86.0938V82.3086H308.656V86.1641C308.695 88.0547 309.605 89 311.387 89C312.387 89 313.363 88.875 314.316 88.625V82.3203H316.496V95ZM328.18 82.3203H330.348V95H328.18V85.7539L322.332 95H320.164V82.3203H322.332V91.5781L328.18 82.3203ZM337.777 89.5977H336.195V95H334.016V82.3203H336.195V87.6875H337.613L341.879 82.3203H344.504L339.488 88.4141L344.926 95H342.172L337.777 89.5977ZM346.836 93.8633C346.836 93.4883 346.945 93.1758 347.164 92.9258C347.391 92.6758 347.727 92.5508 348.172 92.5508C348.617 92.5508 348.953 92.6758 349.18 92.9258C349.414 93.1758 349.531 93.4883 349.531 93.8633C349.531 94.2227 349.414 94.5234 349.18 94.7656C348.953 95.0078 348.617 95.1289 348.172 95.1289C347.727 95.1289 347.391 95.0078 347.164 94.7656C346.945 94.5234 346.836 94.2227 346.836 93.8633Z" fill="white"/>
<defs>
<linearGradient id="paint0_linear" x1="429.634" y1="16.0741" x2="327.691" y2="313.088" gradientUnits="userSpaceOnUse">
<stop stop-color="#635189"/>
<stop offset="0.411458" stop-color="#B174B1"/>
<stop offset="1" stop-color="#FFABBA"/>
</linearGradient>
</defs>
</svg>
