<svg width="489" height="217" viewBox="0 0 489 217" fill="none" xmlns="http://www.w3.org/2000/svg">
<path d="M425.219 129.152L425.308 174.544C446.558 176.096 466.654 164.706 476.239 145.678L488.748 120.843C475.424 134.362 455.586 139.157 437.558 133.217L425.219 129.152Z" fill="#B275B2"/>
<rect width="435" height="217" rx="26" fill="url(#paint0_linear)"/>
<rect x="95.5" y="161.5" width="234.953" height="42.2031" rx="15.5" stroke="white"/>
<path d="M177.186 183.252H175.63V189H173.943V176.203H175.63V181.846H176.949L181.422 176.203H183.523L178.636 182.408L183.883 189H181.818L177.186 183.252ZM184.499 184.157C184.499 183.226 184.68 182.388 185.044 181.644C185.413 180.899 185.922 180.325 186.573 179.921C187.229 179.517 187.976 179.314 188.814 179.314C190.109 179.314 191.155 179.763 191.952 180.659C192.754 181.556 193.156 182.748 193.156 184.236V184.351C193.156 185.276 192.977 186.108 192.62 186.847C192.268 187.579 191.761 188.15 191.099 188.561C190.443 188.971 189.687 189.176 188.832 189.176C187.543 189.176 186.497 188.728 185.694 187.831C184.897 186.935 184.499 185.748 184.499 184.271V184.157ZM186.133 184.351C186.133 185.405 186.377 186.252 186.863 186.891C187.355 187.529 188.011 187.849 188.832 187.849C189.658 187.849 190.314 187.526 190.8 186.882C191.287 186.231 191.53 185.323 191.53 184.157C191.53 183.114 191.281 182.271 190.783 181.626C190.291 180.976 189.634 180.65 188.814 180.65C188.011 180.65 187.364 180.97 186.872 181.608C186.379 182.247 186.133 183.161 186.133 184.351ZM202.964 189H201.338V184.939H196.97V189H195.336V179.49H196.97V183.612H201.338V179.49H202.964V189ZM212.65 180.809H209.46V189H207.834V180.809H204.705V179.49H212.65V180.809ZM219.962 189C219.869 188.812 219.793 188.479 219.734 187.998C218.978 188.783 218.076 189.176 217.027 189.176C216.089 189.176 215.319 188.912 214.715 188.385C214.118 187.852 213.819 187.178 213.819 186.363C213.819 185.373 214.194 184.605 214.944 184.061C215.7 183.51 216.76 183.234 218.126 183.234H219.708V182.487C219.708 181.919 219.538 181.468 219.198 181.134C218.858 180.794 218.357 180.624 217.695 180.624C217.115 180.624 216.628 180.771 216.236 181.063C215.843 181.356 215.647 181.711 215.647 182.127H214.012C214.012 181.652 214.179 181.195 214.513 180.756C214.853 180.311 215.31 179.959 215.884 179.701C216.464 179.443 217.1 179.314 217.792 179.314C218.887 179.314 219.746 179.59 220.367 180.141C220.988 180.686 221.31 181.438 221.334 182.399V186.776C221.334 187.649 221.445 188.344 221.668 188.859V189H219.962ZM217.264 187.761C217.774 187.761 218.257 187.629 218.714 187.365C219.171 187.102 219.502 186.759 219.708 186.337V184.386H218.433C216.441 184.386 215.445 184.969 215.445 186.135C215.445 186.645 215.615 187.043 215.955 187.33C216.294 187.617 216.731 187.761 217.264 187.761ZM226.844 184.948H225.658V189H224.023V179.49H225.658V183.516H226.721L229.92 179.49H231.889L228.127 184.061L232.206 189H230.14L226.844 184.948ZM240.669 180.809H237.479V189H235.853V180.809H232.724V179.49H240.669V180.809ZM244.027 182.769H246.497C247.575 182.78 248.427 183.062 249.054 183.612C249.681 184.163 249.995 184.91 249.995 185.854C249.995 186.803 249.672 187.564 249.028 188.139C248.383 188.713 247.516 189 246.426 189H242.401V179.49H244.027V182.769ZM253.387 189H251.752V179.49H253.387V189ZM244.027 184.096V187.673H246.444C247.053 187.673 247.525 187.518 247.859 187.207C248.193 186.891 248.36 186.46 248.36 185.915C248.36 185.388 248.196 184.957 247.868 184.623C247.545 184.283 247.091 184.107 246.505 184.096H244.027Z" fill="white"/>
<path d="M50.8164 82.5195C50.8164 81.6133 50.4844 80.8945 49.8203 80.3633C49.1641 79.8242 48.2383 79.5547 47.043 79.5547C46.043 79.5547 45.2031 79.832 44.5234 80.3867C43.8516 80.9336 43.5156 81.6133 43.5156 82.4258H41.2656C41.2656 81.5195 41.5117 80.707 42.0039 79.9883C42.5039 79.2695 43.1992 78.7109 44.0898 78.3125C44.9805 77.9062 45.9648 77.7031 47.043 77.7031C48.9492 77.7031 50.4297 78.1328 51.4844 78.9922C52.5391 79.8438 53.0664 81.0312 53.0664 82.5547C53.0664 83.3438 52.8242 84.0625 52.3398 84.7109C51.8555 85.3594 51.1797 85.8711 50.3125 86.2461C52.3203 86.918 53.3242 88.25 53.3242 90.2422C53.3242 91.7734 52.7539 92.9883 51.6133 93.8867C50.4727 94.7852 48.9492 95.2344 47.043 95.2344C45.9102 95.2344 44.8789 95.0352 43.9492 94.6367C43.0273 94.2305 42.3086 93.6562 41.793 92.9141C41.2773 92.1719 41.0195 91.2891 41.0195 90.2656H43.2695C43.2695 91.1641 43.625 91.9141 44.3359 92.5156C45.0469 93.1094 45.9492 93.4062 47.043 93.4062C48.2695 93.4062 49.2461 93.1211 49.9727 92.5508C50.707 91.9805 51.0742 91.2266 51.0742 90.2891C51.0742 88.2891 49.8359 87.2695 47.3594 87.2305H45.25V85.3789H47.3477C48.4883 85.3555 49.3516 85.0977 49.9375 84.6055C50.5234 84.1133 50.8164 83.418 50.8164 82.5195ZM55.8672 93.2305L56.6172 92.3047C57.4609 91.2109 57.9414 89.5703 58.0586 87.3828L58.2578 82.3203H66.4258V93.2305H68.0547V98.7266H65.8867V95H57.0391V98.7266H54.8711L54.8828 93.2305H55.8672ZM58.4336 93.2305H64.2578V84.3242H60.3555L60.2266 87.3477C60.0938 89.8711 59.4961 91.832 58.4336 93.2305ZM81.168 88.8008C81.168 90.7305 80.7266 92.2852 79.8438 93.4648C78.9609 94.6445 77.7656 95.2344 76.2578 95.2344C74.7188 95.2344 73.5078 94.7461 72.625 93.7695V99.875H70.457V82.3203H72.4375L72.543 83.7266C73.4258 82.6328 74.6523 82.0859 76.2227 82.0859C77.7461 82.0859 78.9492 82.6602 79.832 83.8086C80.7227 84.957 81.168 86.5547 81.168 88.6016V88.8008ZM79 88.5547C79 87.125 78.6953 85.9961 78.0859 85.168C77.4766 84.3398 76.6406 83.9258 75.5781 83.9258C74.2656 83.9258 73.2812 84.5078 72.625 85.6719V91.7305C73.2734 92.8867 74.2656 93.4648 75.6016 93.4648C76.6406 93.4648 77.4648 93.0547 78.0742 92.2344C78.6914 91.4062 79 90.1797 79 88.5547ZM91.7617 95C91.6367 94.75 91.5352 94.3047 91.457 93.6641C90.4492 94.7109 89.2461 95.2344 87.8477 95.2344C86.5977 95.2344 85.5703 94.8828 84.7656 94.1797C83.9688 93.4688 83.5703 92.5703 83.5703 91.4844C83.5703 90.1641 84.0703 89.1406 85.0703 88.4141C86.0781 87.6797 87.4922 87.3125 89.3125 87.3125H91.4219V86.3164C91.4219 85.5586 91.1953 84.957 90.7422 84.5117C90.2891 84.0586 89.6211 83.832 88.7383 83.832C87.9648 83.832 87.3164 84.0273 86.793 84.418C86.2695 84.8086 86.0078 85.2812 86.0078 85.8359H83.8281C83.8281 85.2031 84.0508 84.5938 84.4961 84.0078C84.9492 83.4141 85.5586 82.9453 86.3242 82.6016C87.0977 82.2578 87.9453 82.0859 88.8672 82.0859C90.3281 82.0859 91.4727 82.4531 92.3008 83.1875C93.1289 83.9141 93.5586 84.918 93.5898 86.1992V92.0352C93.5898 93.1992 93.7383 94.125 94.0352 94.8125V95H91.7617ZM88.1641 93.3477C88.8438 93.3477 89.4883 93.1719 90.0977 92.8203C90.707 92.4688 91.1484 92.0117 91.4219 91.4492V88.8477H89.7227C87.0664 88.8477 85.7383 89.625 85.7383 91.1797C85.7383 91.8594 85.9648 92.3906 86.418 92.7734C86.8711 93.1562 87.4531 93.3477 88.1641 93.3477ZM97.1875 95V82.3203H102.133C103.82 82.3203 105.113 82.6172 106.012 83.2109C106.918 83.7969 107.371 84.6602 107.371 85.8008C107.371 86.3867 107.195 86.918 106.844 87.3945C106.492 87.8633 105.973 88.2227 105.285 88.4727C106.051 88.6523 106.664 89.0039 107.125 89.5273C107.594 90.0508 107.828 90.6758 107.828 91.4023C107.828 92.5664 107.398 93.457 106.539 94.0742C105.688 94.6914 104.48 95 102.918 95H97.1875ZM99.3555 89.4336V93.2539H102.941C103.848 93.2539 104.523 93.0859 104.969 92.75C105.422 92.4141 105.648 91.9414 105.648 91.332C105.648 90.0664 104.719 89.4336 102.859 89.4336H99.3555ZM99.3555 87.6992H102.156C104.188 87.6992 105.203 87.1055 105.203 85.918C105.203 84.7305 104.242 84.1172 102.32 84.0781H99.3555V87.6992ZM115.785 93.4648C116.559 93.4648 117.234 93.2305 117.812 92.7617C118.391 92.293 118.711 91.707 118.773 91.0039H120.824C120.785 91.7305 120.535 92.4219 120.074 93.0781C119.613 93.7344 118.996 94.2578 118.223 94.6484C117.457 95.0391 116.645 95.2344 115.785 95.2344C114.059 95.2344 112.684 94.6602 111.66 93.5117C110.645 92.3555 110.137 90.7773 110.137 88.7773V88.4141C110.137 87.1797 110.363 86.082 110.816 85.1211C111.27 84.1602 111.918 83.4141 112.762 82.8828C113.613 82.3516 114.617 82.0859 115.773 82.0859C117.195 82.0859 118.375 82.5117 119.312 83.3633C120.258 84.2148 120.762 85.3203 120.824 86.6797H118.773C118.711 85.8594 118.398 85.1875 117.836 84.6641C117.281 84.1328 116.594 83.8672 115.773 83.8672C114.672 83.8672 113.816 84.2656 113.207 85.0625C112.605 85.8516 112.305 86.9961 112.305 88.4961V88.9062C112.305 90.3672 112.605 91.4922 113.207 92.2812C113.809 93.0703 114.668 93.4648 115.785 93.4648ZM132.684 84.0781H128.43V95H126.262V84.0781H122.09V82.3203H132.684V84.0781ZM134.992 95V82.3203H139.938C141.625 82.3203 142.918 82.6172 143.816 83.2109C144.723 83.7969 145.176 84.6602 145.176 85.8008C145.176 86.3867 145 86.918 144.648 87.3945C144.297 87.8633 143.777 88.2227 143.09 88.4727C143.855 88.6523 144.469 89.0039 144.93 89.5273C145.398 90.0508 145.633 90.6758 145.633 91.4023C145.633 92.5664 145.203 93.457 144.344 94.0742C143.492 94.6914 142.285 95 140.723 95H134.992ZM137.16 89.4336V93.2539H140.746C141.652 93.2539 142.328 93.0859 142.773 92.75C143.227 92.4141 143.453 91.9414 143.453 91.332C143.453 90.0664 142.523 89.4336 140.664 89.4336H137.16ZM137.16 87.6992H139.961C141.992 87.6992 143.008 87.1055 143.008 85.918C143.008 84.7305 142.047 84.1172 140.125 84.0781H137.16V87.6992ZM152.512 91.8242L155.465 82.3203H157.785L152.688 96.957C151.898 99.0664 150.645 100.121 148.926 100.121L148.516 100.086L147.707 99.9336V98.1758L148.293 98.2227C149.027 98.2227 149.598 98.0742 150.004 97.7773C150.418 97.4805 150.758 96.9375 151.023 96.1484L151.504 94.8594L146.98 82.3203H149.348L152.512 91.8242ZM167.934 82.3203H170.102V95H167.934V85.7539L162.086 95H159.918V82.3203H162.086V91.5781L167.934 82.3203ZM168.52 77.7031C168.52 78.6484 168.195 79.4102 167.547 79.9883C166.906 80.5586 166.062 80.8438 165.016 80.8438C163.969 80.8438 163.121 80.5547 162.473 79.9766C161.824 79.3984 161.5 78.6406 161.5 77.7031H163.27C163.27 78.25 163.418 78.6797 163.715 78.9922C164.012 79.2969 164.445 79.4492 165.016 79.4492C165.562 79.4492 165.988 79.2969 166.293 78.9922C166.605 78.6875 166.762 78.2578 166.762 77.7031H168.52ZM183.004 84.0781H178.75V95H176.582V84.0781H172.41V82.3203H183.004V84.0781ZM189.438 95.2344C187.719 95.2344 186.32 94.6719 185.242 93.5469C184.164 92.4141 183.625 90.9023 183.625 89.0117V88.6133C183.625 87.3555 183.863 86.2344 184.34 85.25C184.824 84.2578 185.496 83.4844 186.355 82.9297C187.223 82.3672 188.16 82.0859 189.168 82.0859C190.816 82.0859 192.098 82.6289 193.012 83.7148C193.926 84.8008 194.383 86.3555 194.383 88.3789V89.2812H185.793C185.824 90.5312 186.188 91.543 186.883 92.3164C187.586 93.082 188.477 93.4648 189.555 93.4648C190.32 93.4648 190.969 93.3086 191.5 92.9961C192.031 92.6836 192.496 92.2695 192.895 91.7539L194.219 92.7852C193.156 94.418 191.562 95.2344 189.438 95.2344ZM189.168 83.8672C188.293 83.8672 187.559 84.1875 186.965 84.8281C186.371 85.4609 186.004 86.3516 185.863 87.5H192.215V87.3359C192.152 86.2344 191.855 85.3828 191.324 84.7812C190.793 84.1719 190.074 83.8672 189.168 83.8672ZM196.832 98.3984L195.602 97.5547C196.336 96.5312 196.719 95.4766 196.75 94.3906V92.4336H198.871V94.1328C198.871 94.9219 198.676 95.7109 198.285 96.5C197.902 97.2891 197.418 97.9219 196.832 98.3984ZM217.258 82.3203V95H215.078V90.0664H211.809L208.82 95H206.477L209.664 89.7383C208.852 89.4414 208.227 88.9844 207.789 88.3672C207.359 87.7422 207.145 87.0156 207.145 86.1875C207.145 85.0312 207.578 84.1016 208.445 83.3984C209.312 82.6875 210.473 82.3281 211.926 82.3203H217.258ZM209.324 86.2109C209.324 86.8281 209.535 87.3281 209.957 87.7109C210.379 88.0859 210.938 88.2773 211.633 88.2852H215.078V84.0781H211.961C211.156 84.0781 210.516 84.2773 210.039 84.6758C209.562 85.0664 209.324 85.5781 209.324 86.2109ZM237.086 82.3203V95H234.906V84.1133H230.594L230.336 88.8594C230.195 91.0391 229.828 92.5977 229.234 93.5352C228.648 94.4727 227.715 94.9609 226.434 95H225.566V93.0898L226.188 93.043C226.891 92.9648 227.395 92.5586 227.699 91.8242C228.004 91.0898 228.199 89.7305 228.285 87.7461L228.52 82.3203H237.086ZM242.934 87.6992H245.98C246.145 86.0117 246.742 84.6562 247.773 83.6328C248.812 82.6016 250.121 82.0859 251.699 82.0859C253.355 82.0859 254.711 82.6445 255.766 83.7617C256.82 84.8789 257.391 86.332 257.477 88.1211L257.488 88.8008C257.488 90.0352 257.246 91.1484 256.762 92.1406C256.277 93.1328 255.598 93.8984 254.723 94.4375C253.848 94.9688 252.848 95.2344 251.723 95.2344C250.09 95.2344 248.754 94.7031 247.715 93.6406C246.676 92.5703 246.094 91.1836 245.969 89.4805H242.934V95H240.766V82.3203H242.934V87.6992ZM248.113 88.8008C248.113 90.207 248.438 91.3359 249.086 92.1875C249.742 93.0391 250.621 93.4648 251.723 93.4648C252.824 93.4648 253.695 93.0312 254.336 92.1641C254.984 91.2969 255.309 90.0898 255.309 88.543C255.309 87.1602 254.98 86.0352 254.324 85.168C253.668 84.3008 252.793 83.8672 251.699 83.8672C250.621 83.8672 249.754 84.293 249.098 85.1445C248.441 85.9961 248.113 87.2148 248.113 88.8008ZM265.727 83.0469C267.32 83.0469 268.594 83.582 269.547 84.6523C270.508 85.7148 270.988 87.1172 270.988 88.8594V89.0586C270.988 90.2539 270.758 91.3242 270.297 92.2695C269.836 93.207 269.172 93.9375 268.305 94.4609C267.445 94.9766 266.453 95.2344 265.328 95.2344C263.625 95.2344 262.254 94.668 261.215 93.5352C260.176 92.3945 259.656 90.8672 259.656 88.9531V87.8984C259.656 85.2344 260.148 83.1172 261.133 81.5469C262.125 79.9766 263.586 79.0195 265.516 78.6758C266.609 78.4805 267.348 78.2422 267.73 77.9609C268.113 77.6797 268.305 77.293 268.305 76.8008H270.086C270.086 77.7773 269.863 78.5391 269.418 79.0859C268.98 79.6328 268.277 80.0195 267.309 80.2461L265.691 80.6094C264.402 80.9141 263.434 81.4297 262.785 82.1562C262.145 82.875 261.727 83.8359 261.531 85.0391C262.68 83.7109 264.078 83.0469 265.727 83.0469ZM265.305 84.8281C264.242 84.8281 263.398 85.1875 262.773 85.9062C262.148 86.6172 261.836 87.6055 261.836 88.8711V89.0586C261.836 90.418 262.148 91.4961 262.773 92.293C263.406 93.082 264.258 93.4766 265.328 93.4766C266.406 93.4766 267.258 93.0781 267.883 92.2812C268.508 91.4844 268.82 90.3203 268.82 88.7891C268.82 87.5938 268.504 86.6367 267.871 85.918C267.246 85.1914 266.391 84.8281 265.305 84.8281ZM283.82 82.3203V95H281.641V84.1133H277.328L277.07 88.8594C276.93 91.0391 276.562 92.5977 275.969 93.5352C275.383 94.4727 274.449 94.9609 273.168 95H272.301V93.0898L272.922 93.043C273.625 92.9648 274.129 92.5586 274.434 91.8242C274.738 91.0898 274.934 89.7305 275.02 87.7461L275.254 82.3203H283.82ZM289.668 87.6992H292.715C292.879 86.0117 293.477 84.6562 294.508 83.6328C295.547 82.6016 296.855 82.0859 298.434 82.0859C300.09 82.0859 301.445 82.6445 302.5 83.7617C303.555 84.8789 304.125 86.332 304.211 88.1211L304.223 88.8008C304.223 90.0352 303.98 91.1484 303.496 92.1406C303.012 93.1328 302.332 93.8984 301.457 94.4375C300.582 94.9688 299.582 95.2344 298.457 95.2344C296.824 95.2344 295.488 94.7031 294.449 93.6406C293.41 92.5703 292.828 91.1836 292.703 89.4805H289.668V95H287.5V82.3203H289.668V87.6992ZM294.848 88.8008C294.848 90.207 295.172 91.3359 295.82 92.1875C296.477 93.0391 297.355 93.4648 298.457 93.4648C299.559 93.4648 300.43 93.0312 301.07 92.1641C301.719 91.2969 302.043 90.0898 302.043 88.543C302.043 87.1602 301.715 86.0352 301.059 85.168C300.402 84.3008 299.527 83.8672 298.434 83.8672C297.355 83.8672 296.488 84.293 295.832 85.1445C295.176 85.9961 294.848 87.2148 294.848 88.8008ZM323.219 95H321.051V84.1133H315.215V95H313.035V82.3203H323.219V95ZM334.902 82.3203H337.07V95H334.902V85.7539L329.055 95H326.887V82.3203H329.055V91.5781L334.902 82.3203ZM340.738 82.3203H342.918V93.2305H348.754V82.3203H350.922V93.2305H352.434L352.223 98.7617H350.277V95H340.738V82.3203ZM354.965 82.3203H357.145V93.2305H362.98V82.3203H365.148V93.2305H366.66L366.449 98.7617H364.504V95H354.965V82.3203ZM373.152 91.8242L376.105 82.3203H378.426L373.328 96.957C372.539 99.0664 371.285 100.121 369.566 100.121L369.156 100.086L368.348 99.9336V98.1758L368.934 98.2227C369.668 98.2227 370.238 98.0742 370.645 97.7773C371.059 97.4805 371.398 96.9375 371.664 96.1484L372.145 94.8594L367.621 82.3203H369.988L373.152 91.8242ZM382.797 90.1836H380.84L380.688 77.9375H382.961L382.797 90.1836ZM380.605 93.9102C380.605 93.5586 380.711 93.2656 380.922 93.0312C381.141 92.7891 381.461 92.668 381.883 92.668C382.305 92.668 382.625 92.7891 382.844 93.0312C383.062 93.2656 383.172 93.5586 383.172 93.9102C383.172 94.2617 383.062 94.5547 382.844 94.7891C382.625 95.0156 382.305 95.1289 381.883 95.1289C381.461 95.1289 381.141 95.0156 380.922 94.7891C380.711 94.5547 380.605 94.2617 380.605 93.9102Z" fill="white"/>
<defs>
<linearGradient id="paint0_linear" x1="422.634" y1="16.0741" x2="320.691" y2="313.088" gradientUnits="userSpaceOnUse">
<stop stop-color="#635189"/>
<stop offset="0.411458" stop-color="#B174B1"/>
<stop offset="1" stop-color="#FFABBA"/>
</linearGradient>
</defs>
</svg>
