<svg width="1558" height="881" viewBox="0 0 1558 881" fill="none" xmlns="http://www.w3.org/2000/svg">
<rect width="1558" height="881" fill="#839DF9"/>
<rect x="1" width="1557" height="881" fill="#FFD8B5"/>
<path d="M1299 329H1558V0H1346.59L1299 329Z" fill="#FFA859"/>
<path d="M1299 329H1558V0H1346.59L1299 329Z" fill="#FFA859"/>
<path d="M259 328H1V-1H211.592L259 328Z" fill="#FFA859"/>
<path d="M259 328H1V-1H211.592L259 328Z" fill="#FFA859"/>
<path d="M1365 103C1365 425.534 1103.53 687 781 687C458.466 687 197 425.534 197 103C197 -219.534 458.466 -481 781 -481C1103.53 -481 1365 -219.534 1365 103Z" fill="#FFC592"/>
<path d="M598.5 658L646.5 456.5L666 447.5H885.5L936 488L963.5 651L955 665.5L877.5 718.5L661.5 706L598.5 658Z" fill="#FFD8B5"/>
<path d="M599 658L661.5 465.5C626 454 599.5 423.349 568.5 401C525.5 370 496.099 358.948 470 325.5L306 445C339.5 490 376.5 530.5 422.5 565C465.884 598.803 520.031 631.198 599 658Z" fill="#FFA859"/>
<path d="M958.5 658.5L896 466C931.5 454.5 958 423.849 989 401.5C1032 370.5 1061.4 359.448 1087.5 326L1251.5 445.5C1218 490.5 1181 531 1135 565.5C1091.62 599.303 1037.47 631.698 958.5 658.5Z" fill="#FFA859"/>
<circle cx="779" cy="99" r="389" fill="#FFD8B5"/>
<path d="M874.5 264.5L973.5 436C854 504 709 508.5 585.216 436L682 269L874.5 264.5Z" fill="#FFC592"/>
<circle cx="780.5" cy="103.5" r="194.5" fill="#FFA859"/>
<path d="M959 658C917.5 673 771 714 599 658L526.726 880.5H1031L959 658Z" fill="#FFA859"/>
</svg>
