<svg width="489" height="217" viewBox="0 0 489 217" fill="none" xmlns="http://www.w3.org/2000/svg">
<path d="M425.219 129.152L425.308 174.544C446.558 176.096 466.654 164.706 476.239 145.678L488.748 120.843C475.424 134.362 455.586 139.157 437.558 133.217L425.219 129.152Z" fill="#B275B2"/>
<rect width="435" height="217" rx="26" fill="url(#paint0_linear)"/>
<rect x="95.5" y="161.5" width="234.953" height="42.2031" rx="15.5" stroke="white"/>
<path d="M177.186 183.252H175.63V189H173.943V176.203H175.63V181.846H176.949L181.422 176.203H183.523L178.636 182.408L183.883 189H181.818L177.186 183.252ZM184.499 184.157C184.499 183.226 184.68 182.388 185.044 181.644C185.413 180.899 185.922 180.325 186.573 179.921C187.229 179.517 187.976 179.314 188.814 179.314C190.109 179.314 191.155 179.763 191.952 180.659C192.754 181.556 193.156 182.748 193.156 184.236V184.351C193.156 185.276 192.977 186.108 192.62 186.847C192.268 187.579 191.761 188.15 191.099 188.561C190.443 188.971 189.687 189.176 188.832 189.176C187.543 189.176 186.497 188.728 185.694 187.831C184.897 186.935 184.499 185.748 184.499 184.271V184.157ZM186.133 184.351C186.133 185.405 186.377 186.252 186.863 186.891C187.355 187.529 188.011 187.849 188.832 187.849C189.658 187.849 190.314 187.526 190.8 186.882C191.287 186.231 191.53 185.323 191.53 184.157C191.53 183.114 191.281 182.271 190.783 181.626C190.291 180.976 189.634 180.65 188.814 180.65C188.011 180.65 187.364 180.97 186.872 181.608C186.379 182.247 186.133 183.161 186.133 184.351ZM202.964 189H201.338V184.939H196.97V189H195.336V179.49H196.97V183.612H201.338V179.49H202.964V189ZM212.65 180.809H209.46V189H207.834V180.809H204.705V179.49H212.65V180.809ZM219.962 189C219.869 188.812 219.793 188.479 219.734 187.998C218.978 188.783 218.076 189.176 217.027 189.176C216.089 189.176 215.319 188.912 214.715 188.385C214.118 187.852 213.819 187.178 213.819 186.363C213.819 185.373 214.194 184.605 214.944 184.061C215.7 183.51 216.76 183.234 218.126 183.234H219.708V182.487C219.708 181.919 219.538 181.468 219.198 181.134C218.858 180.794 218.357 180.624 217.695 180.624C217.115 180.624 216.628 180.771 216.236 181.063C215.843 181.356 215.647 181.711 215.647 182.127H214.012C214.012 181.652 214.179 181.195 214.513 180.756C214.853 180.311 215.31 179.959 215.884 179.701C216.464 179.443 217.1 179.314 217.792 179.314C218.887 179.314 219.746 179.59 220.367 180.141C220.988 180.686 221.31 181.438 221.334 182.399V186.776C221.334 187.649 221.445 188.344 221.668 188.859V189H219.962ZM217.264 187.761C217.774 187.761 218.257 187.629 218.714 187.365C219.171 187.102 219.502 186.759 219.708 186.337V184.386H218.433C216.441 184.386 215.445 184.969 215.445 186.135C215.445 186.645 215.615 187.043 215.955 187.33C216.294 187.617 216.731 187.761 217.264 187.761ZM226.844 184.948H225.658V189H224.023V179.49H225.658V183.516H226.721L229.92 179.49H231.889L228.127 184.061L232.206 189H230.14L226.844 184.948ZM240.669 180.809H237.479V189H235.853V180.809H232.724V179.49H240.669V180.809ZM244.027 182.769H246.497C247.575 182.78 248.427 183.062 249.054 183.612C249.681 184.163 249.995 184.91 249.995 185.854C249.995 186.803 249.672 187.564 249.028 188.139C248.383 188.713 247.516 189 246.426 189H242.401V179.49H244.027V182.769ZM253.387 189H251.752V179.49H253.387V189ZM244.027 184.096V187.673H246.444C247.053 187.673 247.525 187.518 247.859 187.207C248.193 186.891 248.36 186.46 248.36 185.915C248.36 185.388 248.196 184.957 247.868 184.623C247.545 184.283 247.091 184.107 246.505 184.096H244.027Z" fill="white"/>
<path d="M53.8047 81V74.3555H49.8672L46.3398 81H43.9375L47.8984 73.7344C45.6953 72.8672 44.5938 71.3164 44.5938 69.082C44.5938 67.457 45.125 66.1953 46.1875 65.2969C47.2578 64.3906 48.7422 63.9375 50.6406 63.9375H56.0664V81H53.8047ZM46.8438 69.082C46.8438 70.1133 47.1641 70.9414 47.8047 71.5664C48.4531 72.1914 49.3516 72.5078 50.5 72.5156H53.8047V65.7891H50.6055C49.3867 65.7891 48.4531 66.0781 47.8047 66.6562C47.1641 67.2344 46.8438 68.043 46.8438 69.082ZM76.8672 63.9375H79.1172V81H76.8672V67.8516L68.4648 81H66.2031V63.9375H68.4648V77.0859L76.8672 63.9375ZM83.0781 81V68.3203H88.0234C89.7109 68.3203 91.0039 68.6172 91.9023 69.2109C92.8086 69.7969 93.2617 70.6602 93.2617 71.8008C93.2617 72.3867 93.0859 72.918 92.7344 73.3945C92.3828 73.8633 91.8633 74.2227 91.1758 74.4727C91.9414 74.6523 92.5547 75.0039 93.0156 75.5273C93.4844 76.0508 93.7188 76.6758 93.7188 77.4023C93.7188 78.5664 93.2891 79.457 92.4297 80.0742C91.5781 80.6914 90.3711 81 88.8086 81H83.0781ZM85.2461 75.4336V79.2539H88.832C89.7383 79.2539 90.4141 79.0859 90.8594 78.75C91.3125 78.4141 91.5391 77.9414 91.5391 77.332C91.5391 76.0664 90.6094 75.4336 88.75 75.4336H85.2461ZM85.2461 73.6992H88.0469C90.0781 73.6992 91.0938 73.1055 91.0938 71.918C91.0938 70.7305 90.1328 70.1172 88.2109 70.0781H85.2461V73.6992ZM104.418 81C104.293 80.75 104.191 80.3047 104.113 79.6641C103.105 80.7109 101.902 81.2344 100.504 81.2344C99.2539 81.2344 98.2266 80.8828 97.4219 80.1797C96.625 79.4688 96.2266 78.5703 96.2266 77.4844C96.2266 76.1641 96.7266 75.1406 97.7266 74.4141C98.7344 73.6797 100.148 73.3125 101.969 73.3125H104.078V72.3164C104.078 71.5586 103.852 70.957 103.398 70.5117C102.945 70.0586 102.277 69.832 101.395 69.832C100.621 69.832 99.9727 70.0273 99.4492 70.418C98.9258 70.8086 98.6641 71.2812 98.6641 71.8359H96.4844C96.4844 71.2031 96.707 70.5938 97.1523 70.0078C97.6055 69.4141 98.2148 68.9453 98.9805 68.6016C99.7539 68.2578 100.602 68.0859 101.523 68.0859C102.984 68.0859 104.129 68.4531 104.957 69.1875C105.785 69.9141 106.215 70.918 106.246 72.1992V78.0352C106.246 79.1992 106.395 80.125 106.691 80.8125V81H104.418ZM100.82 79.3477C101.5 79.3477 102.145 79.1719 102.754 78.8203C103.363 78.4688 103.805 78.0117 104.078 77.4492V74.8477H102.379C99.7227 74.8477 98.3945 75.625 98.3945 77.1797C98.3945 77.8594 98.6211 78.3906 99.0742 78.7734C99.5273 79.1562 100.109 79.3477 100.82 79.3477ZM120.004 81H117.836V75.5859H112.012V81H109.832V68.3203H112.012V73.8164H117.836V68.3203H120.004V81ZM123.426 84.3984L122.195 83.5547C122.93 82.5312 123.312 81.4766 123.344 80.3906V78.4336H125.465V80.1328C125.465 80.9219 125.27 81.7109 124.879 82.5C124.496 83.2891 124.012 83.9219 123.426 84.3984ZM139.727 69.0469C141.32 69.0469 142.594 69.582 143.547 70.6523C144.508 71.7148 144.988 73.1172 144.988 74.8594V75.0586C144.988 76.2539 144.758 77.3242 144.297 78.2695C143.836 79.207 143.172 79.9375 142.305 80.4609C141.445 80.9766 140.453 81.2344 139.328 81.2344C137.625 81.2344 136.254 80.668 135.215 79.5352C134.176 78.3945 133.656 76.8672 133.656 74.9531V73.8984C133.656 71.2344 134.148 69.1172 135.133 67.5469C136.125 65.9766 137.586 65.0195 139.516 64.6758C140.609 64.4805 141.348 64.2422 141.73 63.9609C142.113 63.6797 142.305 63.293 142.305 62.8008H144.086C144.086 63.7773 143.863 64.5391 143.418 65.0859C142.98 65.6328 142.277 66.0195 141.309 66.2461L139.691 66.6094C138.402 66.9141 137.434 67.4297 136.785 68.1562C136.145 68.875 135.727 69.8359 135.531 71.0391C136.68 69.7109 138.078 69.0469 139.727 69.0469ZM139.305 70.8281C138.242 70.8281 137.398 71.1875 136.773 71.9062C136.148 72.6172 135.836 73.6055 135.836 74.8711V75.0586C135.836 76.418 136.148 77.4961 136.773 78.293C137.406 79.082 138.258 79.4766 139.328 79.4766C140.406 79.4766 141.258 79.0781 141.883 78.2812C142.508 77.4844 142.82 76.3203 142.82 74.7891C142.82 73.5938 142.504 72.6367 141.871 71.918C141.246 71.1914 140.391 70.8281 139.305 70.8281ZM149.793 72.6914H153.086C154.523 72.707 155.66 73.082 156.496 73.8164C157.332 74.5508 157.75 75.5469 157.75 76.8047C157.75 78.0703 157.32 79.0859 156.461 79.8516C155.602 80.6172 154.445 81 152.992 81H147.625V68.3203H149.793V72.6914ZM162.273 81H160.094V68.3203H162.273V81ZM149.793 74.4609V79.2305H153.016C153.828 79.2305 154.457 79.0234 154.902 78.6094C155.348 78.1875 155.57 77.6133 155.57 76.8867C155.57 76.1836 155.352 75.6094 154.914 75.1641C154.484 74.7109 153.879 74.4766 153.098 74.4609H149.793ZM176.453 68.3203V81H174.273V70.1133H169.961L169.703 74.8594C169.562 77.0391 169.195 78.5977 168.602 79.5352C168.016 80.4727 167.082 80.9609 165.801 81H164.934V79.0898L165.555 79.043C166.258 78.9648 166.762 78.5586 167.066 77.8242C167.371 77.0898 167.566 75.7305 167.652 73.7461L167.887 68.3203H176.453ZM185.312 74.543C185.312 73.3008 185.555 72.1836 186.039 71.1914C186.531 70.1992 187.211 69.4336 188.078 68.8945C188.953 68.3555 189.949 68.0859 191.066 68.0859C192.793 68.0859 194.188 68.6836 195.25 69.8789C196.32 71.0742 196.855 72.6641 196.855 74.6484V74.8008C196.855 76.0352 196.617 77.1445 196.141 78.1289C195.672 79.1055 194.996 79.8672 194.113 80.4141C193.238 80.9609 192.23 81.2344 191.09 81.2344C189.371 81.2344 187.977 80.6367 186.906 79.4414C185.844 78.2461 185.312 76.6641 185.312 74.6953V74.543ZM187.492 74.8008C187.492 76.207 187.816 77.3359 188.465 78.1875C189.121 79.0391 189.996 79.4648 191.09 79.4648C192.191 79.4648 193.066 79.0352 193.715 78.1758C194.363 77.3086 194.688 76.0977 194.688 74.543C194.688 73.1523 194.355 72.0273 193.691 71.168C193.035 70.3008 192.16 69.8672 191.066 69.8672C189.996 69.8672 189.133 70.293 188.477 71.1445C187.82 71.9961 187.492 73.2148 187.492 74.8008ZM208.738 70.0781H204.484V81H202.316V70.0781H198.145V68.3203H208.738V70.0781ZM211.047 81V68.3203H215.992C217.68 68.3203 218.973 68.6172 219.871 69.2109C220.777 69.7969 221.23 70.6602 221.23 71.8008C221.23 72.3867 221.055 72.918 220.703 73.3945C220.352 73.8633 219.832 74.2227 219.145 74.4727C219.91 74.6523 220.523 75.0039 220.984 75.5273C221.453 76.0508 221.688 76.6758 221.688 77.4023C221.688 78.5664 221.258 79.457 220.398 80.0742C219.547 80.6914 218.34 81 216.777 81H211.047ZM213.215 75.4336V79.2539H216.801C217.707 79.2539 218.383 79.0859 218.828 78.75C219.281 78.4141 219.508 77.9414 219.508 77.332C219.508 76.0664 218.578 75.4336 216.719 75.4336H213.215ZM213.215 73.6992H216.016C218.047 73.6992 219.062 73.1055 219.062 71.918C219.062 70.7305 218.102 70.1172 216.18 70.0781H213.215V73.6992ZM229.82 81.2344C228.102 81.2344 226.703 80.6719 225.625 79.5469C224.547 78.4141 224.008 76.9023 224.008 75.0117V74.6133C224.008 73.3555 224.246 72.2344 224.723 71.25C225.207 70.2578 225.879 69.4844 226.738 68.9297C227.605 68.3672 228.543 68.0859 229.551 68.0859C231.199 68.0859 232.48 68.6289 233.395 69.7148C234.309 70.8008 234.766 72.3555 234.766 74.3789V75.2812H226.176C226.207 76.5312 226.57 77.543 227.266 78.3164C227.969 79.082 228.859 79.4648 229.938 79.4648C230.703 79.4648 231.352 79.3086 231.883 78.9961C232.414 78.6836 232.879 78.2695 233.277 77.7539L234.602 78.7852C233.539 80.418 231.945 81.2344 229.82 81.2344ZM229.551 69.8672C228.676 69.8672 227.941 70.1875 227.348 70.8281C226.754 71.4609 226.387 72.3516 226.246 73.5H232.598V73.3359C232.535 72.2344 232.238 71.3828 231.707 70.7812C231.176 70.1719 230.457 69.8672 229.551 69.8672ZM246.566 70.0781H242.312V81H240.145V70.0781H235.973V68.3203H246.566V70.0781ZM252.824 79.4648C253.598 79.4648 254.273 79.2305 254.852 78.7617C255.43 78.293 255.75 77.707 255.812 77.0039H257.863C257.824 77.7305 257.574 78.4219 257.113 79.0781C256.652 79.7344 256.035 80.2578 255.262 80.6484C254.496 81.0391 253.684 81.2344 252.824 81.2344C251.098 81.2344 249.723 80.6602 248.699 79.5117C247.684 78.3555 247.176 76.7773 247.176 74.7773V74.4141C247.176 73.1797 247.402 72.082 247.855 71.1211C248.309 70.1602 248.957 69.4141 249.801 68.8828C250.652 68.3516 251.656 68.0859 252.812 68.0859C254.234 68.0859 255.414 68.5117 256.352 69.3633C257.297 70.2148 257.801 71.3203 257.863 72.6797H255.812C255.75 71.8594 255.438 71.1875 254.875 70.6641C254.32 70.1328 253.633 69.8672 252.812 69.8672C251.711 69.8672 250.855 70.2656 250.246 71.0625C249.645 71.8516 249.344 72.9961 249.344 74.4961V74.9062C249.344 76.3672 249.645 77.4922 250.246 78.2812C250.848 79.0703 251.707 79.4648 252.824 79.4648ZM269.723 70.0781H265.469V81H263.301V70.0781H259.129V68.3203H269.723V70.0781ZM272.031 81V68.3203H276.977C278.664 68.3203 279.957 68.6172 280.855 69.2109C281.762 69.7969 282.215 70.6602 282.215 71.8008C282.215 72.3867 282.039 72.918 281.688 73.3945C281.336 73.8633 280.816 74.2227 280.129 74.4727C280.895 74.6523 281.508 75.0039 281.969 75.5273C282.438 76.0508 282.672 76.6758 282.672 77.4023C282.672 78.5664 282.242 79.457 281.383 80.0742C280.531 80.6914 279.324 81 277.762 81H272.031ZM274.199 75.4336V79.2539H277.785C278.691 79.2539 279.367 79.0859 279.812 78.75C280.266 78.4141 280.492 77.9414 280.492 77.332C280.492 76.0664 279.562 75.4336 277.703 75.4336H274.199ZM274.199 73.6992H277C279.031 73.6992 280.047 73.1055 280.047 71.918C280.047 70.7305 279.086 70.1172 277.164 70.0781H274.199V73.6992ZM290.805 81.2344C289.086 81.2344 287.688 80.6719 286.609 79.5469C285.531 78.4141 284.992 76.9023 284.992 75.0117V74.6133C284.992 73.3555 285.23 72.2344 285.707 71.25C286.191 70.2578 286.863 69.4844 287.723 68.9297C288.59 68.3672 289.527 68.0859 290.535 68.0859C292.184 68.0859 293.465 68.6289 294.379 69.7148C295.293 70.8008 295.75 72.3555 295.75 74.3789V75.2812H287.16C287.191 76.5312 287.555 77.543 288.25 78.3164C288.953 79.082 289.844 79.4648 290.922 79.4648C291.688 79.4648 292.336 79.3086 292.867 78.9961C293.398 78.6836 293.863 78.2695 294.262 77.7539L295.586 78.7852C294.523 80.418 292.93 81.2344 290.805 81.2344ZM290.535 69.8672C289.66 69.8672 288.926 70.1875 288.332 70.8281C287.738 71.4609 287.371 72.3516 287.23 73.5H293.582V73.3359C293.52 72.2344 293.223 71.3828 292.691 70.7812C292.16 70.1719 291.441 69.8672 290.535 69.8672ZM308.629 81H306.461V75.5859H300.637V81H298.457V68.3203H300.637V73.8164H306.461V68.3203H308.629V81ZM322.48 81H320.312V75.5859H314.488V81H312.309V68.3203H314.488V73.8164H320.312V68.3203H322.48V81ZM331.234 81.2344C329.516 81.2344 328.117 80.6719 327.039 79.5469C325.961 78.4141 325.422 76.9023 325.422 75.0117V74.6133C325.422 73.3555 325.66 72.2344 326.137 71.25C326.621 70.2578 327.293 69.4844 328.152 68.9297C329.02 68.3672 329.957 68.0859 330.965 68.0859C332.613 68.0859 333.895 68.6289 334.809 69.7148C335.723 70.8008 336.18 72.3555 336.18 74.3789V75.2812H327.59C327.621 76.5312 327.984 77.543 328.68 78.3164C329.383 79.082 330.273 79.4648 331.352 79.4648C332.117 79.4648 332.766 79.3086 333.297 78.9961C333.828 78.6836 334.293 78.2695 334.691 77.7539L336.016 78.7852C334.953 80.418 333.359 81.2344 331.234 81.2344ZM330.965 69.8672C330.09 69.8672 329.355 70.1875 328.762 70.8281C328.168 71.4609 327.801 72.3516 327.66 73.5H334.012V73.3359C333.949 72.2344 333.652 71.3828 333.121 70.7812C332.59 70.1719 331.871 69.8672 330.965 69.8672ZM349.059 81H346.891V75.5859H341.066V81H338.887V68.3203H341.066V73.8164H346.891V68.3203H349.059V81ZM365.477 71.7891C365.477 71.1953 365.25 70.7266 364.797 70.3828C364.344 70.0312 363.723 69.8555 362.934 69.8555C362.168 69.8555 361.527 70.0547 361.012 70.4531C360.504 70.8516 360.25 71.3203 360.25 71.8594H358.094C358.094 70.7578 358.555 69.8555 359.477 69.1523C360.398 68.4492 361.551 68.0977 362.934 68.0977C364.418 68.0977 365.574 68.418 366.402 69.0586C367.23 69.6914 367.645 70.5977 367.645 71.7773C367.645 72.3477 367.473 72.8711 367.129 73.3477C366.785 73.8242 366.297 74.2031 365.664 74.4844C367.141 74.9844 367.879 75.9688 367.879 77.4375C367.879 78.6016 367.43 79.5234 366.531 80.2031C365.633 80.8828 364.434 81.2227 362.934 81.2227C361.473 81.2227 360.266 80.8672 359.312 80.1562C358.367 79.4375 357.895 78.4688 357.895 77.25H360.051C360.051 77.8672 360.324 78.3984 360.871 78.8438C361.426 79.2812 362.113 79.5 362.934 79.5C363.762 79.5 364.43 79.3086 364.938 78.9258C365.445 78.543 365.699 78.0469 365.699 77.4375C365.699 76.7266 365.484 76.2188 365.055 75.9141C364.633 75.6016 363.973 75.4453 363.074 75.4453H360.906V73.6172H363.262C364.738 73.5781 365.477 72.9688 365.477 71.7891ZM378.52 81C378.395 80.75 378.293 80.3047 378.215 79.6641C377.207 80.7109 376.004 81.2344 374.605 81.2344C373.355 81.2344 372.328 80.8828 371.523 80.1797C370.727 79.4688 370.328 78.5703 370.328 77.4844C370.328 76.1641 370.828 75.1406 371.828 74.4141C372.836 73.6797 374.25 73.3125 376.07 73.3125H378.18V72.3164C378.18 71.5586 377.953 70.957 377.5 70.5117C377.047 70.0586 376.379 69.832 375.496 69.832C374.723 69.832 374.074 70.0273 373.551 70.418C373.027 70.8086 372.766 71.2812 372.766 71.8359H370.586C370.586 71.2031 370.809 70.5938 371.254 70.0078C371.707 69.4141 372.316 68.9453 373.082 68.6016C373.855 68.2578 374.703 68.0859 375.625 68.0859C377.086 68.0859 378.23 68.4531 379.059 69.1875C379.887 69.9141 380.316 70.918 380.348 72.1992V78.0352C380.348 79.1992 380.496 80.125 380.793 80.8125V81H378.52ZM374.922 79.3477C375.602 79.3477 376.246 79.1719 376.855 78.8203C377.465 78.4688 377.906 78.0117 378.18 77.4492V74.8477H376.48C373.824 74.8477 372.496 75.625 372.496 77.1797C372.496 77.8594 372.723 78.3906 373.176 78.7734C373.629 79.1562 374.211 79.3477 374.922 79.3477ZM98.0195 107.465C98.793 107.465 99.4688 107.23 100.047 106.762C100.625 106.293 100.945 105.707 101.008 105.004H103.059C103.02 105.73 102.77 106.422 102.309 107.078C101.848 107.734 101.23 108.258 100.457 108.648C99.6914 109.039 98.8789 109.234 98.0195 109.234C96.293 109.234 94.918 108.66 93.8945 107.512C92.8789 106.355 92.3711 104.777 92.3711 102.777V102.414C92.3711 101.18 92.5977 100.082 93.0508 99.1211C93.5039 98.1602 94.1523 97.4141 94.9961 96.8828C95.8477 96.3516 96.8516 96.0859 98.0078 96.0859C99.4297 96.0859 100.609 96.5117 101.547 97.3633C102.492 98.2148 102.996 99.3203 103.059 100.68H101.008C100.945 99.8594 100.633 99.1875 100.07 98.6641C99.5156 98.1328 98.8281 97.8672 98.0078 97.8672C96.9062 97.8672 96.0508 98.2656 95.4414 99.0625C94.8398 99.8516 94.5391 100.996 94.5391 102.496V102.906C94.5391 104.367 94.8398 105.492 95.4414 106.281C96.043 107.07 96.9023 107.465 98.0195 107.465ZM104.922 102.543C104.922 101.301 105.164 100.184 105.648 99.1914C106.141 98.1992 106.82 97.4336 107.688 96.8945C108.562 96.3555 109.559 96.0859 110.676 96.0859C112.402 96.0859 113.797 96.6836 114.859 97.8789C115.93 99.0742 116.465 100.664 116.465 102.648V102.801C116.465 104.035 116.227 105.145 115.75 106.129C115.281 107.105 114.605 107.867 113.723 108.414C112.848 108.961 111.84 109.234 110.699 109.234C108.98 109.234 107.586 108.637 106.516 107.441C105.453 106.246 104.922 104.664 104.922 102.695V102.543ZM107.102 102.801C107.102 104.207 107.426 105.336 108.074 106.188C108.73 107.039 109.605 107.465 110.699 107.465C111.801 107.465 112.676 107.035 113.324 106.176C113.973 105.309 114.297 104.098 114.297 102.543C114.297 101.152 113.965 100.027 113.301 99.168C112.645 98.3008 111.77 97.8672 110.676 97.8672C109.605 97.8672 108.742 98.293 108.086 99.1445C107.43 99.9961 107.102 101.215 107.102 102.801ZM126.156 99.7891C126.156 99.1953 125.93 98.7266 125.477 98.3828C125.023 98.0312 124.402 97.8555 123.613 97.8555C122.848 97.8555 122.207 98.0547 121.691 98.4531C121.184 98.8516 120.93 99.3203 120.93 99.8594H118.773C118.773 98.7578 119.234 97.8555 120.156 97.1523C121.078 96.4492 122.23 96.0977 123.613 96.0977C125.098 96.0977 126.254 96.418 127.082 97.0586C127.91 97.6914 128.324 98.5977 128.324 99.7773C128.324 100.348 128.152 100.871 127.809 101.348C127.465 101.824 126.977 102.203 126.344 102.484C127.82 102.984 128.559 103.969 128.559 105.438C128.559 106.602 128.109 107.523 127.211 108.203C126.312 108.883 125.113 109.223 123.613 109.223C122.152 109.223 120.945 108.867 119.992 108.156C119.047 107.438 118.574 106.469 118.574 105.25H120.73C120.73 105.867 121.004 106.398 121.551 106.844C122.105 107.281 122.793 107.5 123.613 107.5C124.441 107.5 125.109 107.309 125.617 106.926C126.125 106.543 126.379 106.047 126.379 105.438C126.379 104.727 126.164 104.219 125.734 103.914C125.312 103.602 124.652 103.445 123.754 103.445H121.586V101.617H123.941C125.418 101.578 126.156 100.969 126.156 99.7891ZM131.266 107.23L132.016 106.305C132.859 105.211 133.34 103.57 133.457 101.383L133.656 96.3203H141.824V107.23H143.453V112.727H141.285V109H132.438V112.727H130.27L130.281 107.23H131.266ZM133.832 107.23H139.656V98.3242H135.754L135.625 101.348C135.492 103.871 134.895 105.832 133.832 107.23ZM153.684 109C153.559 108.75 153.457 108.305 153.379 107.664C152.371 108.711 151.168 109.234 149.77 109.234C148.52 109.234 147.492 108.883 146.688 108.18C145.891 107.469 145.492 106.57 145.492 105.484C145.492 104.164 145.992 103.141 146.992 102.414C148 101.68 149.414 101.312 151.234 101.312H153.344V100.316C153.344 99.5586 153.117 98.957 152.664 98.5117C152.211 98.0586 151.543 97.832 150.66 97.832C149.887 97.832 149.238 98.0273 148.715 98.418C148.191 98.8086 147.93 99.2812 147.93 99.8359H145.75C145.75 99.2031 145.973 98.5938 146.418 98.0078C146.871 97.4141 147.48 96.9453 148.246 96.6016C149.02 96.2578 149.867 96.0859 150.789 96.0859C152.25 96.0859 153.395 96.4531 154.223 97.1875C155.051 97.9141 155.48 98.918 155.512 100.199V106.035C155.512 107.199 155.66 108.125 155.957 108.812V109H153.684ZM150.086 107.348C150.766 107.348 151.41 107.172 152.02 106.82C152.629 106.469 153.07 106.012 153.344 105.449V102.848H151.645C148.988 102.848 147.66 103.625 147.66 105.18C147.66 105.859 147.887 106.391 148.34 106.773C148.793 107.156 149.375 107.348 150.086 107.348ZM169.27 109H167.102V103.586H161.277V109H159.098V96.3203H161.277V101.816H167.102V96.3203H169.27V109ZM180.965 96.3203H183.133V109H180.965V99.7539L175.117 109H172.949V96.3203H175.117V105.578L180.965 96.3203ZM191.875 109.234C190.156 109.234 188.758 108.672 187.68 107.547C186.602 106.414 186.062 104.902 186.062 103.012V102.613C186.062 101.355 186.301 100.234 186.777 99.25C187.262 98.2578 187.934 97.4844 188.793 96.9297C189.66 96.3672 190.598 96.0859 191.605 96.0859C193.254 96.0859 194.535 96.6289 195.449 97.7148C196.363 98.8008 196.82 100.355 196.82 102.379V103.281H188.23C188.262 104.531 188.625 105.543 189.32 106.316C190.023 107.082 190.914 107.465 191.992 107.465C192.758 107.465 193.406 107.309 193.938 106.996C194.469 106.684 194.934 106.27 195.332 105.754L196.656 106.785C195.594 108.418 194 109.234 191.875 109.234ZM191.605 97.8672C190.73 97.8672 189.996 98.1875 189.402 98.8281C188.809 99.4609 188.441 100.352 188.301 101.5H194.652V101.336C194.59 100.234 194.293 99.3828 193.762 98.7812C193.23 98.1719 192.512 97.8672 191.605 97.8672ZM209.746 97.8672C208.973 97.8672 208.301 98.1133 207.73 98.6055C207.168 99.0977 206.887 99.6797 206.887 100.352H204.824C204.824 99.625 205.055 98.9297 205.516 98.2656C205.977 97.6016 206.59 97.0742 207.355 96.6836C208.121 96.2852 208.918 96.0859 209.746 96.0859C211.395 96.0859 212.727 96.6836 213.742 97.8789C214.766 99.0664 215.277 100.621 215.277 102.543V102.906C215.277 104.094 215.043 105.18 214.574 106.164C214.113 107.141 213.461 107.898 212.617 108.438C211.781 108.969 210.824 109.234 209.746 109.234C208.34 109.234 207.168 108.797 206.23 107.922C205.293 107.047 204.824 105.957 204.824 104.652H206.887C206.887 105.449 207.164 106.121 207.719 106.668C208.273 107.207 208.949 107.477 209.746 107.477C210.676 107.477 211.441 107.117 212.043 106.398C212.645 105.68 212.992 104.691 213.086 103.434H208.328V101.652H213.062C212.953 100.512 212.605 99.5977 212.02 98.9102C211.434 98.2148 210.676 97.8672 209.746 97.8672ZM226.691 98.0781H222.438V109H220.27V98.0781H216.098V96.3203H226.691V98.0781ZM227.734 102.543C227.734 101.301 227.977 100.184 228.461 99.1914C228.953 98.1992 229.633 97.4336 230.5 96.8945C231.375 96.3555 232.371 96.0859 233.488 96.0859C235.215 96.0859 236.609 96.6836 237.672 97.8789C238.742 99.0742 239.277 100.664 239.277 102.648V102.801C239.277 104.035 239.039 105.145 238.562 106.129C238.094 107.105 237.418 107.867 236.535 108.414C235.66 108.961 234.652 109.234 233.512 109.234C231.793 109.234 230.398 108.637 229.328 107.441C228.266 106.246 227.734 104.664 227.734 102.695V102.543ZM229.914 102.801C229.914 104.207 230.238 105.336 230.887 106.188C231.543 107.039 232.418 107.465 233.512 107.465C234.613 107.465 235.488 107.035 236.137 106.176C236.785 105.309 237.109 104.098 237.109 102.543C237.109 101.152 236.777 100.027 236.113 99.168C235.457 98.3008 234.582 97.8672 233.488 97.8672C232.418 97.8672 231.555 98.293 230.898 99.1445C230.242 99.9961 229.914 101.215 229.914 102.801ZM250.188 98.1133H244.34V109H242.16V96.3203H250.188V98.1133ZM251.266 102.543C251.266 101.301 251.508 100.184 251.992 99.1914C252.484 98.1992 253.164 97.4336 254.031 96.8945C254.906 96.3555 255.902 96.0859 257.02 96.0859C258.746 96.0859 260.141 96.6836 261.203 97.8789C262.273 99.0742 262.809 100.664 262.809 102.648V102.801C262.809 104.035 262.57 105.145 262.094 106.129C261.625 107.105 260.949 107.867 260.066 108.414C259.191 108.961 258.184 109.234 257.043 109.234C255.324 109.234 253.93 108.637 252.859 107.441C251.797 106.246 251.266 104.664 251.266 102.695V102.543ZM253.445 102.801C253.445 104.207 253.77 105.336 254.418 106.188C255.074 107.039 255.949 107.465 257.043 107.465C258.145 107.465 259.02 107.035 259.668 106.176C260.316 105.309 260.641 104.098 260.641 102.543C260.641 101.152 260.309 100.027 259.645 99.168C258.988 98.3008 258.113 97.8672 257.02 97.8672C255.949 97.8672 255.086 98.293 254.43 99.1445C253.773 99.9961 253.445 101.215 253.445 102.801ZM276.566 107.465C277.34 107.465 278.016 107.23 278.594 106.762C279.172 106.293 279.492 105.707 279.555 105.004H281.605C281.566 105.73 281.316 106.422 280.855 107.078C280.395 107.734 279.777 108.258 279.004 108.648C278.238 109.039 277.426 109.234 276.566 109.234C274.84 109.234 273.465 108.66 272.441 107.512C271.426 106.355 270.918 104.777 270.918 102.777V102.414C270.918 101.18 271.145 100.082 271.598 99.1211C272.051 98.1602 272.699 97.4141 273.543 96.8828C274.395 96.3516 275.398 96.0859 276.555 96.0859C277.977 96.0859 279.156 96.5117 280.094 97.3633C281.039 98.2148 281.543 99.3203 281.605 100.68H279.555C279.492 99.8594 279.18 99.1875 278.617 98.6641C278.062 98.1328 277.375 97.8672 276.555 97.8672C275.453 97.8672 274.598 98.2656 273.988 99.0625C273.387 99.8516 273.086 100.996 273.086 102.496V102.906C273.086 104.367 273.387 105.492 273.988 106.281C274.59 107.07 275.449 107.465 276.566 107.465ZM291.871 109C291.746 108.75 291.645 108.305 291.566 107.664C290.559 108.711 289.355 109.234 287.957 109.234C286.707 109.234 285.68 108.883 284.875 108.18C284.078 107.469 283.68 106.57 283.68 105.484C283.68 104.164 284.18 103.141 285.18 102.414C286.188 101.68 287.602 101.312 289.422 101.312H291.531V100.316C291.531 99.5586 291.305 98.957 290.852 98.5117C290.398 98.0586 289.73 97.832 288.848 97.832C288.074 97.832 287.426 98.0273 286.902 98.418C286.379 98.8086 286.117 99.2812 286.117 99.8359H283.938C283.938 99.2031 284.16 98.5938 284.605 98.0078C285.059 97.4141 285.668 96.9453 286.434 96.6016C287.207 96.2578 288.055 96.0859 288.977 96.0859C290.438 96.0859 291.582 96.4531 292.41 97.1875C293.238 97.9141 293.668 98.918 293.699 100.199V106.035C293.699 107.199 293.848 108.125 294.145 108.812V109H291.871ZM288.273 107.348C288.953 107.348 289.598 107.172 290.207 106.82C290.816 106.469 291.258 106.012 291.531 105.449V102.848H289.832C287.176 102.848 285.848 103.625 285.848 105.18C285.848 105.859 286.074 106.391 286.527 106.773C286.98 107.156 287.562 107.348 288.273 107.348ZM305.301 96.3203H307.469V109H305.301V99.7539L299.453 109H297.285V96.3203H299.453V105.578L305.301 96.3203ZM305.887 91.7031C305.887 92.6484 305.562 93.4102 304.914 93.9883C304.273 94.5586 303.43 94.8438 302.383 94.8438C301.336 94.8438 300.488 94.5547 299.84 93.9766C299.191 93.3984 298.867 92.6406 298.867 91.7031H300.637C300.637 92.25 300.785 92.6797 301.082 92.9922C301.379 93.2969 301.812 93.4492 302.383 93.4492C302.93 93.4492 303.355 93.2969 303.66 92.9922C303.973 92.6875 304.129 92.2578 304.129 91.7031H305.887ZM320.371 98.0781H316.117V109H313.949V98.0781H309.777V96.3203H320.371V98.0781ZM330.121 109C329.996 108.75 329.895 108.305 329.816 107.664C328.809 108.711 327.605 109.234 326.207 109.234C324.957 109.234 323.93 108.883 323.125 108.18C322.328 107.469 321.93 106.57 321.93 105.484C321.93 104.164 322.43 103.141 323.43 102.414C324.438 101.68 325.852 101.312 327.672 101.312H329.781V100.316C329.781 99.5586 329.555 98.957 329.102 98.5117C328.648 98.0586 327.98 97.832 327.098 97.832C326.324 97.832 325.676 98.0273 325.152 98.418C324.629 98.8086 324.367 99.2812 324.367 99.8359H322.188C322.188 99.2031 322.41 98.5938 322.855 98.0078C323.309 97.4141 323.918 96.9453 324.684 96.6016C325.457 96.2578 326.305 96.0859 327.227 96.0859C328.688 96.0859 329.832 96.4531 330.66 97.1875C331.488 97.9141 331.918 98.918 331.949 100.199V106.035C331.949 107.199 332.098 108.125 332.395 108.812V109H330.121ZM326.523 107.348C327.203 107.348 327.848 107.172 328.457 106.82C329.066 106.469 329.508 106.012 329.781 105.449V102.848H328.082C325.426 102.848 324.098 103.625 324.098 105.18C324.098 105.859 324.324 106.391 324.777 106.773C325.23 107.156 325.812 107.348 326.523 107.348Z" fill="white"/>
<defs>
<linearGradient id="paint0_linear" x1="422.634" y1="16.0741" x2="320.691" y2="313.088" gradientUnits="userSpaceOnUse">
<stop stop-color="#635189"/>
<stop offset="0.411458" stop-color="#B174B1"/>
<stop offset="1" stop-color="#FFABBA"/>
</linearGradient>
</defs>
</svg>
