<svg width="442" height="184" viewBox="0 0 442 184" fill="none" xmlns="http://www.w3.org/2000/svg">
<path d="M36 131L76.5 151.5C68.3267 171.176 49.1142 184 27.8077 184H0C18.0681 178.181 31.2749 162.622 34.0801 143.848L36 131Z" fill="#FFABBB"/>
<rect x="7" width="435" height="165" rx="26" fill="url(#paint0_linear)"/>
<rect x="102.5" y="109.5" width="234.953" height="42.2031" rx="15.5" stroke="white"/>
<path d="M184.186 131.252H182.63V137H180.943V124.203H182.63V129.846H183.949L188.422 124.203H190.523L185.636 130.408L190.883 137H188.818L184.186 131.252ZM191.499 132.157C191.499 131.226 191.68 130.388 192.044 129.644C192.413 128.899 192.922 128.325 193.573 127.921C194.229 127.517 194.976 127.314 195.814 127.314C197.109 127.314 198.155 127.763 198.952 128.659C199.754 129.556 200.156 130.748 200.156 132.236V132.351C200.156 133.276 199.977 134.108 199.62 134.847C199.268 135.579 198.761 136.15 198.099 136.561C197.443 136.971 196.687 137.176 195.832 137.176C194.543 137.176 193.497 136.728 192.694 135.831C191.897 134.935 191.499 133.748 191.499 132.271V132.157ZM193.133 132.351C193.133 133.405 193.377 134.252 193.863 134.891C194.355 135.529 195.011 135.849 195.832 135.849C196.658 135.849 197.314 135.526 197.8 134.882C198.287 134.231 198.53 133.323 198.53 132.157C198.53 131.114 198.281 130.271 197.783 129.626C197.291 128.976 196.634 128.65 195.814 128.65C195.011 128.65 194.364 128.97 193.872 129.608C193.379 130.247 193.133 131.161 193.133 132.351ZM209.964 137H208.338V132.939H203.97V137H202.336V127.49H203.97V131.612H208.338V127.49H209.964V137ZM219.65 128.809H216.46V137H214.834V128.809H211.705V127.49H219.65V128.809ZM226.962 137C226.869 136.812 226.793 136.479 226.734 135.998C225.978 136.783 225.076 137.176 224.027 137.176C223.089 137.176 222.319 136.912 221.715 136.385C221.118 135.852 220.819 135.178 220.819 134.363C220.819 133.373 221.194 132.605 221.944 132.061C222.7 131.51 223.76 131.234 225.126 131.234H226.708V130.487C226.708 129.919 226.538 129.468 226.198 129.134C225.858 128.794 225.357 128.624 224.695 128.624C224.115 128.624 223.628 128.771 223.236 129.063C222.843 129.356 222.647 129.711 222.647 130.127H221.012C221.012 129.652 221.179 129.195 221.513 128.756C221.853 128.311 222.31 127.959 222.884 127.701C223.464 127.443 224.1 127.314 224.792 127.314C225.887 127.314 226.746 127.59 227.367 128.141C227.988 128.686 228.31 129.438 228.334 130.399V134.776C228.334 135.649 228.445 136.344 228.668 136.859V137H226.962ZM224.264 135.761C224.774 135.761 225.257 135.629 225.714 135.365C226.171 135.102 226.502 134.759 226.708 134.337V132.386H225.433C223.441 132.386 222.445 132.969 222.445 134.135C222.445 134.645 222.615 135.043 222.955 135.33C223.294 135.617 223.731 135.761 224.264 135.761ZM233.844 132.948H232.658V137H231.023V127.49H232.658V131.516H233.721L236.92 127.49H238.889L235.127 132.061L239.206 137H237.14L233.844 132.948ZM247.669 128.809H244.479V137H242.853V128.809H239.724V127.49H247.669V128.809ZM251.027 130.769H253.497C254.575 130.78 255.427 131.062 256.054 131.612C256.681 132.163 256.995 132.91 256.995 133.854C256.995 134.803 256.672 135.564 256.028 136.139C255.383 136.713 254.516 137 253.426 137H249.401V127.49H251.027V130.769ZM260.387 137H258.752V127.49H260.387V137ZM251.027 132.096V135.673H253.444C254.053 135.673 254.525 135.518 254.859 135.207C255.193 134.891 255.36 134.46 255.36 133.915C255.36 133.388 255.196 132.957 254.868 132.623C254.545 132.283 254.091 132.107 253.505 132.096H251.027Z" fill="white"/>
<path d="M72.3008 80V73.3555H68.3633L64.8359 80H62.4336L66.3945 72.7344C64.1914 71.8672 63.0898 70.3164 63.0898 68.082C63.0898 66.457 63.6211 65.1953 64.6836 64.2969C65.7539 63.3906 67.2383 62.9375 69.1367 62.9375H74.5625V80H72.3008ZM65.3398 68.082C65.3398 69.1133 65.6602 69.9414 66.3008 70.5664C66.9492 71.1914 67.8477 71.5078 68.9961 71.5156H72.3008V64.7891H69.1016C67.8828 64.7891 66.9492 65.0781 66.3008 65.6562C65.6602 66.2344 65.3398 67.043 65.3398 68.082ZM97.7188 80H95.457V72.1133H86.8555V80H84.6055V62.9375H86.8555V70.2734H95.457V62.9375H97.7188V80ZM109.578 67.3203H111.746V80H109.578V70.7539L103.73 80H101.562V67.3203H103.73V76.5781L109.578 67.3203ZM119.176 74.5977H117.594V80H115.414V67.3203H117.594V72.6875H119.012L123.277 67.3203H125.902L120.887 73.4141L126.324 80H123.57L119.176 74.5977ZM136.391 67.3203H138.559V80H136.391V70.7539L130.543 80H128.375V67.3203H130.543V76.5781L136.391 67.3203ZM151.461 69.0781H147.207V80H145.039V69.0781H140.867V67.3203H151.461V69.0781ZM161.211 80C161.086 79.75 160.984 79.3047 160.906 78.6641C159.898 79.7109 158.695 80.2344 157.297 80.2344C156.047 80.2344 155.02 79.8828 154.215 79.1797C153.418 78.4688 153.02 77.5703 153.02 76.4844C153.02 75.1641 153.52 74.1406 154.52 73.4141C155.527 72.6797 156.941 72.3125 158.762 72.3125H160.871V71.3164C160.871 70.5586 160.645 69.957 160.191 69.5117C159.738 69.0586 159.07 68.832 158.188 68.832C157.414 68.832 156.766 69.0273 156.242 69.418C155.719 69.8086 155.457 70.2812 155.457 70.8359H153.277C153.277 70.2031 153.5 69.5938 153.945 69.0078C154.398 68.4141 155.008 67.9453 155.773 67.6016C156.547 67.2578 157.395 67.0859 158.316 67.0859C159.777 67.0859 160.922 67.4531 161.75 68.1875C162.578 68.9141 163.008 69.918 163.039 71.1992V77.0352C163.039 78.1992 163.188 79.125 163.484 79.8125V80H161.211ZM157.613 78.3477C158.293 78.3477 158.938 78.1719 159.547 77.8203C160.156 77.4688 160.598 77.0117 160.871 76.4492V73.8477H159.172C156.516 73.8477 155.188 74.625 155.188 76.1797C155.188 76.8594 155.414 77.3906 155.867 77.7734C156.32 78.1562 156.902 78.3477 157.613 78.3477ZM166.367 83.3984L165.137 82.5547C165.871 81.5312 166.254 80.4766 166.285 79.3906V77.4336H168.406V79.1328C168.406 79.9219 168.211 80.7109 167.82 81.5C167.438 82.2891 166.953 82.9219 166.367 83.3984ZM181.051 74.5977H179.469V80H177.289V67.3203H179.469V72.6875H180.887L185.152 67.3203H187.777L182.762 73.4141L188.199 80H185.445L181.051 74.5977ZM197.891 80C197.766 79.75 197.664 79.3047 197.586 78.6641C196.578 79.7109 195.375 80.2344 193.977 80.2344C192.727 80.2344 191.699 79.8828 190.895 79.1797C190.098 78.4688 189.699 77.5703 189.699 76.4844C189.699 75.1641 190.199 74.1406 191.199 73.4141C192.207 72.6797 193.621 72.3125 195.441 72.3125H197.551V71.3164C197.551 70.5586 197.324 69.957 196.871 69.5117C196.418 69.0586 195.75 68.832 194.867 68.832C194.094 68.832 193.445 69.0273 192.922 69.418C192.398 69.8086 192.137 70.2812 192.137 70.8359H189.957C189.957 70.2031 190.18 69.5938 190.625 69.0078C191.078 68.4141 191.688 67.9453 192.453 67.6016C193.227 67.2578 194.074 67.0859 194.996 67.0859C196.457 67.0859 197.602 67.4531 198.43 68.1875C199.258 68.9141 199.688 69.918 199.719 71.1992V77.0352C199.719 78.1992 199.867 79.125 200.164 79.8125V80H197.891ZM194.293 78.3477C194.973 78.3477 195.617 78.1719 196.227 77.8203C196.836 77.4688 197.277 77.0117 197.551 76.4492V73.8477H195.852C193.195 73.8477 191.867 74.625 191.867 76.1797C191.867 76.8594 192.094 77.3906 192.547 77.7734C193 78.1562 193.582 78.3477 194.293 78.3477ZM213.488 80H211.32V69.1133H205.484V80H203.305V67.3203H213.488V80ZM225.172 67.3203H227.34V80H225.172V70.7539L219.324 80H217.156V67.3203H219.324V76.5781L225.172 67.3203ZM240.242 69.0781H235.988V80H233.82V69.0781H229.648V67.3203H240.242V69.0781ZM249.992 80C249.867 79.75 249.766 79.3047 249.688 78.6641C248.68 79.7109 247.477 80.2344 246.078 80.2344C244.828 80.2344 243.801 79.8828 242.996 79.1797C242.199 78.4688 241.801 77.5703 241.801 76.4844C241.801 75.1641 242.301 74.1406 243.301 73.4141C244.309 72.6797 245.723 72.3125 247.543 72.3125H249.652V71.3164C249.652 70.5586 249.426 69.957 248.973 69.5117C248.52 69.0586 247.852 68.832 246.969 68.832C246.195 68.832 245.547 69.0273 245.023 69.418C244.5 69.8086 244.238 70.2812 244.238 70.8359H242.059C242.059 70.2031 242.281 69.5938 242.727 69.0078C243.18 68.4141 243.789 67.9453 244.555 67.6016C245.328 67.2578 246.176 67.0859 247.098 67.0859C248.559 67.0859 249.703 67.4531 250.531 68.1875C251.359 68.9141 251.789 69.918 251.82 71.1992V77.0352C251.82 78.1992 251.969 79.125 252.266 79.8125V80H249.992ZM246.395 78.3477C247.074 78.3477 247.719 78.1719 248.328 77.8203C248.938 77.4688 249.379 77.0117 249.652 76.4492V73.8477H247.953C245.297 73.8477 243.969 74.625 243.969 76.1797C243.969 76.8594 244.195 77.3906 244.648 77.7734C245.102 78.1562 245.684 78.3477 246.395 78.3477ZM265.578 80H263.41V74.5859H257.586V80H255.406V67.3203H257.586V72.8164H263.41V67.3203H265.578V80ZM278.973 74.5977H277.391V80H275.211V67.3203H277.391V72.6875H278.809L283.074 67.3203H285.699L280.684 73.4141L286.121 80H283.367L278.973 74.5977ZM287.152 73.543C287.152 72.3008 287.395 71.1836 287.879 70.1914C288.371 69.1992 289.051 68.4336 289.918 67.8945C290.793 67.3555 291.789 67.0859 292.906 67.0859C294.633 67.0859 296.027 67.6836 297.09 68.8789C298.16 70.0742 298.695 71.6641 298.695 73.6484V73.8008C298.695 75.0352 298.457 76.1445 297.98 77.1289C297.512 78.1055 296.836 78.8672 295.953 79.4141C295.078 79.9609 294.07 80.2344 292.93 80.2344C291.211 80.2344 289.816 79.6367 288.746 78.4414C287.684 77.2461 287.152 75.6641 287.152 73.6953V73.543ZM289.332 73.8008C289.332 75.207 289.656 76.3359 290.305 77.1875C290.961 78.0391 291.836 78.4648 292.93 78.4648C294.031 78.4648 294.906 78.0352 295.555 77.1758C296.203 76.3086 296.527 75.0977 296.527 73.543C296.527 72.1523 296.195 71.0273 295.531 70.168C294.875 69.3008 294 68.8672 292.906 68.8672C291.836 68.8672 290.973 69.293 290.316 70.1445C289.66 70.9961 289.332 72.2148 289.332 73.8008ZM308.715 77.1289L313.027 67.3203H315.734V80H313.566V70.7773L309.465 80H307.965L303.781 70.5781V80H301.613V67.3203H304.426L308.715 77.1289ZM327.055 80C326.93 79.75 326.828 79.3047 326.75 78.6641C325.742 79.7109 324.539 80.2344 323.141 80.2344C321.891 80.2344 320.863 79.8828 320.059 79.1797C319.262 78.4688 318.863 77.5703 318.863 76.4844C318.863 75.1641 319.363 74.1406 320.363 73.4141C321.371 72.6797 322.785 72.3125 324.605 72.3125H326.715V71.3164C326.715 70.5586 326.488 69.957 326.035 69.5117C325.582 69.0586 324.914 68.832 324.031 68.832C323.258 68.832 322.609 69.0273 322.086 69.418C321.562 69.8086 321.301 70.2812 321.301 70.8359H319.121C319.121 70.2031 319.344 69.5938 319.789 69.0078C320.242 68.4141 320.852 67.9453 321.617 67.6016C322.391 67.2578 323.238 67.0859 324.16 67.0859C325.621 67.0859 326.766 67.4531 327.594 68.1875C328.422 68.9141 328.852 69.918 328.883 71.1992V77.0352C328.883 78.1992 329.031 79.125 329.328 79.8125V80H327.055ZM323.457 78.3477C324.137 78.3477 324.781 78.1719 325.391 77.8203C326 77.4688 326.441 77.0117 326.715 76.4492V73.8477H325.016C322.359 73.8477 321.031 74.625 321.031 76.1797C321.031 76.8594 321.258 77.3906 321.711 77.7734C322.164 78.1562 322.746 78.3477 323.457 78.3477ZM342.641 80H340.473V74.5859H334.648V80H332.469V67.3203H334.648V72.8164H340.473V67.3203H342.641V80ZM346.027 78.2305L346.777 77.3047C347.621 76.2109 348.102 74.5703 348.219 72.3828L348.418 67.3203H356.586V78.2305H358.215V83.7266H356.047V80H347.199V83.7266H345.031L345.043 78.2305H346.027ZM348.594 78.2305H354.418V69.3242H350.516L350.387 72.3477C350.254 74.8711 349.656 76.832 348.594 78.2305ZM362.984 71.6914H366.277C367.715 71.707 368.852 72.082 369.688 72.8164C370.523 73.5508 370.941 74.5469 370.941 75.8047C370.941 77.0703 370.512 78.0859 369.652 78.8516C368.793 79.6172 367.637 80 366.184 80H360.816V67.3203H362.984V71.6914ZM375.465 80H373.285V67.3203H375.465V80ZM362.984 73.4609V78.2305H366.207C367.02 78.2305 367.648 78.0234 368.094 77.6094C368.539 77.1875 368.762 76.6133 368.762 75.8867C368.762 75.1836 368.543 74.6094 368.105 74.1641C367.676 73.7109 367.07 73.4766 366.289 73.4609H362.984Z" fill="white"/>
<defs>
<linearGradient id="paint0_linear" x1="429.634" y1="12.2222" x2="367.952" y2="248.57" gradientUnits="userSpaceOnUse">
<stop stop-color="#635189"/>
<stop offset="0.411458" stop-color="#B174B1"/>
<stop offset="1" stop-color="#FFABBA"/>
</linearGradient>
</defs>
</svg>
