<svg width="442" height="236" viewBox="0 0 442 236" fill="none" xmlns="http://www.w3.org/2000/svg">
<path d="M36 183L76.5 203.5C68.3267 223.176 49.1142 236 27.8077 236H0C18.0681 230.181 31.2749 214.622 34.0801 195.848L36 183Z" fill="#FFABBB"/>
<rect x="7" width="435" height="217" rx="26" fill="url(#paint0_linear)"/>
<rect x="102.5" y="161.5" width="234.953" height="42.2031" rx="15.5" stroke="white"/>
<path d="M184.186 183.252H182.63V189H180.943V176.203H182.63V181.846H183.949L188.422 176.203H190.523L185.636 182.408L190.883 189H188.818L184.186 183.252ZM191.499 184.157C191.499 183.226 191.68 182.388 192.044 181.644C192.413 180.899 192.922 180.325 193.573 179.921C194.229 179.517 194.976 179.314 195.814 179.314C197.109 179.314 198.155 179.763 198.952 180.659C199.754 181.556 200.156 182.748 200.156 184.236V184.351C200.156 185.276 199.977 186.108 199.62 186.847C199.268 187.579 198.761 188.15 198.099 188.561C197.443 188.971 196.687 189.176 195.832 189.176C194.543 189.176 193.497 188.728 192.694 187.831C191.897 186.935 191.499 185.748 191.499 184.271V184.157ZM193.133 184.351C193.133 185.405 193.377 186.252 193.863 186.891C194.355 187.529 195.011 187.849 195.832 187.849C196.658 187.849 197.314 187.526 197.8 186.882C198.287 186.231 198.53 185.323 198.53 184.157C198.53 183.114 198.281 182.271 197.783 181.626C197.291 180.976 196.634 180.65 195.814 180.65C195.011 180.65 194.364 180.97 193.872 181.608C193.379 182.247 193.133 183.161 193.133 184.351ZM209.964 189H208.338V184.939H203.97V189H202.336V179.49H203.97V183.612H208.338V179.49H209.964V189ZM219.65 180.809H216.46V189H214.834V180.809H211.705V179.49H219.65V180.809ZM226.962 189C226.869 188.812 226.793 188.479 226.734 187.998C225.978 188.783 225.076 189.176 224.027 189.176C223.089 189.176 222.319 188.912 221.715 188.385C221.118 187.852 220.819 187.178 220.819 186.363C220.819 185.373 221.194 184.605 221.944 184.061C222.7 183.51 223.76 183.234 225.126 183.234H226.708V182.487C226.708 181.919 226.538 181.468 226.198 181.134C225.858 180.794 225.357 180.624 224.695 180.624C224.115 180.624 223.628 180.771 223.236 181.063C222.843 181.356 222.647 181.711 222.647 182.127H221.012C221.012 181.652 221.179 181.195 221.513 180.756C221.853 180.311 222.31 179.959 222.884 179.701C223.464 179.443 224.1 179.314 224.792 179.314C225.887 179.314 226.746 179.59 227.367 180.141C227.988 180.686 228.31 181.438 228.334 182.399V186.776C228.334 187.649 228.445 188.344 228.668 188.859V189H226.962ZM224.264 187.761C224.774 187.761 225.257 187.629 225.714 187.365C226.171 187.102 226.502 186.759 226.708 186.337V184.386H225.433C223.441 184.386 222.445 184.969 222.445 186.135C222.445 186.645 222.615 187.043 222.955 187.33C223.294 187.617 223.731 187.761 224.264 187.761ZM233.844 184.948H232.658V189H231.023V179.49H232.658V183.516H233.721L236.92 179.49H238.889L235.127 184.061L239.206 189H237.14L233.844 184.948ZM247.669 180.809H244.479V189H242.853V180.809H239.724V179.49H247.669V180.809ZM251.027 182.769H253.497C254.575 182.78 255.427 183.062 256.054 183.612C256.681 184.163 256.995 184.91 256.995 185.854C256.995 186.803 256.672 187.564 256.028 188.139C255.383 188.713 254.516 189 253.426 189H249.401V179.49H251.027V182.769ZM260.387 189H258.752V179.49H260.387V189ZM251.027 184.096V187.673H253.444C254.053 187.673 254.525 187.518 254.859 187.207C255.193 186.891 255.36 186.46 255.36 185.915C255.36 185.388 255.196 184.957 254.868 184.623C254.545 184.283 254.091 184.107 253.505 184.096H251.027Z" fill="white"/>
<path d="M65.1172 67V49.9375H70.6953C72.5469 49.9375 73.9375 50.3203 74.8672 51.0859C75.8047 51.8516 76.2734 52.9844 76.2734 54.4844C76.2734 55.2812 76.0469 55.9883 75.5938 56.6055C75.1406 57.2148 74.5234 57.6875 73.7422 58.0234C74.6641 58.2812 75.3906 58.7734 75.9219 59.5C76.4609 60.2188 76.7305 61.0781 76.7305 62.0781C76.7305 63.6094 76.2344 64.8125 75.2422 65.6875C74.25 66.5625 72.8477 67 71.0352 67H65.1172ZM67.3672 59.0195V65.1602H71.082C72.1289 65.1602 72.9531 64.8906 73.5547 64.3516C74.1641 63.8047 74.4688 63.0547 74.4688 62.1016C74.4688 60.0469 73.3516 59.0195 71.1172 59.0195H67.3672ZM67.3672 57.2148H70.7656C71.75 57.2148 72.5352 56.9688 73.1211 56.4766C73.7148 55.9844 74.0117 55.3164 74.0117 54.4727C74.0117 53.5352 73.7383 52.8555 73.1914 52.4336C72.6445 52.0039 71.8125 51.7891 70.6953 51.7891H67.3672V57.2148ZM84.8164 65.4648C85.5898 65.4648 86.2656 65.2305 86.8438 64.7617C87.4219 64.293 87.7422 63.707 87.8047 63.0039H89.8555C89.8164 63.7305 89.5664 64.4219 89.1055 65.0781C88.6445 65.7344 88.0273 66.2578 87.2539 66.6484C86.4883 67.0391 85.6758 67.2344 84.8164 67.2344C83.0898 67.2344 81.7148 66.6602 80.6914 65.5117C79.6758 64.3555 79.168 62.7773 79.168 60.7773V60.4141C79.168 59.1797 79.3945 58.082 79.8477 57.1211C80.3008 56.1602 80.9492 55.4141 81.793 54.8828C82.6445 54.3516 83.6484 54.0859 84.8047 54.0859C86.2266 54.0859 87.4062 54.5117 88.3438 55.3633C89.2891 56.2148 89.793 57.3203 89.8555 58.6797H87.8047C87.7422 57.8594 87.4297 57.1875 86.8672 56.6641C86.3125 56.1328 85.625 55.8672 84.8047 55.8672C83.7031 55.8672 82.8477 56.2656 82.2383 57.0625C81.6367 57.8516 81.3359 58.9961 81.3359 60.4961V60.9062C81.3359 62.3672 81.6367 63.4922 82.2383 64.2812C82.8398 65.0703 83.6992 65.4648 84.8164 65.4648ZM97.5547 67.2344C95.8359 67.2344 94.4375 66.6719 93.3594 65.5469C92.2812 64.4141 91.7422 62.9023 91.7422 61.0117V60.6133C91.7422 59.3555 91.9805 58.2344 92.457 57.25C92.9414 56.2578 93.6133 55.4844 94.4727 54.9297C95.3398 54.3672 96.2773 54.0859 97.2852 54.0859C98.9336 54.0859 100.215 54.6289 101.129 55.7148C102.043 56.8008 102.5 58.3555 102.5 60.3789V61.2812H93.9102C93.9414 62.5312 94.3047 63.543 95 64.3164C95.7031 65.082 96.5938 65.4648 97.6719 65.4648C98.4375 65.4648 99.0859 65.3086 99.6172 64.9961C100.148 64.6836 100.613 64.2695 101.012 63.7539L102.336 64.7852C101.273 66.418 99.6797 67.2344 97.5547 67.2344ZM97.2852 55.8672C96.4102 55.8672 95.6758 56.1875 95.082 56.8281C94.4883 57.4609 94.1211 58.3516 93.9805 59.5H100.332V59.3359C100.27 58.2344 99.9727 57.3828 99.4414 56.7812C98.9102 56.1719 98.1914 55.8672 97.2852 55.8672ZM112.32 64.1289L116.633 54.3203H119.34V67H117.172V57.7773L113.07 67H111.57L107.387 57.5781V67H105.219V54.3203H108.031L112.32 64.1289ZM139.156 67H136.988V56.1133H131.152V67H128.973V54.3203H139.156V67ZM153.348 60.8008C153.348 62.7305 152.906 64.2852 152.023 65.4648C151.141 66.6445 149.945 67.2344 148.438 67.2344C146.898 67.2344 145.688 66.7461 144.805 65.7695V71.875H142.637V54.3203H144.617L144.723 55.7266C145.605 54.6328 146.832 54.0859 148.402 54.0859C149.926 54.0859 151.129 54.6602 152.012 55.8086C152.902 56.957 153.348 58.5547 153.348 60.6016V60.8008ZM151.18 60.5547C151.18 59.125 150.875 57.9961 150.266 57.168C149.656 56.3398 148.82 55.9258 147.758 55.9258C146.445 55.9258 145.461 56.5078 144.805 57.6719V63.7305C145.453 64.8867 146.445 65.4648 147.781 65.4648C148.82 65.4648 149.645 65.0547 150.254 64.2344C150.871 63.4062 151.18 62.1797 151.18 60.5547ZM164.316 54.3203H166.484V67H164.316V57.7539L158.469 67H156.301V54.3203H158.469V63.5781L164.316 54.3203ZM170.164 67V54.3203H175.109C176.797 54.3203 178.09 54.6172 178.988 55.2109C179.895 55.7969 180.348 56.6602 180.348 57.8008C180.348 58.3867 180.172 58.918 179.82 59.3945C179.469 59.8633 178.949 60.2227 178.262 60.4727C179.027 60.6523 179.641 61.0039 180.102 61.5273C180.57 62.0508 180.805 62.6758 180.805 63.4023C180.805 64.5664 180.375 65.457 179.516 66.0742C178.664 66.6914 177.457 67 175.895 67H170.164ZM172.332 61.4336V65.2539H175.918C176.824 65.2539 177.5 65.0859 177.945 64.75C178.398 64.4141 178.625 63.9414 178.625 63.332C178.625 62.0664 177.695 61.4336 175.836 61.4336H172.332ZM172.332 59.6992H175.133C177.164 59.6992 178.18 59.1055 178.18 57.918C178.18 56.7305 177.219 56.1172 175.297 56.0781H172.332V59.6992ZM188.938 67.2344C187.219 67.2344 185.82 66.6719 184.742 65.5469C183.664 64.4141 183.125 62.9023 183.125 61.0117V60.6133C183.125 59.3555 183.363 58.2344 183.84 57.25C184.324 56.2578 184.996 55.4844 185.855 54.9297C186.723 54.3672 187.66 54.0859 188.668 54.0859C190.316 54.0859 191.598 54.6289 192.512 55.7148C193.426 56.8008 193.883 58.3555 193.883 60.3789V61.2812H185.293C185.324 62.5312 185.688 63.543 186.383 64.3164C187.086 65.082 187.977 65.4648 189.055 65.4648C189.82 65.4648 190.469 65.3086 191 64.9961C191.531 64.6836 191.996 64.2695 192.395 63.7539L193.719 64.7852C192.656 66.418 191.062 67.2344 188.938 67.2344ZM188.668 55.8672C187.793 55.8672 187.059 56.1875 186.465 56.8281C185.871 57.4609 185.504 58.3516 185.363 59.5H191.715V59.3359C191.652 58.2344 191.355 57.3828 190.824 56.7812C190.293 56.1719 189.574 55.8672 188.668 55.8672ZM205.684 56.0781H201.43V67H199.262V56.0781H195.09V54.3203H205.684V56.0781ZM210.219 62.1836H208.262L208.109 49.9375H210.383L210.219 62.1836ZM208.027 65.9102C208.027 65.5586 208.133 65.2656 208.344 65.0312C208.562 64.7891 208.883 64.668 209.305 64.668C209.727 64.668 210.047 64.7891 210.266 65.0312C210.484 65.2656 210.594 65.5586 210.594 65.9102C210.594 66.2617 210.484 66.5547 210.266 66.7891C210.047 67.0156 209.727 67.1289 209.305 67.1289C208.883 67.1289 208.562 67.0156 208.344 66.7891C208.133 66.5547 208.027 66.2617 208.027 65.9102ZM229.203 67V60.3555H225.266L221.738 67H219.336L223.297 59.7344C221.094 58.8672 219.992 57.3164 219.992 55.082C219.992 53.457 220.523 52.1953 221.586 51.2969C222.656 50.3906 224.141 49.9375 226.039 49.9375H231.465V67H229.203ZM222.242 55.082C222.242 56.1133 222.562 56.9414 223.203 57.5664C223.852 58.1914 224.75 58.5078 225.898 58.5156H229.203V51.7891H226.004C224.785 51.7891 223.852 52.0781 223.203 52.6562C222.562 53.2344 222.242 54.043 222.242 55.082ZM248.141 57.7891C248.141 57.1953 247.914 56.7266 247.461 56.3828C247.008 56.0312 246.387 55.8555 245.598 55.8555C244.832 55.8555 244.191 56.0547 243.676 56.4531C243.168 56.8516 242.914 57.3203 242.914 57.8594H240.758C240.758 56.7578 241.219 55.8555 242.141 55.1523C243.062 54.4492 244.215 54.0977 245.598 54.0977C247.082 54.0977 248.238 54.418 249.066 55.0586C249.895 55.6914 250.309 56.5977 250.309 57.7773C250.309 58.3477 250.137 58.8711 249.793 59.3477C249.449 59.8242 248.961 60.2031 248.328 60.4844C249.805 60.9844 250.543 61.9688 250.543 63.4375C250.543 64.6016 250.094 65.5234 249.195 66.2031C248.297 66.8828 247.098 67.2227 245.598 67.2227C244.137 67.2227 242.93 66.8672 241.977 66.1562C241.031 65.4375 240.559 64.4688 240.559 63.25H242.715C242.715 63.8672 242.988 64.3984 243.535 64.8438C244.09 65.2812 244.777 65.5 245.598 65.5C246.426 65.5 247.094 65.3086 247.602 64.9258C248.109 64.543 248.363 64.0469 248.363 63.4375C248.363 62.7266 248.148 62.2188 247.719 61.9141C247.297 61.6016 246.637 61.4453 245.738 61.4453H243.57V59.6172H245.926C247.402 59.5781 248.141 58.9688 248.141 57.7891ZM261.184 67C261.059 66.75 260.957 66.3047 260.879 65.6641C259.871 66.7109 258.668 67.2344 257.27 67.2344C256.02 67.2344 254.992 66.8828 254.188 66.1797C253.391 65.4688 252.992 64.5703 252.992 63.4844C252.992 62.1641 253.492 61.1406 254.492 60.4141C255.5 59.6797 256.914 59.3125 258.734 59.3125H260.844V58.3164C260.844 57.5586 260.617 56.957 260.164 56.5117C259.711 56.0586 259.043 55.832 258.16 55.832C257.387 55.832 256.738 56.0273 256.215 56.418C255.691 56.8086 255.43 57.2812 255.43 57.8359H253.25C253.25 57.2031 253.473 56.5938 253.918 56.0078C254.371 55.4141 254.98 54.9453 255.746 54.6016C256.52 54.2578 257.367 54.0859 258.289 54.0859C259.75 54.0859 260.895 54.4531 261.723 55.1875C262.551 55.9141 262.98 56.918 263.012 58.1992V64.0352C263.012 65.1992 263.16 66.125 263.457 66.8125V67H261.184ZM257.586 65.3477C258.266 65.3477 258.91 65.1719 259.52 64.8203C260.129 64.4688 260.57 64.0117 260.844 63.4492V60.8477H259.145C256.488 60.8477 255.16 61.625 255.16 63.1797C255.16 63.8594 255.387 64.3906 255.84 64.7734C256.293 65.1562 256.875 65.3477 257.586 65.3477ZM276.77 67H274.602V61.5859H268.777V67H266.598V54.3203H268.777V59.8164H274.602V54.3203H276.77V67ZM288.465 54.3203H290.633V67H288.465V57.7539L282.617 67H280.449V54.3203H282.617V63.5781L288.465 54.3203ZM301.414 64.1289L305.727 54.3203H308.434V67H306.266V57.7773L302.164 67H300.664L296.48 57.5781V67H294.312V54.3203H297.125L301.414 64.1289ZM319.754 67C319.629 66.75 319.527 66.3047 319.449 65.6641C318.441 66.7109 317.238 67.2344 315.84 67.2344C314.59 67.2344 313.562 66.8828 312.758 66.1797C311.961 65.4688 311.562 64.5703 311.562 63.4844C311.562 62.1641 312.062 61.1406 313.062 60.4141C314.07 59.6797 315.484 59.3125 317.305 59.3125H319.414V58.3164C319.414 57.5586 319.188 56.957 318.734 56.5117C318.281 56.0586 317.613 55.832 316.73 55.832C315.957 55.832 315.309 56.0273 314.785 56.418C314.262 56.8086 314 57.2812 314 57.8359H311.82C311.82 57.2031 312.043 56.5938 312.488 56.0078C312.941 55.4141 313.551 54.9453 314.316 54.6016C315.09 54.2578 315.938 54.0859 316.859 54.0859C318.32 54.0859 319.465 54.4531 320.293 55.1875C321.121 55.9141 321.551 56.918 321.582 58.1992V64.0352C321.582 65.1992 321.73 66.125 322.027 66.8125V67H319.754ZM316.156 65.3477C316.836 65.3477 317.48 65.1719 318.09 64.8203C318.699 64.4688 319.141 64.0117 319.414 63.4492V60.8477H317.715C315.059 60.8477 313.73 61.625 313.73 63.1797C313.73 63.8594 313.957 64.3906 314.41 64.7734C314.863 65.1562 315.445 65.3477 316.156 65.3477ZM335.375 54.3203V67H333.195V56.1133H328.883L328.625 60.8594C328.484 63.0391 328.117 64.5977 327.523 65.5352C326.938 66.4727 326.004 66.9609 324.723 67H323.855V65.0898L324.477 65.043C325.18 64.9648 325.684 64.5586 325.988 63.8242C326.293 63.0898 326.488 61.7305 326.574 59.7461L326.809 54.3203H335.375ZM346.684 67C346.559 66.75 346.457 66.3047 346.379 65.6641C345.371 66.7109 344.168 67.2344 342.77 67.2344C341.52 67.2344 340.492 66.8828 339.688 66.1797C338.891 65.4688 338.492 64.5703 338.492 63.4844C338.492 62.1641 338.992 61.1406 339.992 60.4141C341 59.6797 342.414 59.3125 344.234 59.3125H346.344V58.3164C346.344 57.5586 346.117 56.957 345.664 56.5117C345.211 56.0586 344.543 55.832 343.66 55.832C342.887 55.832 342.238 56.0273 341.715 56.418C341.191 56.8086 340.93 57.2812 340.93 57.8359H338.75C338.75 57.2031 338.973 56.5938 339.418 56.0078C339.871 55.4141 340.48 54.9453 341.246 54.6016C342.02 54.2578 342.867 54.0859 343.789 54.0859C345.25 54.0859 346.395 54.4531 347.223 55.1875C348.051 55.9141 348.48 56.918 348.512 58.1992V64.0352C348.512 65.1992 348.66 66.125 348.957 66.8125V67H346.684ZM343.086 65.3477C343.766 65.3477 344.41 65.1719 345.02 64.8203C345.629 64.4688 346.07 64.0117 346.344 63.4492V60.8477H344.645C341.988 60.8477 340.66 61.625 340.66 63.1797C340.66 63.8594 340.887 64.3906 341.34 64.7734C341.793 65.1562 342.375 65.3477 343.086 65.3477ZM356.996 65.4648C357.77 65.4648 358.445 65.2305 359.023 64.7617C359.602 64.293 359.922 63.707 359.984 63.0039H362.035C361.996 63.7305 361.746 64.4219 361.285 65.0781C360.824 65.7344 360.207 66.2578 359.434 66.6484C358.668 67.0391 357.855 67.2344 356.996 67.2344C355.27 67.2344 353.895 66.6602 352.871 65.5117C351.855 64.3555 351.348 62.7773 351.348 60.7773V60.4141C351.348 59.1797 351.574 58.082 352.027 57.1211C352.48 56.1602 353.129 55.4141 353.973 54.8828C354.824 54.3516 355.828 54.0859 356.984 54.0859C358.406 54.0859 359.586 54.5117 360.523 55.3633C361.469 56.2148 361.973 57.3203 362.035 58.6797H359.984C359.922 57.8594 359.609 57.1875 359.047 56.6641C358.492 56.1328 357.805 55.8672 356.984 55.8672C355.883 55.8672 355.027 56.2656 354.418 57.0625C353.816 57.8516 353.516 58.9961 353.516 60.4961V60.9062C353.516 62.3672 353.816 63.4922 354.418 64.2812C355.02 65.0703 355.879 65.4648 356.996 65.4648ZM366.84 58.6914H370.133C371.57 58.707 372.707 59.082 373.543 59.8164C374.379 60.5508 374.797 61.5469 374.797 62.8047C374.797 64.0703 374.367 65.0859 373.508 65.8516C372.648 66.6172 371.492 67 370.039 67H364.672V54.3203H366.84V58.6914ZM366.84 60.4609V65.2305H370.062C370.875 65.2305 371.504 65.0234 371.949 64.6094C372.395 64.1875 372.617 63.6133 372.617 62.8867C372.617 62.1836 372.398 61.6094 371.961 61.1641C371.531 60.7109 370.926 60.4766 370.145 60.4609H366.84ZM25.8945 88.8008C25.8945 90.7305 25.4531 92.2852 24.5703 93.4648C23.6875 94.6445 22.4922 95.2344 20.9844 95.2344C19.4453 95.2344 18.2344 94.7461 17.3516 93.7695V99.875H15.1836V82.3203H17.1641L17.2695 83.7266C18.1523 82.6328 19.3789 82.0859 20.9492 82.0859C22.4727 82.0859 23.6758 82.6602 24.5586 83.8086C25.4492 84.957 25.8945 86.5547 25.8945 88.6016V88.8008ZM23.7266 88.5547C23.7266 87.125 23.4219 85.9961 22.8125 85.168C22.2031 84.3398 21.3672 83.9258 20.3047 83.9258C18.9922 83.9258 18.0078 84.5078 17.3516 85.6719V91.7305C18 92.8867 18.9922 93.4648 20.3281 93.4648C21.3672 93.4648 22.1914 93.0547 22.8008 92.2344C23.418 91.4062 23.7266 90.1797 23.7266 88.5547ZM36.4883 95C36.3633 94.75 36.2617 94.3047 36.1836 93.6641C35.1758 94.7109 33.9727 95.2344 32.5742 95.2344C31.3242 95.2344 30.2969 94.8828 29.4922 94.1797C28.6953 93.4688 28.2969 92.5703 28.2969 91.4844C28.2969 90.1641 28.7969 89.1406 29.7969 88.4141C30.8047 87.6797 32.2188 87.3125 34.0391 87.3125H36.1484V86.3164C36.1484 85.5586 35.9219 84.957 35.4688 84.5117C35.0156 84.0586 34.3477 83.832 33.4648 83.832C32.6914 83.832 32.043 84.0273 31.5195 84.418C30.9961 84.8086 30.7344 85.2812 30.7344 85.8359H28.5547C28.5547 85.2031 28.7773 84.5938 29.2227 84.0078C29.6758 83.4141 30.2852 82.9453 31.0508 82.6016C31.8242 82.2578 32.6719 82.0859 33.5938 82.0859C35.0547 82.0859 36.1992 82.4531 37.0273 83.1875C37.8555 83.9141 38.2852 84.918 38.3164 86.1992V92.0352C38.3164 93.1992 38.4648 94.125 38.7617 94.8125V95H36.4883ZM32.8906 93.3477C33.5703 93.3477 34.2148 93.1719 34.8242 92.8203C35.4336 92.4688 35.875 92.0117 36.1484 91.4492V88.8477H34.4492C31.793 88.8477 30.4648 89.625 30.4648 91.1797C30.4648 91.8594 30.6914 92.3906 31.1445 92.7734C31.5977 93.1562 32.1797 93.3477 32.8906 93.3477ZM48.6875 85.7891C48.6875 85.1953 48.4609 84.7266 48.0078 84.3828C47.5547 84.0312 46.9336 83.8555 46.1445 83.8555C45.3789 83.8555 44.7383 84.0547 44.2227 84.4531C43.7148 84.8516 43.4609 85.3203 43.4609 85.8594H41.3047C41.3047 84.7578 41.7656 83.8555 42.6875 83.1523C43.6094 82.4492 44.7617 82.0977 46.1445 82.0977C47.6289 82.0977 48.7852 82.418 49.6133 83.0586C50.4414 83.6914 50.8555 84.5977 50.8555 85.7773C50.8555 86.3477 50.6836 86.8711 50.3398 87.3477C49.9961 87.8242 49.5078 88.2031 48.875 88.4844C50.3516 88.9844 51.0898 89.9688 51.0898 91.4375C51.0898 92.6016 50.6406 93.5234 49.7422 94.2031C48.8438 94.8828 47.6445 95.2227 46.1445 95.2227C44.6836 95.2227 43.4766 94.8672 42.5234 94.1562C41.5781 93.4375 41.1055 92.4688 41.1055 91.25H43.2617C43.2617 91.8672 43.5352 92.3984 44.082 92.8438C44.6367 93.2812 45.3242 93.5 46.1445 93.5C46.9727 93.5 47.6406 93.3086 48.1484 92.9258C48.6562 92.543 48.9102 92.0469 48.9102 91.4375C48.9102 90.7266 48.6953 90.2188 48.2656 89.9141C47.8438 89.6016 47.1836 89.4453 46.2852 89.4453H44.1172V87.6172H46.4727C47.9492 87.5781 48.6875 86.9688 48.6875 85.7891ZM64.6133 88.8008C64.6133 90.7305 64.1719 92.2852 63.2891 93.4648C62.4062 94.6445 61.2109 95.2344 59.7031 95.2344C58.1641 95.2344 56.9531 94.7461 56.0703 93.7695V99.875H53.9023V82.3203H55.8828L55.9883 83.7266C56.8711 82.6328 58.0977 82.0859 59.668 82.0859C61.1914 82.0859 62.3945 82.6602 63.2773 83.8086C64.168 84.957 64.6133 86.5547 64.6133 88.6016V88.8008ZM62.4453 88.5547C62.4453 87.125 62.1406 85.9961 61.5312 85.168C60.9219 84.3398 60.0859 83.9258 59.0234 83.9258C57.7109 83.9258 56.7266 84.5078 56.0703 85.6719V91.7305C56.7188 92.8867 57.7109 93.4648 59.0469 93.4648C60.0859 93.4648 60.9102 93.0547 61.5195 92.2344C62.1367 91.4062 62.4453 90.1797 62.4453 88.5547ZM75.207 95C75.082 94.75 74.9805 94.3047 74.9023 93.6641C73.8945 94.7109 72.6914 95.2344 71.293 95.2344C70.043 95.2344 69.0156 94.8828 68.2109 94.1797C67.4141 93.4688 67.0156 92.5703 67.0156 91.4844C67.0156 90.1641 67.5156 89.1406 68.5156 88.4141C69.5234 87.6797 70.9375 87.3125 72.7578 87.3125H74.8672V86.3164C74.8672 85.5586 74.6406 84.957 74.1875 84.5117C73.7344 84.0586 73.0664 83.832 72.1836 83.832C71.4102 83.832 70.7617 84.0273 70.2383 84.418C69.7148 84.8086 69.4531 85.2812 69.4531 85.8359H67.2734C67.2734 85.2031 67.4961 84.5938 67.9414 84.0078C68.3945 83.4141 69.0039 82.9453 69.7695 82.6016C70.543 82.2578 71.3906 82.0859 72.3125 82.0859C73.7734 82.0859 74.918 82.4531 75.7461 83.1875C76.5742 83.9141 77.0039 84.918 77.0352 86.1992V92.0352C77.0352 93.1992 77.1836 94.125 77.4805 94.8125V95H75.207ZM71.6094 93.3477C72.2891 93.3477 72.9336 93.1719 73.543 92.8203C74.1523 92.4688 74.5938 92.0117 74.8672 91.4492V88.8477H73.168C70.5117 88.8477 69.1836 89.625 69.1836 91.1797C69.1836 91.8594 69.4102 92.3906 69.8633 92.7734C70.3164 93.1562 70.8984 93.3477 71.6094 93.3477ZM86 83.0469C87.5938 83.0469 88.8672 83.582 89.8203 84.6523C90.7812 85.7148 91.2617 87.1172 91.2617 88.8594V89.0586C91.2617 90.2539 91.0312 91.3242 90.5703 92.2695C90.1094 93.207 89.4453 93.9375 88.5781 94.4609C87.7188 94.9766 86.7266 95.2344 85.6016 95.2344C83.8984 95.2344 82.5273 94.668 81.4883 93.5352C80.4492 92.3945 79.9297 90.8672 79.9297 88.9531V87.8984C79.9297 85.2344 80.4219 83.1172 81.4062 81.5469C82.3984 79.9766 83.8594 79.0195 85.7891 78.6758C86.8828 78.4805 87.6211 78.2422 88.0039 77.9609C88.3867 77.6797 88.5781 77.293 88.5781 76.8008H90.3594C90.3594 77.7773 90.1367 78.5391 89.6914 79.0859C89.2539 79.6328 88.5508 80.0195 87.582 80.2461L85.9648 80.6094C84.6758 80.9141 83.707 81.4297 83.0586 82.1562C82.418 82.875 82 83.8359 81.8047 85.0391C82.9531 83.7109 84.3516 83.0469 86 83.0469ZM85.5781 84.8281C84.5156 84.8281 83.6719 85.1875 83.0469 85.9062C82.4219 86.6172 82.1094 87.6055 82.1094 88.8711V89.0586C82.1094 90.418 82.4219 91.4961 83.0469 92.293C83.6797 93.082 84.5312 93.4766 85.6016 93.4766C86.6797 93.4766 87.5312 93.0781 88.1562 92.2812C88.7812 91.4844 89.0938 90.3203 89.0938 88.7891C89.0938 87.5938 88.7773 86.6367 88.1445 85.918C87.5195 85.1914 86.6641 84.8281 85.5781 84.8281ZM93.125 88.543C93.125 87.3008 93.3672 86.1836 93.8516 85.1914C94.3438 84.1992 95.0234 83.4336 95.8906 82.8945C96.7656 82.3555 97.7617 82.0859 98.8789 82.0859C100.605 82.0859 102 82.6836 103.062 83.8789C104.133 85.0742 104.668 86.6641 104.668 88.6484V88.8008C104.668 90.0352 104.43 91.1445 103.953 92.1289C103.484 93.1055 102.809 93.8672 101.926 94.4141C101.051 94.9609 100.043 95.2344 98.9023 95.2344C97.1836 95.2344 95.7891 94.6367 94.7188 93.4414C93.6562 92.2461 93.125 90.6641 93.125 88.6953V88.543ZM95.3047 88.8008C95.3047 90.207 95.6289 91.3359 96.2773 92.1875C96.9336 93.0391 97.8086 93.4648 98.9023 93.4648C100.004 93.4648 100.879 93.0352 101.527 92.1758C102.176 91.3086 102.5 90.0977 102.5 88.543C102.5 87.1523 102.168 86.0273 101.504 85.168C100.848 84.3008 99.9727 83.8672 98.8789 83.8672C97.8086 83.8672 96.9453 84.293 96.2891 85.1445C95.6328 85.9961 95.3047 87.2148 95.3047 88.8008ZM116.551 84.0781H112.297V95H110.129V84.0781H105.957V82.3203H116.551V84.0781ZM122.609 89.5977H121.027V95H118.848V82.3203H121.027V87.6875H122.445L126.711 82.3203H129.336L124.32 88.4141L129.758 95H127.004L122.609 89.5977ZM130.789 88.543C130.789 87.3008 131.031 86.1836 131.516 85.1914C132.008 84.1992 132.688 83.4336 133.555 82.8945C134.43 82.3555 135.426 82.0859 136.543 82.0859C138.27 82.0859 139.664 82.6836 140.727 83.8789C141.797 85.0742 142.332 86.6641 142.332 88.6484V88.8008C142.332 90.0352 142.094 91.1445 141.617 92.1289C141.148 93.1055 140.473 93.8672 139.59 94.4141C138.715 94.9609 137.707 95.2344 136.566 95.2344C134.848 95.2344 133.453 94.6367 132.383 93.4414C131.32 92.2461 130.789 90.6641 130.789 88.6953V88.543ZM132.969 88.8008C132.969 90.207 133.293 91.3359 133.941 92.1875C134.598 93.0391 135.473 93.4648 136.566 93.4648C137.668 93.4648 138.543 93.0352 139.191 92.1758C139.84 91.3086 140.164 90.0977 140.164 88.543C140.164 87.1523 139.832 86.0273 139.168 85.168C138.512 84.3008 137.637 83.8672 136.543 83.8672C135.473 83.8672 134.609 84.293 133.953 85.1445C133.297 85.9961 132.969 87.2148 132.969 88.8008ZM153.254 82.3203H155.422V95H153.254V85.7539L147.406 95H145.238V82.3203H147.406V91.5781L153.254 82.3203ZM153.84 77.7031C153.84 78.6484 153.516 79.4102 152.867 79.9883C152.227 80.5586 151.383 80.8438 150.336 80.8438C149.289 80.8438 148.441 80.5547 147.793 79.9766C147.145 79.3984 146.82 78.6406 146.82 77.7031H148.59C148.59 78.25 148.738 78.6797 149.035 78.9922C149.332 79.2969 149.766 79.4492 150.336 79.4492C150.883 79.4492 151.309 79.2969 151.613 78.9922C151.926 78.6875 152.082 78.2578 152.082 77.7031H153.84ZM164.75 93.2305L165.5 92.3047C166.344 91.2109 166.824 89.5703 166.941 87.3828L167.141 82.3203H175.309V93.2305H176.938V98.7266H174.77V95H165.922V98.7266H163.754L163.766 93.2305H164.75ZM167.316 93.2305H173.141V84.3242H169.238L169.109 87.3477C168.977 89.8711 168.379 91.832 167.316 93.2305ZM187.543 82.3203H189.711V95H187.543V85.7539L181.695 95H179.527V82.3203H181.695V91.5781L187.543 82.3203ZM200.164 85.7891C200.164 85.1953 199.938 84.7266 199.484 84.3828C199.031 84.0312 198.41 83.8555 197.621 83.8555C196.855 83.8555 196.215 84.0547 195.699 84.4531C195.191 84.8516 194.938 85.3203 194.938 85.8594H192.781C192.781 84.7578 193.242 83.8555 194.164 83.1523C195.086 82.4492 196.238 82.0977 197.621 82.0977C199.105 82.0977 200.262 82.418 201.09 83.0586C201.918 83.6914 202.332 84.5977 202.332 85.7773C202.332 86.3477 202.16 86.8711 201.816 87.3477C201.473 87.8242 200.984 88.2031 200.352 88.4844C201.828 88.9844 202.566 89.9688 202.566 91.4375C202.566 92.6016 202.117 93.5234 201.219 94.2031C200.32 94.8828 199.121 95.2227 197.621 95.2227C196.16 95.2227 194.953 94.8672 194 94.1562C193.055 93.4375 192.582 92.4688 192.582 91.25H194.738C194.738 91.8672 195.012 92.3984 195.559 92.8438C196.113 93.2812 196.801 93.5 197.621 93.5C198.449 93.5 199.117 93.3086 199.625 92.9258C200.133 92.543 200.387 92.0469 200.387 91.4375C200.387 90.7266 200.172 90.2188 199.742 89.9141C199.32 89.6016 198.66 89.4453 197.762 89.4453H195.594V87.6172H197.949C199.426 87.5781 200.164 86.9688 200.164 85.7891ZM213.207 95C213.082 94.75 212.98 94.3047 212.902 93.6641C211.895 94.7109 210.691 95.2344 209.293 95.2344C208.043 95.2344 207.016 94.8828 206.211 94.1797C205.414 93.4688 205.016 92.5703 205.016 91.4844C205.016 90.1641 205.516 89.1406 206.516 88.4141C207.523 87.6797 208.938 87.3125 210.758 87.3125H212.867V86.3164C212.867 85.5586 212.641 84.957 212.188 84.5117C211.734 84.0586 211.066 83.832 210.184 83.832C209.41 83.832 208.762 84.0273 208.238 84.418C207.715 84.8086 207.453 85.2812 207.453 85.8359H205.273C205.273 85.2031 205.496 84.5938 205.941 84.0078C206.395 83.4141 207.004 82.9453 207.77 82.6016C208.543 82.2578 209.391 82.0859 210.312 82.0859C211.773 82.0859 212.918 82.4531 213.746 83.1875C214.574 83.9141 215.004 84.918 215.035 86.1992V92.0352C215.035 93.1992 215.184 94.125 215.48 94.8125V95H213.207ZM209.609 93.3477C210.289 93.3477 210.934 93.1719 211.543 92.8203C212.152 92.4688 212.594 92.0117 212.867 91.4492V88.8477H211.168C208.512 88.8477 207.184 89.625 207.184 91.1797C207.184 91.8594 207.41 92.3906 207.863 92.7734C208.316 93.1562 208.898 93.3477 209.609 93.3477ZM226.637 82.3203H228.805V95H226.637V85.7539L220.789 95H218.621V82.3203H220.789V91.5781L226.637 82.3203ZM227.223 77.7031C227.223 78.6484 226.898 79.4102 226.25 79.9883C225.609 80.5586 224.766 80.8438 223.719 80.8438C222.672 80.8438 221.824 80.5547 221.176 79.9766C220.527 79.3984 220.203 78.6406 220.203 77.7031H221.973C221.973 78.25 222.121 78.6797 222.418 78.9922C222.715 79.2969 223.148 79.4492 223.719 79.4492C224.266 79.4492 224.691 79.2969 224.996 78.9922C225.309 78.6875 225.465 78.2578 225.465 77.7031H227.223ZM242.645 95H240.477V89.5859H234.652V95H232.473V82.3203H234.652V87.8164H240.477V82.3203H242.645V95ZM253.965 95C253.84 94.75 253.738 94.3047 253.66 93.6641C252.652 94.7109 251.449 95.2344 250.051 95.2344C248.801 95.2344 247.773 94.8828 246.969 94.1797C246.172 93.4688 245.773 92.5703 245.773 91.4844C245.773 90.1641 246.273 89.1406 247.273 88.4141C248.281 87.6797 249.695 87.3125 251.516 87.3125H253.625V86.3164C253.625 85.5586 253.398 84.957 252.945 84.5117C252.492 84.0586 251.824 83.832 250.941 83.832C250.168 83.832 249.52 84.0273 248.996 84.418C248.473 84.8086 248.211 85.2812 248.211 85.8359H246.031C246.031 85.2031 246.254 84.5938 246.699 84.0078C247.152 83.4141 247.762 82.9453 248.527 82.6016C249.301 82.2578 250.148 82.0859 251.07 82.0859C252.531 82.0859 253.676 82.4531 254.504 83.1875C255.332 83.9141 255.762 84.918 255.793 86.1992V92.0352C255.793 93.1992 255.941 94.125 256.238 94.8125V95H253.965ZM250.367 93.3477C251.047 93.3477 251.691 93.1719 252.301 92.8203C252.91 92.4688 253.352 92.0117 253.625 91.4492V88.8477H251.926C249.27 88.8477 247.941 89.625 247.941 91.1797C247.941 91.8594 248.168 92.3906 248.621 92.7734C249.074 93.1562 249.656 93.3477 250.367 93.3477ZM273.348 82.3203H275.516V95H273.348V85.7539L267.5 95H265.332V82.3203H267.5V91.5781L273.348 82.3203ZM292.25 92.1289L296.562 82.3203H299.27V95H297.102V85.7773L293 95H291.5L287.316 85.5781V95H285.148V82.3203H287.961L292.25 92.1289ZM310.59 95C310.465 94.75 310.363 94.3047 310.285 93.6641C309.277 94.7109 308.074 95.2344 306.676 95.2344C305.426 95.2344 304.398 94.8828 303.594 94.1797C302.797 93.4688 302.398 92.5703 302.398 91.4844C302.398 90.1641 302.898 89.1406 303.898 88.4141C304.906 87.6797 306.32 87.3125 308.141 87.3125H310.25V86.3164C310.25 85.5586 310.023 84.957 309.57 84.5117C309.117 84.0586 308.449 83.832 307.566 83.832C306.793 83.832 306.145 84.0273 305.621 84.418C305.098 84.8086 304.836 85.2812 304.836 85.8359H302.656C302.656 85.2031 302.879 84.5938 303.324 84.0078C303.777 83.4141 304.387 82.9453 305.152 82.6016C305.926 82.2578 306.773 82.0859 307.695 82.0859C309.156 82.0859 310.301 82.4531 311.129 83.1875C311.957 83.9141 312.387 84.918 312.418 86.1992V92.0352C312.418 93.1992 312.566 94.125 312.863 94.8125V95H310.59ZM306.992 93.3477C307.672 93.3477 308.316 93.1719 308.926 92.8203C309.535 92.4688 309.977 92.0117 310.25 91.4492V88.8477H308.551C305.895 88.8477 304.566 89.625 304.566 91.1797C304.566 91.8594 304.793 92.3906 305.246 92.7734C305.699 93.1562 306.281 93.3477 306.992 93.3477ZM319.766 89.5977H318.184V95H316.004V82.3203H318.184V87.6875H319.602L323.867 82.3203H326.492L321.477 88.4141L326.914 95H324.16L319.766 89.5977ZM333.852 95.2344C332.133 95.2344 330.734 94.6719 329.656 93.5469C328.578 92.4141 328.039 90.9023 328.039 89.0117V88.6133C328.039 87.3555 328.277 86.2344 328.754 85.25C329.238 84.2578 329.91 83.4844 330.77 82.9297C331.637 82.3672 332.574 82.0859 333.582 82.0859C335.23 82.0859 336.512 82.6289 337.426 83.7148C338.34 84.8008 338.797 86.3555 338.797 88.3789V89.2812H330.207C330.238 90.5312 330.602 91.543 331.297 92.3164C332 93.082 332.891 93.4648 333.969 93.4648C334.734 93.4648 335.383 93.3086 335.914 92.9961C336.445 92.6836 336.91 92.2695 337.309 91.7539L338.633 92.7852C337.57 94.418 335.977 95.2344 333.852 95.2344ZM333.582 83.8672C332.707 83.8672 331.973 84.1875 331.379 84.8281C330.785 85.4609 330.418 86.3516 330.277 87.5H336.629V87.3359C336.566 86.2344 336.27 85.3828 335.738 84.7812C335.207 84.1719 334.488 83.8672 333.582 83.8672ZM350.598 84.0781H346.344V95H344.176V84.0781H340.004V82.3203H350.598V84.0781ZM351.641 88.543C351.641 87.3008 351.883 86.1836 352.367 85.1914C352.859 84.1992 353.539 83.4336 354.406 82.8945C355.281 82.3555 356.277 82.0859 357.395 82.0859C359.121 82.0859 360.516 82.6836 361.578 83.8789C362.648 85.0742 363.184 86.6641 363.184 88.6484V88.8008C363.184 90.0352 362.945 91.1445 362.469 92.1289C362 93.1055 361.324 93.8672 360.441 94.4141C359.566 94.9609 358.559 95.2344 357.418 95.2344C355.699 95.2344 354.305 94.6367 353.234 93.4414C352.172 92.2461 351.641 90.6641 351.641 88.6953V88.543ZM353.82 88.8008C353.82 90.207 354.145 91.3359 354.793 92.1875C355.449 93.0391 356.324 93.4648 357.418 93.4648C358.52 93.4648 359.395 93.0352 360.043 92.1758C360.691 91.3086 361.016 90.0977 361.016 88.543C361.016 87.1523 360.684 86.0273 360.02 85.168C359.363 84.3008 358.488 83.8672 357.395 83.8672C356.324 83.8672 355.461 84.293 354.805 85.1445C354.148 85.9961 353.82 87.2148 353.82 88.8008ZM366.102 95V82.3203H371.047C372.734 82.3203 374.027 82.6172 374.926 83.2109C375.832 83.7969 376.285 84.6602 376.285 85.8008C376.285 86.3867 376.109 86.918 375.758 87.3945C375.406 87.8633 374.887 88.2227 374.199 88.4727C374.965 88.6523 375.578 89.0039 376.039 89.5273C376.508 90.0508 376.742 90.6758 376.742 91.4023C376.742 92.5664 376.312 93.457 375.453 94.0742C374.602 94.6914 373.395 95 371.832 95H366.102ZM368.27 89.4336V93.2539H371.855C372.762 93.2539 373.438 93.0859 373.883 92.75C374.336 92.4141 374.562 91.9414 374.562 91.332C374.562 90.0664 373.633 89.4336 371.773 89.4336H368.27ZM368.27 87.6992H371.07C373.102 87.6992 374.117 87.1055 374.117 85.918C374.117 84.7305 373.156 84.1172 371.234 84.0781H368.27V87.6992ZM385.461 93.2305L386.211 92.3047C387.055 91.2109 387.535 89.5703 387.652 87.3828L387.852 82.3203H396.02V93.2305H397.648V98.7266H395.48V95H386.633V98.7266H384.465L384.477 93.2305H385.461ZM388.027 93.2305H393.852V84.3242H389.949L389.82 87.3477C389.688 89.8711 389.09 91.832 388.027 93.2305ZM410.445 82.3203V95H408.266V84.1133H403.953L403.695 88.8594C403.555 91.0391 403.188 92.5977 402.594 93.5352C402.008 94.4727 401.074 94.9609 399.793 95H398.926V93.0898L399.547 93.043C400.25 92.9648 400.754 92.5586 401.059 91.8242C401.363 91.0898 401.559 89.7305 401.645 87.7461L401.879 82.3203H410.445ZM423.617 82.3203V95H421.438V90.0664H418.168L415.18 95H412.836L416.023 89.7383C415.211 89.4414 414.586 88.9844 414.148 88.3672C413.719 87.7422 413.504 87.0156 413.504 86.1875C413.504 85.0312 413.938 84.1016 414.805 83.3984C415.672 82.6875 416.832 82.3281 418.285 82.3203H423.617ZM415.684 86.2109C415.684 86.8281 415.895 87.3281 416.316 87.7109C416.738 88.0859 417.297 88.2773 417.992 88.2852H421.438V84.0781H418.32C417.516 84.0781 416.875 84.2773 416.398 84.6758C415.922 85.0664 415.684 85.5781 415.684 86.2109ZM138.523 123H136.355V117.586H130.531V123H128.352V110.32H130.531V115.816H136.355V110.32H138.523V123ZM149.844 123C149.719 122.75 149.617 122.305 149.539 121.664C148.531 122.711 147.328 123.234 145.93 123.234C144.68 123.234 143.652 122.883 142.848 122.18C142.051 121.469 141.652 120.57 141.652 119.484C141.652 118.164 142.152 117.141 143.152 116.414C144.16 115.68 145.574 115.312 147.395 115.312H149.504V114.316C149.504 113.559 149.277 112.957 148.824 112.512C148.371 112.059 147.703 111.832 146.82 111.832C146.047 111.832 145.398 112.027 144.875 112.418C144.352 112.809 144.09 113.281 144.09 113.836H141.91C141.91 113.203 142.133 112.594 142.578 112.008C143.031 111.414 143.641 110.945 144.406 110.602C145.18 110.258 146.027 110.086 146.949 110.086C148.41 110.086 149.555 110.453 150.383 111.188C151.211 111.914 151.641 112.918 151.672 114.199V120.035C151.672 121.199 151.82 122.125 152.117 122.812V123H149.844ZM146.246 121.348C146.926 121.348 147.57 121.172 148.18 120.82C148.789 120.469 149.23 120.012 149.504 119.449V116.848H147.805C145.148 116.848 143.82 117.625 143.82 119.18C143.82 119.859 144.047 120.391 144.5 120.773C144.953 121.156 145.535 121.348 146.246 121.348ZM157.438 110.32V121.23H162.078V110.32H164.246V121.23H168.875V110.32H171.055V123H155.258V110.32H157.438ZM179.738 123.234C178.02 123.234 176.621 122.672 175.543 121.547C174.465 120.414 173.926 118.902 173.926 117.012V116.613C173.926 115.355 174.164 114.234 174.641 113.25C175.125 112.258 175.797 111.484 176.656 110.93C177.523 110.367 178.461 110.086 179.469 110.086C181.117 110.086 182.398 110.629 183.312 111.715C184.227 112.801 184.684 114.355 184.684 116.379V117.281H176.094C176.125 118.531 176.488 119.543 177.184 120.316C177.887 121.082 178.777 121.465 179.855 121.465C180.621 121.465 181.27 121.309 181.801 120.996C182.332 120.684 182.797 120.27 183.195 119.754L184.52 120.785C183.457 122.418 181.863 123.234 179.738 123.234ZM179.469 111.867C178.594 111.867 177.859 112.188 177.266 112.828C176.672 113.461 176.305 114.352 176.164 115.5H182.516V115.336C182.453 114.234 182.156 113.383 181.625 112.781C181.094 112.172 180.375 111.867 179.469 111.867ZM195.395 112.113H189.547V123H187.367V110.32H195.395V112.113ZM196.473 116.543C196.473 115.301 196.715 114.184 197.199 113.191C197.691 112.199 198.371 111.434 199.238 110.895C200.113 110.355 201.109 110.086 202.227 110.086C203.953 110.086 205.348 110.684 206.41 111.879C207.48 113.074 208.016 114.664 208.016 116.648V116.801C208.016 118.035 207.777 119.145 207.301 120.129C206.832 121.105 206.156 121.867 205.273 122.414C204.398 122.961 203.391 123.234 202.25 123.234C200.531 123.234 199.137 122.637 198.066 121.441C197.004 120.246 196.473 118.664 196.473 116.695V116.543ZM198.652 116.801C198.652 118.207 198.977 119.336 199.625 120.188C200.281 121.039 201.156 121.465 202.25 121.465C203.352 121.465 204.227 121.035 204.875 120.176C205.523 119.309 205.848 118.098 205.848 116.543C205.848 115.152 205.516 114.027 204.852 113.168C204.195 112.301 203.32 111.867 202.227 111.867C201.156 111.867 200.293 112.293 199.637 113.145C198.98 113.996 198.652 115.215 198.652 116.801ZM227.059 123H224.891V112.113H219.055V123H216.875V110.32H227.059V123ZM241.25 116.801C241.25 118.73 240.809 120.285 239.926 121.465C239.043 122.645 237.848 123.234 236.34 123.234C234.801 123.234 233.59 122.746 232.707 121.77V127.875H230.539V110.32H232.52L232.625 111.727C233.508 110.633 234.734 110.086 236.305 110.086C237.828 110.086 239.031 110.66 239.914 111.809C240.805 112.957 241.25 114.555 241.25 116.602V116.801ZM239.082 116.555C239.082 115.125 238.777 113.996 238.168 113.168C237.559 112.34 236.723 111.926 235.66 111.926C234.348 111.926 233.363 112.508 232.707 113.672V119.73C233.355 120.887 234.348 121.465 235.684 121.465C236.723 121.465 237.547 121.055 238.156 120.234C238.773 119.406 239.082 118.18 239.082 116.555ZM243.441 116.543C243.441 115.301 243.684 114.184 244.168 113.191C244.66 112.199 245.34 111.434 246.207 110.895C247.082 110.355 248.078 110.086 249.195 110.086C250.922 110.086 252.316 110.684 253.379 111.879C254.449 113.074 254.984 114.664 254.984 116.648V116.801C254.984 118.035 254.746 119.145 254.27 120.129C253.801 121.105 253.125 121.867 252.242 122.414C251.367 122.961 250.359 123.234 249.219 123.234C247.5 123.234 246.105 122.637 245.035 121.441C243.973 120.246 243.441 118.664 243.441 116.695V116.543ZM245.621 116.801C245.621 118.207 245.945 119.336 246.594 120.188C247.25 121.039 248.125 121.465 249.219 121.465C250.32 121.465 251.195 121.035 251.844 120.176C252.492 119.309 252.816 118.098 252.816 116.543C252.816 115.152 252.484 114.027 251.82 113.168C251.164 112.301 250.289 111.867 249.195 111.867C248.125 111.867 247.262 112.293 246.605 113.145C245.949 113.996 245.621 115.215 245.621 116.801ZM262.965 123.234C261.246 123.234 259.848 122.672 258.77 121.547C257.691 120.414 257.152 118.902 257.152 117.012V116.613C257.152 115.355 257.391 114.234 257.867 113.25C258.352 112.258 259.023 111.484 259.883 110.93C260.75 110.367 261.688 110.086 262.695 110.086C264.344 110.086 265.625 110.629 266.539 111.715C267.453 112.801 267.91 114.355 267.91 116.379V117.281H259.32C259.352 118.531 259.715 119.543 260.41 120.316C261.113 121.082 262.004 121.465 263.082 121.465C263.848 121.465 264.496 121.309 265.027 120.996C265.559 120.684 266.023 120.27 266.422 119.754L267.746 120.785C266.684 122.418 265.09 123.234 262.965 123.234ZM262.695 111.867C261.82 111.867 261.086 112.188 260.492 112.828C259.898 113.461 259.531 114.352 259.391 115.5H265.742V115.336C265.68 114.234 265.383 113.383 264.852 112.781C264.32 112.172 263.602 111.867 262.695 111.867ZM274.379 117.598H272.797V123H270.617V110.32H272.797V115.688H274.215L278.48 110.32H281.105L276.09 116.414L281.527 123H278.773L274.379 117.598ZM292.812 112.078H288.559V123H286.391V112.078H282.219V110.32H292.812V112.078ZM302.562 123C302.438 122.75 302.336 122.305 302.258 121.664C301.25 122.711 300.047 123.234 298.648 123.234C297.398 123.234 296.371 122.883 295.566 122.18C294.77 121.469 294.371 120.57 294.371 119.484C294.371 118.164 294.871 117.141 295.871 116.414C296.879 115.68 298.293 115.312 300.113 115.312H302.223V114.316C302.223 113.559 301.996 112.957 301.543 112.512C301.09 112.059 300.422 111.832 299.539 111.832C298.766 111.832 298.117 112.027 297.594 112.418C297.07 112.809 296.809 113.281 296.809 113.836H294.629C294.629 113.203 294.852 112.594 295.297 112.008C295.75 111.414 296.359 110.945 297.125 110.602C297.898 110.258 298.746 110.086 299.668 110.086C301.129 110.086 302.273 110.453 303.102 111.188C303.93 111.914 304.359 112.918 304.391 114.199V120.035C304.391 121.199 304.539 122.125 304.836 122.812V123H302.562ZM298.965 121.348C299.645 121.348 300.289 121.172 300.898 120.82C301.508 120.469 301.949 120.012 302.223 119.449V116.848H300.523C297.867 116.848 296.539 117.625 296.539 119.18C296.539 119.859 296.766 120.391 297.219 120.773C297.672 121.156 298.254 121.348 298.965 121.348ZM307.836 121.863C307.836 121.488 307.945 121.176 308.164 120.926C308.391 120.676 308.727 120.551 309.172 120.551C309.617 120.551 309.953 120.676 310.18 120.926C310.414 121.176 310.531 121.488 310.531 121.863C310.531 122.223 310.414 122.523 310.18 122.766C309.953 123.008 309.617 123.129 309.172 123.129C308.727 123.129 308.391 123.008 308.164 122.766C307.945 122.523 307.836 122.223 307.836 121.863Z" fill="white"/>
<defs>
<linearGradient id="paint0_linear" x1="429.634" y1="16.0741" x2="327.691" y2="313.088" gradientUnits="userSpaceOnUse">
<stop stop-color="#635189"/>
<stop offset="0.411458" stop-color="#B174B1"/>
<stop offset="1" stop-color="#FFABBA"/>
</linearGradient>
</defs>
</svg>
