<svg width="489" height="217" viewBox="0 0 489 217" fill="none" xmlns="http://www.w3.org/2000/svg">
<path d="M425.219 129.152L425.308 174.544C446.558 176.096 466.654 164.706 476.239 145.678L488.748 120.843C475.424 134.362 455.586 139.157 437.558 133.217L425.219 129.152Z" fill="#B275B2"/>
<rect width="435" height="217" rx="26" fill="url(#paint0_linear)"/>
<rect x="95.5" y="161.5" width="234.953" height="42.2031" rx="15.5" stroke="white"/>
<path d="M177.186 183.252H175.63V189H173.943V176.203H175.63V181.846H176.949L181.422 176.203H183.523L178.636 182.408L183.883 189H181.818L177.186 183.252ZM184.499 184.157C184.499 183.226 184.68 182.388 185.044 181.644C185.413 180.899 185.922 180.325 186.573 179.921C187.229 179.517 187.976 179.314 188.814 179.314C190.109 179.314 191.155 179.763 191.952 180.659C192.754 181.556 193.156 182.748 193.156 184.236V184.351C193.156 185.276 192.977 186.108 192.62 186.847C192.268 187.579 191.761 188.15 191.099 188.561C190.443 188.971 189.687 189.176 188.832 189.176C187.543 189.176 186.497 188.728 185.694 187.831C184.897 186.935 184.499 185.748 184.499 184.271V184.157ZM186.133 184.351C186.133 185.405 186.377 186.252 186.863 186.891C187.355 187.529 188.011 187.849 188.832 187.849C189.658 187.849 190.314 187.526 190.8 186.882C191.287 186.231 191.53 185.323 191.53 184.157C191.53 183.114 191.281 182.271 190.783 181.626C190.291 180.976 189.634 180.65 188.814 180.65C188.011 180.65 187.364 180.97 186.872 181.608C186.379 182.247 186.133 183.161 186.133 184.351ZM202.964 189H201.338V184.939H196.97V189H195.336V179.49H196.97V183.612H201.338V179.49H202.964V189ZM212.65 180.809H209.46V189H207.834V180.809H204.705V179.49H212.65V180.809ZM219.962 189C219.869 188.812 219.793 188.479 219.734 187.998C218.978 188.783 218.076 189.176 217.027 189.176C216.089 189.176 215.319 188.912 214.715 188.385C214.118 187.852 213.819 187.178 213.819 186.363C213.819 185.373 214.194 184.605 214.944 184.061C215.7 183.51 216.76 183.234 218.126 183.234H219.708V182.487C219.708 181.919 219.538 181.468 219.198 181.134C218.858 180.794 218.357 180.624 217.695 180.624C217.115 180.624 216.628 180.771 216.236 181.063C215.843 181.356 215.647 181.711 215.647 182.127H214.012C214.012 181.652 214.179 181.195 214.513 180.756C214.853 180.311 215.31 179.959 215.884 179.701C216.464 179.443 217.1 179.314 217.792 179.314C218.887 179.314 219.746 179.59 220.367 180.141C220.988 180.686 221.31 181.438 221.334 182.399V186.776C221.334 187.649 221.445 188.344 221.668 188.859V189H219.962ZM217.264 187.761C217.774 187.761 218.257 187.629 218.714 187.365C219.171 187.102 219.502 186.759 219.708 186.337V184.386H218.433C216.441 184.386 215.445 184.969 215.445 186.135C215.445 186.645 215.615 187.043 215.955 187.33C216.294 187.617 216.731 187.761 217.264 187.761ZM226.844 184.948H225.658V189H224.023V179.49H225.658V183.516H226.721L229.92 179.49H231.889L228.127 184.061L232.206 189H230.14L226.844 184.948ZM240.669 180.809H237.479V189H235.853V180.809H232.724V179.49H240.669V180.809ZM244.027 182.769H246.497C247.575 182.78 248.427 183.062 249.054 183.612C249.681 184.163 249.995 184.91 249.995 185.854C249.995 186.803 249.672 187.564 249.028 188.139C248.383 188.713 247.516 189 246.426 189H242.401V179.49H244.027V182.769ZM253.387 189H251.752V179.49H253.387V189ZM244.027 184.096V187.673H246.444C247.053 187.673 247.525 187.518 247.859 187.207C248.193 186.891 248.36 186.46 248.36 185.915C248.36 185.388 248.196 184.957 247.868 184.623C247.545 184.283 247.091 184.107 246.505 184.096H244.027Z" fill="white"/>
<path d="M53.2656 81V74.3555H49.3281L45.8008 81H43.3984L47.3594 73.7344C45.1562 72.8672 44.0547 71.3164 44.0547 69.082C44.0547 67.457 44.5859 66.1953 45.6484 65.2969C46.7188 64.3906 48.2031 63.9375 50.1016 63.9375H55.5273V81H53.2656ZM46.3047 69.082C46.3047 70.1133 46.625 70.9414 47.2656 71.5664C47.9141 72.1914 48.8125 72.5078 49.9609 72.5156H53.2656V65.7891H50.0664C48.8477 65.7891 47.9141 66.0781 47.2656 66.6562C46.625 67.2344 46.3047 68.043 46.3047 69.082ZM70 73.3359H67.9258V81H65.6758V63.9375H67.9258V71.4609H69.6836L75.6484 63.9375H78.4492L71.9336 72.2109L78.9297 81H76.1758L70 73.3359ZM88.5742 68.3203H90.7422V81H88.5742V71.7539L82.7266 81H80.5586V68.3203H82.7266V77.5781L88.5742 68.3203ZM104.934 74.8008C104.934 76.7305 104.492 78.2852 103.609 79.4648C102.727 80.6445 101.531 81.2344 100.023 81.2344C98.4844 81.2344 97.2734 80.7461 96.3906 79.7695V85.875H94.2227V68.3203H96.2031L96.3086 69.7266C97.1914 68.6328 98.418 68.0859 99.9883 68.0859C101.512 68.0859 102.715 68.6602 103.598 69.8086C104.488 70.957 104.934 72.5547 104.934 74.6016V74.8008ZM102.766 74.5547C102.766 73.125 102.461 71.9961 101.852 71.168C101.242 70.3398 100.406 69.9258 99.3438 69.9258C98.0312 69.9258 97.0469 70.5078 96.3906 71.6719V77.7305C97.0391 78.8867 98.0312 79.4648 99.3672 79.4648C100.406 79.4648 101.23 79.0547 101.84 78.2344C102.457 77.4062 102.766 76.1797 102.766 74.5547ZM115.902 68.3203H118.07V81H115.902V71.7539L110.055 81H107.887V68.3203H110.055V77.5781L115.902 68.3203ZM131.945 68.3203V81H129.766V70.1133H125.453L125.195 74.8594C125.055 77.0391 124.688 78.5977 124.094 79.5352C123.508 80.4727 122.574 80.9609 121.293 81H120.426V79.0898L121.047 79.043C121.75 78.9648 122.254 78.5586 122.559 77.8242C122.863 77.0898 123.059 75.7305 123.145 73.7461L123.379 68.3203H131.945ZM145.82 68.3203V81H143.641V70.1133H139.328L139.07 74.8594C138.93 77.0391 138.562 78.5977 137.969 79.5352C137.383 80.4727 136.449 80.9609 135.168 81H134.301V79.0898L134.922 79.043C135.625 78.9648 136.129 78.5586 136.434 77.8242C136.738 77.0898 136.934 75.7305 137.02 73.7461L137.254 68.3203H145.82ZM149.23 84.3984L148 83.5547C148.734 82.5312 149.117 81.4766 149.148 80.3906V78.4336H151.27V80.1328C151.27 80.9219 151.074 81.7109 150.684 82.5C150.301 83.2891 149.816 83.9219 149.23 84.3984ZM166.938 71.7891C166.938 71.1953 166.711 70.7266 166.258 70.3828C165.805 70.0312 165.184 69.8555 164.395 69.8555C163.629 69.8555 162.988 70.0547 162.473 70.4531C161.965 70.8516 161.711 71.3203 161.711 71.8594H159.555C159.555 70.7578 160.016 69.8555 160.938 69.1523C161.859 68.4492 163.012 68.0977 164.395 68.0977C165.879 68.0977 167.035 68.418 167.863 69.0586C168.691 69.6914 169.105 70.5977 169.105 71.7773C169.105 72.3477 168.934 72.8711 168.59 73.3477C168.246 73.8242 167.758 74.2031 167.125 74.4844C168.602 74.9844 169.34 75.9688 169.34 77.4375C169.34 78.6016 168.891 79.5234 167.992 80.2031C167.094 80.8828 165.895 81.2227 164.395 81.2227C162.934 81.2227 161.727 80.8672 160.773 80.1562C159.828 79.4375 159.355 78.4688 159.355 77.25H161.512C161.512 77.8672 161.785 78.3984 162.332 78.8438C162.887 79.2812 163.574 79.5 164.395 79.5C165.223 79.5 165.891 79.3086 166.398 78.9258C166.906 78.543 167.16 78.0469 167.16 77.4375C167.16 76.7266 166.945 76.2188 166.516 75.9141C166.094 75.6016 165.434 75.4453 164.535 75.4453H162.367V73.6172H164.723C166.199 73.5781 166.938 72.9688 166.938 71.7891ZM179.98 81C179.855 80.75 179.754 80.3047 179.676 79.6641C178.668 80.7109 177.465 81.2344 176.066 81.2344C174.816 81.2344 173.789 80.8828 172.984 80.1797C172.188 79.4688 171.789 78.5703 171.789 77.4844C171.789 76.1641 172.289 75.1406 173.289 74.4141C174.297 73.6797 175.711 73.3125 177.531 73.3125H179.641V72.3164C179.641 71.5586 179.414 70.957 178.961 70.5117C178.508 70.0586 177.84 69.832 176.957 69.832C176.184 69.832 175.535 70.0273 175.012 70.418C174.488 70.8086 174.227 71.2812 174.227 71.8359H172.047C172.047 71.2031 172.27 70.5938 172.715 70.0078C173.168 69.4141 173.777 68.9453 174.543 68.6016C175.316 68.2578 176.164 68.0859 177.086 68.0859C178.547 68.0859 179.691 68.4531 180.52 69.1875C181.348 69.9141 181.777 70.918 181.809 72.1992V78.0352C181.809 79.1992 181.957 80.125 182.254 80.8125V81H179.98ZM176.383 79.3477C177.062 79.3477 177.707 79.1719 178.316 78.8203C178.926 78.4688 179.367 78.0117 179.641 77.4492V74.8477H177.941C175.285 74.8477 173.957 75.625 173.957 77.1797C173.957 77.8594 174.184 78.3906 174.637 78.7734C175.09 79.1562 175.672 79.3477 176.383 79.3477ZM195.566 81H193.398V75.5859H187.574V81H185.395V68.3203H187.574V73.8164H193.398V68.3203H195.566V81ZM207.262 68.3203H209.43V81H207.262V71.7539L201.414 81H199.246V68.3203H201.414V77.5781L207.262 68.3203ZM220.211 78.1289L224.523 68.3203H227.23V81H225.062V71.7773L220.961 81H219.461L215.277 71.5781V81H213.109V68.3203H215.922L220.211 78.1289ZM238.551 81C238.426 80.75 238.324 80.3047 238.246 79.6641C237.238 80.7109 236.035 81.2344 234.637 81.2344C233.387 81.2344 232.359 80.8828 231.555 80.1797C230.758 79.4688 230.359 78.5703 230.359 77.4844C230.359 76.1641 230.859 75.1406 231.859 74.4141C232.867 73.6797 234.281 73.3125 236.102 73.3125H238.211V72.3164C238.211 71.5586 237.984 70.957 237.531 70.5117C237.078 70.0586 236.41 69.832 235.527 69.832C234.754 69.832 234.105 70.0273 233.582 70.418C233.059 70.8086 232.797 71.2812 232.797 71.8359H230.617C230.617 71.2031 230.84 70.5938 231.285 70.0078C231.738 69.4141 232.348 68.9453 233.113 68.6016C233.887 68.2578 234.734 68.0859 235.656 68.0859C237.117 68.0859 238.262 68.4531 239.09 69.1875C239.918 69.9141 240.348 70.918 240.379 72.1992V78.0352C240.379 79.1992 240.527 80.125 240.824 80.8125V81H238.551ZM234.953 79.3477C235.633 79.3477 236.277 79.1719 236.887 78.8203C237.496 78.4688 237.938 78.0117 238.211 77.4492V74.8477H236.512C233.855 74.8477 232.527 75.625 232.527 77.1797C232.527 77.8594 232.754 78.3906 233.207 78.7734C233.66 79.1562 234.242 79.3477 234.953 79.3477ZM246.145 73.6992H249.191C249.355 72.0117 249.953 70.6562 250.984 69.6328C252.023 68.6016 253.332 68.0859 254.91 68.0859C256.566 68.0859 257.922 68.6445 258.977 69.7617C260.031 70.8789 260.602 72.332 260.688 74.1211L260.699 74.8008C260.699 76.0352 260.457 77.1484 259.973 78.1406C259.488 79.1328 258.809 79.8984 257.934 80.4375C257.059 80.9688 256.059 81.2344 254.934 81.2344C253.301 81.2344 251.965 80.7031 250.926 79.6406C249.887 78.5703 249.305 77.1836 249.18 75.4805H246.145V81H243.977V68.3203H246.145V73.6992ZM251.324 74.8008C251.324 76.207 251.648 77.3359 252.297 78.1875C252.953 79.0391 253.832 79.4648 254.934 79.4648C256.035 79.4648 256.906 79.0312 257.547 78.1641C258.195 77.2969 258.52 76.0898 258.52 74.543C258.52 73.1602 258.191 72.0352 257.535 71.168C256.879 70.3008 256.004 69.8672 254.91 69.8672C253.832 69.8672 252.965 70.293 252.309 71.1445C251.652 71.9961 251.324 73.2148 251.324 74.8008ZM268.457 79.4648C269.23 79.4648 269.906 79.2305 270.484 78.7617C271.062 78.293 271.383 77.707 271.445 77.0039H273.496C273.457 77.7305 273.207 78.4219 272.746 79.0781C272.285 79.7344 271.668 80.2578 270.895 80.6484C270.129 81.0391 269.316 81.2344 268.457 81.2344C266.73 81.2344 265.355 80.6602 264.332 79.5117C263.316 78.3555 262.809 76.7773 262.809 74.7773V74.4141C262.809 73.1797 263.035 72.082 263.488 71.1211C263.941 70.1602 264.59 69.4141 265.434 68.8828C266.285 68.3516 267.289 68.0859 268.445 68.0859C269.867 68.0859 271.047 68.5117 271.984 69.3633C272.93 70.2148 273.434 71.3203 273.496 72.6797H271.445C271.383 71.8594 271.07 71.1875 270.508 70.6641C269.953 70.1328 269.266 69.8672 268.445 69.8672C267.344 69.8672 266.488 70.2656 265.879 71.0625C265.277 71.8516 264.977 72.9961 264.977 74.4961V74.9062C264.977 76.3672 265.277 77.4922 265.879 78.2812C266.48 79.0703 267.34 79.4648 268.457 79.4648ZM278.301 72.6914H281.594C283.031 72.707 284.168 73.082 285.004 73.8164C285.84 74.5508 286.258 75.5469 286.258 76.8047C286.258 78.0703 285.828 79.0859 284.969 79.8516C284.109 80.6172 282.953 81 281.5 81H276.133V68.3203H278.301V72.6914ZM278.301 74.4609V79.2305H281.523C282.336 79.2305 282.965 79.0234 283.41 78.6094C283.855 78.1875 284.078 77.6133 284.078 76.8867C284.078 76.1836 283.859 75.6094 283.422 75.1641C282.992 74.7109 282.387 74.4766 281.605 74.4609H278.301ZM304.68 76.5469H297.531L295.926 81H293.605L300.121 63.9375H302.09L308.617 81H306.309L304.68 76.5469ZM298.211 74.6953H304.012L301.105 66.7148L298.211 74.6953ZM312.625 68.3203L312.695 69.9141C313.664 68.6953 314.93 68.0859 316.492 68.0859C319.172 68.0859 320.523 69.5977 320.547 72.6211V81H318.379V72.6094C318.371 71.6953 318.16 71.0195 317.746 70.582C317.34 70.1445 316.703 69.9258 315.836 69.9258C315.133 69.9258 314.516 70.1133 313.984 70.4883C313.453 70.8633 313.039 71.3555 312.742 71.9648V81H310.574V68.3203H312.625ZM323.289 74.5547C323.289 72.6094 323.75 71.0469 324.672 69.8672C325.594 68.6797 326.801 68.0859 328.293 68.0859C329.777 68.0859 330.953 68.5938 331.82 69.6094V63H333.988V81H331.996L331.891 79.6406C331.023 80.7031 329.816 81.2344 328.27 81.2344C326.801 81.2344 325.602 80.6328 324.672 79.4297C323.75 78.2266 323.289 76.6562 323.289 74.7188V74.5547ZM325.457 74.8008C325.457 76.2383 325.754 77.3633 326.348 78.1758C326.941 78.9883 327.762 79.3945 328.809 79.3945C330.184 79.3945 331.188 78.7773 331.82 77.543V71.7188C331.172 70.5234 330.176 69.9258 328.832 69.9258C327.77 69.9258 326.941 70.3359 326.348 71.1562C325.754 71.9766 325.457 73.1914 325.457 74.8008ZM343.492 70.2656C343.164 70.2109 342.809 70.1836 342.426 70.1836C341.004 70.1836 340.039 70.7891 339.531 72V81H337.363V68.3203H339.473L339.508 69.7852C340.219 68.6523 341.227 68.0859 342.531 68.0859C342.953 68.0859 343.273 68.1406 343.492 68.25V70.2656ZM344.688 74.543C344.688 73.3008 344.93 72.1836 345.414 71.1914C345.906 70.1992 346.586 69.4336 347.453 68.8945C348.328 68.3555 349.324 68.0859 350.441 68.0859C352.168 68.0859 353.562 68.6836 354.625 69.8789C355.695 71.0742 356.23 72.6641 356.23 74.6484V74.8008C356.23 76.0352 355.992 77.1445 355.516 78.1289C355.047 79.1055 354.371 79.8672 353.488 80.4141C352.613 80.9609 351.605 81.2344 350.465 81.2344C348.746 81.2344 347.352 80.6367 346.281 79.4414C345.219 78.2461 344.688 76.6641 344.688 74.6953V74.543ZM346.867 74.8008C346.867 76.207 347.191 77.3359 347.84 78.1875C348.496 79.0391 349.371 79.4648 350.465 79.4648C351.566 79.4648 352.441 79.0352 353.09 78.1758C353.738 77.3086 354.062 76.0977 354.062 74.543C354.062 73.1523 353.73 72.0273 353.066 71.168C352.41 70.3008 351.535 69.8672 350.441 69.8672C349.371 69.8672 348.508 70.293 347.852 71.1445C347.195 71.9961 346.867 73.2148 346.867 74.8008ZM361.305 81H359.137V68.3203H361.305V81ZM358.961 64.957C358.961 64.6055 359.066 64.3086 359.277 64.0664C359.496 63.8242 359.816 63.7031 360.238 63.7031C360.66 63.7031 360.98 63.8242 361.199 64.0664C361.418 64.3086 361.527 64.6055 361.527 64.957C361.527 65.3086 361.418 65.6016 361.199 65.8359C360.98 66.0703 360.66 66.1875 360.238 66.1875C359.816 66.1875 359.496 66.0703 359.277 65.8359C359.066 65.6016 358.961 65.3086 358.961 64.957ZM364.258 74.5547C364.258 72.6094 364.719 71.0469 365.641 69.8672C366.562 68.6797 367.77 68.0859 369.262 68.0859C370.746 68.0859 371.922 68.5938 372.789 69.6094V63H374.957V81H372.965L372.859 79.6406C371.992 80.7031 370.785 81.2344 369.238 81.2344C367.77 81.2344 366.57 80.6328 365.641 79.4297C364.719 78.2266 364.258 76.6562 364.258 74.7188V74.5547ZM366.426 74.8008C366.426 76.2383 366.723 77.3633 367.316 78.1758C367.91 78.9883 368.73 79.3945 369.777 79.3945C371.152 79.3945 372.156 78.7773 372.789 77.543V71.7188C372.141 70.5234 371.145 69.9258 369.801 69.9258C368.738 69.9258 367.91 70.3359 367.316 71.1562C366.723 71.9766 366.426 73.1914 366.426 74.8008ZM152.992 102.801C152.992 104.73 152.551 106.285 151.668 107.465C150.785 108.645 149.59 109.234 148.082 109.234C146.543 109.234 145.332 108.746 144.449 107.77V113.875H142.281V96.3203H144.262L144.367 97.7266C145.25 96.6328 146.477 96.0859 148.047 96.0859C149.57 96.0859 150.773 96.6602 151.656 97.8086C152.547 98.957 152.992 100.555 152.992 102.602V102.801ZM150.824 102.555C150.824 101.125 150.52 99.9961 149.91 99.168C149.301 98.3398 148.465 97.9258 147.402 97.9258C146.09 97.9258 145.105 98.5078 144.449 99.6719V105.73C145.098 106.887 146.09 107.465 147.426 107.465C148.465 107.465 149.289 107.055 149.898 106.234C150.516 105.406 150.824 104.18 150.824 102.555ZM163.586 109C163.461 108.75 163.359 108.305 163.281 107.664C162.273 108.711 161.07 109.234 159.672 109.234C158.422 109.234 157.395 108.883 156.59 108.18C155.793 107.469 155.395 106.57 155.395 105.484C155.395 104.164 155.895 103.141 156.895 102.414C157.902 101.68 159.316 101.312 161.137 101.312H163.246V100.316C163.246 99.5586 163.02 98.957 162.566 98.5117C162.113 98.0586 161.445 97.832 160.562 97.832C159.789 97.832 159.141 98.0273 158.617 98.418C158.094 98.8086 157.832 99.2812 157.832 99.8359H155.652C155.652 99.2031 155.875 98.5938 156.32 98.0078C156.773 97.4141 157.383 96.9453 158.148 96.6016C158.922 96.2578 159.77 96.0859 160.691 96.0859C162.152 96.0859 163.297 96.4531 164.125 97.1875C164.953 97.9141 165.383 98.918 165.414 100.199V106.035C165.414 107.199 165.562 108.125 165.859 108.812V109H163.586ZM159.988 107.348C160.668 107.348 161.312 107.172 161.922 106.82C162.531 106.469 162.973 106.012 163.246 105.449V102.848H161.547C158.891 102.848 157.562 103.625 157.562 105.18C157.562 105.859 157.789 106.391 158.242 106.773C158.695 107.156 159.277 107.348 159.988 107.348ZM175.785 99.7891C175.785 99.1953 175.559 98.7266 175.105 98.3828C174.652 98.0312 174.031 97.8555 173.242 97.8555C172.477 97.8555 171.836 98.0547 171.32 98.4531C170.812 98.8516 170.559 99.3203 170.559 99.8594H168.402C168.402 98.7578 168.863 97.8555 169.785 97.1523C170.707 96.4492 171.859 96.0977 173.242 96.0977C174.727 96.0977 175.883 96.418 176.711 97.0586C177.539 97.6914 177.953 98.5977 177.953 99.7773C177.953 100.348 177.781 100.871 177.438 101.348C177.094 101.824 176.605 102.203 175.973 102.484C177.449 102.984 178.188 103.969 178.188 105.438C178.188 106.602 177.738 107.523 176.84 108.203C175.941 108.883 174.742 109.223 173.242 109.223C171.781 109.223 170.574 108.867 169.621 108.156C168.676 107.438 168.203 106.469 168.203 105.25H170.359C170.359 105.867 170.633 106.398 171.18 106.844C171.734 107.281 172.422 107.5 173.242 107.5C174.07 107.5 174.738 107.309 175.246 106.926C175.754 106.543 176.008 106.047 176.008 105.438C176.008 104.727 175.793 104.219 175.363 103.914C174.941 103.602 174.281 103.445 173.383 103.445H171.215V101.617H173.57C175.047 101.578 175.785 100.969 175.785 99.7891ZM191.711 102.801C191.711 104.73 191.27 106.285 190.387 107.465C189.504 108.645 188.309 109.234 186.801 109.234C185.262 109.234 184.051 108.746 183.168 107.77V113.875H181V96.3203H182.98L183.086 97.7266C183.969 96.6328 185.195 96.0859 186.766 96.0859C188.289 96.0859 189.492 96.6602 190.375 97.8086C191.266 98.957 191.711 100.555 191.711 102.602V102.801ZM189.543 102.555C189.543 101.125 189.238 99.9961 188.629 99.168C188.02 98.3398 187.184 97.9258 186.121 97.9258C184.809 97.9258 183.824 98.5078 183.168 99.6719V105.73C183.816 106.887 184.809 107.465 186.145 107.465C187.184 107.465 188.008 107.055 188.617 106.234C189.234 105.406 189.543 104.18 189.543 102.555ZM202.305 109C202.18 108.75 202.078 108.305 202 107.664C200.992 108.711 199.789 109.234 198.391 109.234C197.141 109.234 196.113 108.883 195.309 108.18C194.512 107.469 194.113 106.57 194.113 105.484C194.113 104.164 194.613 103.141 195.613 102.414C196.621 101.68 198.035 101.312 199.855 101.312H201.965V100.316C201.965 99.5586 201.738 98.957 201.285 98.5117C200.832 98.0586 200.164 97.832 199.281 97.832C198.508 97.832 197.859 98.0273 197.336 98.418C196.812 98.8086 196.551 99.2812 196.551 99.8359H194.371C194.371 99.2031 194.594 98.5938 195.039 98.0078C195.492 97.4141 196.102 96.9453 196.867 96.6016C197.641 96.2578 198.488 96.0859 199.41 96.0859C200.871 96.0859 202.016 96.4531 202.844 97.1875C203.672 97.9141 204.102 98.918 204.133 100.199V106.035C204.133 107.199 204.281 108.125 204.578 108.812V109H202.305ZM198.707 107.348C199.387 107.348 200.031 107.172 200.641 106.82C201.25 106.469 201.691 106.012 201.965 105.449V102.848H200.266C197.609 102.848 196.281 103.625 196.281 105.18C196.281 105.859 196.508 106.391 196.961 106.773C197.414 107.156 197.996 107.348 198.707 107.348ZM213.098 97.0469C214.691 97.0469 215.965 97.582 216.918 98.6523C217.879 99.7148 218.359 101.117 218.359 102.859V103.059C218.359 104.254 218.129 105.324 217.668 106.27C217.207 107.207 216.543 107.938 215.676 108.461C214.816 108.977 213.824 109.234 212.699 109.234C210.996 109.234 209.625 108.668 208.586 107.535C207.547 106.395 207.027 104.867 207.027 102.953V101.898C207.027 99.2344 207.52 97.1172 208.504 95.5469C209.496 93.9766 210.957 93.0195 212.887 92.6758C213.98 92.4805 214.719 92.2422 215.102 91.9609C215.484 91.6797 215.676 91.293 215.676 90.8008H217.457C217.457 91.7773 217.234 92.5391 216.789 93.0859C216.352 93.6328 215.648 94.0195 214.68 94.2461L213.062 94.6094C211.773 94.9141 210.805 95.4297 210.156 96.1562C209.516 96.875 209.098 97.8359 208.902 99.0391C210.051 97.7109 211.449 97.0469 213.098 97.0469ZM212.676 98.8281C211.613 98.8281 210.77 99.1875 210.145 99.9062C209.52 100.617 209.207 101.605 209.207 102.871V103.059C209.207 104.418 209.52 105.496 210.145 106.293C210.777 107.082 211.629 107.477 212.699 107.477C213.777 107.477 214.629 107.078 215.254 106.281C215.879 105.484 216.191 104.32 216.191 102.789C216.191 101.594 215.875 100.637 215.242 99.918C214.617 99.1914 213.762 98.8281 212.676 98.8281ZM220.223 102.543C220.223 101.301 220.465 100.184 220.949 99.1914C221.441 98.1992 222.121 97.4336 222.988 96.8945C223.863 96.3555 224.859 96.0859 225.977 96.0859C227.703 96.0859 229.098 96.6836 230.16 97.8789C231.23 99.0742 231.766 100.664 231.766 102.648V102.801C231.766 104.035 231.527 105.145 231.051 106.129C230.582 107.105 229.906 107.867 229.023 108.414C228.148 108.961 227.141 109.234 226 109.234C224.281 109.234 222.887 108.637 221.816 107.441C220.754 106.246 220.223 104.664 220.223 102.695V102.543ZM222.402 102.801C222.402 104.207 222.727 105.336 223.375 106.188C224.031 107.039 224.906 107.465 226 107.465C227.102 107.465 227.977 107.035 228.625 106.176C229.273 105.309 229.598 104.098 229.598 102.543C229.598 101.152 229.266 100.027 228.602 99.168C227.945 98.3008 227.07 97.8672 225.977 97.8672C224.906 97.8672 224.043 98.293 223.387 99.1445C222.73 99.9961 222.402 101.215 222.402 102.801ZM243.648 98.0781H239.395V109H237.227V98.0781H233.055V96.3203H243.648V98.0781ZM249.707 103.598H248.125V109H245.945V96.3203H248.125V101.688H249.543L253.809 96.3203H256.434L251.418 102.414L256.855 109H254.102L249.707 103.598ZM257.887 102.543C257.887 101.301 258.129 100.184 258.613 99.1914C259.105 98.1992 259.785 97.4336 260.652 96.8945C261.527 96.3555 262.523 96.0859 263.641 96.0859C265.367 96.0859 266.762 96.6836 267.824 97.8789C268.895 99.0742 269.43 100.664 269.43 102.648V102.801C269.43 104.035 269.191 105.145 268.715 106.129C268.246 107.105 267.57 107.867 266.688 108.414C265.812 108.961 264.805 109.234 263.664 109.234C261.945 109.234 260.551 108.637 259.48 107.441C258.418 106.246 257.887 104.664 257.887 102.695V102.543ZM260.066 102.801C260.066 104.207 260.391 105.336 261.039 106.188C261.695 107.039 262.57 107.465 263.664 107.465C264.766 107.465 265.641 107.035 266.289 106.176C266.938 105.309 267.262 104.098 267.262 102.543C267.262 101.152 266.93 100.027 266.266 99.168C265.609 98.3008 264.734 97.8672 263.641 97.8672C262.57 97.8672 261.707 98.293 261.051 99.1445C260.395 99.9961 260.066 101.215 260.066 102.801ZM280.352 96.3203H282.52V109H280.352V99.7539L274.504 109H272.336V96.3203H274.504V105.578L280.352 96.3203ZM280.938 91.7031C280.938 92.6484 280.613 93.4102 279.965 93.9883C279.324 94.5586 278.48 94.8438 277.434 94.8438C276.387 94.8438 275.539 94.5547 274.891 93.9766C274.242 93.3984 273.918 92.6406 273.918 91.7031H275.688C275.688 92.25 275.836 92.6797 276.133 92.9922C276.43 93.2969 276.863 93.4492 277.434 93.4492C277.98 93.4492 278.406 93.2969 278.711 92.9922C279.023 92.6875 279.18 92.2578 279.18 91.7031H280.938Z" fill="white"/>
<defs>
<linearGradient id="paint0_linear" x1="422.634" y1="16.0741" x2="320.691" y2="313.088" gradientUnits="userSpaceOnUse">
<stop stop-color="#635189"/>
<stop offset="0.411458" stop-color="#B174B1"/>
<stop offset="1" stop-color="#FFABBA"/>
</linearGradient>
</defs>
</svg>
