<svg width="442" height="146" viewBox="0 0 442 146" fill="none" xmlns="http://www.w3.org/2000/svg">
<path d="M406 93L365.5 113.5C373.673 133.176 392.886 146 414.192 146H442C423.932 140.181 410.725 124.622 407.92 105.848L406 93Z" fill="#FFABBB"/>
<rect width="435" height="127" rx="26" transform="matrix(-1 0 0 1 435 0)" fill="url(#paint0_linear)"/>
<rect x="-0.5" y="0.5" width="234.953" height="42.2031" rx="15.5" transform="matrix(-1 0 0 1 339 71)" stroke="white"/>
<path d="M187.187 93.252H185.631V99H183.943V86.2031H185.631V91.8457H186.949L191.423 86.2031H193.523L188.637 92.4082L193.884 99H191.818L187.187 93.252ZM194.499 94.1572C194.499 93.2256 194.681 92.3877 195.044 91.6436C195.413 90.8994 195.923 90.3252 196.573 89.9209C197.23 89.5166 197.977 89.3145 198.815 89.3145C200.109 89.3145 201.155 89.7627 201.952 90.6592C202.755 91.5557 203.156 92.748 203.156 94.2363V94.3506C203.156 95.2764 202.978 96.1084 202.62 96.8467C202.269 97.5791 201.762 98.1504 201.1 98.5605C200.443 98.9707 199.688 99.1758 198.832 99.1758C197.543 99.1758 196.497 98.7275 195.694 97.8311C194.898 96.9346 194.499 95.748 194.499 94.2715V94.1572ZM196.134 94.3506C196.134 95.4053 196.377 96.252 196.863 96.8906C197.356 97.5293 198.012 97.8486 198.832 97.8486C199.658 97.8486 200.315 97.5264 200.801 96.8818C201.287 96.2314 201.53 95.3232 201.53 94.1572C201.53 93.1143 201.281 92.2705 200.783 91.626C200.291 90.9756 199.635 90.6504 198.815 90.6504C198.012 90.6504 197.364 90.9697 196.872 91.6084C196.38 92.2471 196.134 93.1611 196.134 94.3506ZM212.965 99H211.339V94.9395H206.971V99H205.336V89.4902H206.971V93.6123H211.339V89.4902H212.965V99ZM222.65 90.8086H219.46V99H217.834V90.8086H214.705V89.4902H222.65V90.8086ZM229.963 99C229.869 98.8125 229.793 98.4785 229.734 97.998C228.979 98.7832 228.076 99.1758 227.027 99.1758C226.09 99.1758 225.319 98.9121 224.716 98.3848C224.118 97.8516 223.819 97.1777 223.819 96.3633C223.819 95.373 224.194 94.6055 224.944 94.0605C225.7 93.5098 226.761 93.2344 228.126 93.2344H229.708V92.4873C229.708 91.9189 229.538 91.4678 229.198 91.1338C228.858 90.7939 228.357 90.624 227.695 90.624C227.115 90.624 226.629 90.7705 226.236 91.0635C225.844 91.3564 225.648 91.7109 225.648 92.127H224.013C224.013 91.6523 224.18 91.1953 224.514 90.7559C224.854 90.3105 225.311 89.959 225.885 89.7012C226.465 89.4434 227.101 89.3145 227.792 89.3145C228.888 89.3145 229.746 89.5898 230.367 90.1406C230.988 90.6855 231.311 91.4385 231.334 92.3994V96.7764C231.334 97.6494 231.445 98.3438 231.668 98.8594V99H229.963ZM227.265 97.7607C227.774 97.7607 228.258 97.6289 228.715 97.3652C229.172 97.1016 229.503 96.7588 229.708 96.3369V94.3857H228.434C226.441 94.3857 225.445 94.9688 225.445 96.1348C225.445 96.6445 225.615 97.043 225.955 97.3301C226.295 97.6172 226.731 97.7607 227.265 97.7607ZM236.845 94.9482H235.658V99H234.023V89.4902H235.658V93.5156H236.722L239.921 89.4902H241.89L238.128 94.0605L242.206 99H240.141L236.845 94.9482ZM250.67 90.8086H247.48V99H245.854V90.8086H242.725V89.4902H250.67V90.8086ZM254.027 92.7686H256.497C257.575 92.7803 258.428 93.0615 259.055 93.6123C259.682 94.1631 259.995 94.9102 259.995 95.8535C259.995 96.8027 259.673 97.5645 259.028 98.1387C258.384 98.7129 257.517 99 256.427 99H252.401V89.4902H254.027V92.7686ZM263.388 99H261.753V89.4902H263.388V99ZM254.027 94.0957V97.6729H256.444C257.054 97.6729 257.525 97.5176 257.859 97.207C258.193 96.8906 258.36 96.46 258.36 95.915C258.36 95.3877 258.196 94.957 257.868 94.623C257.546 94.2832 257.092 94.1074 256.506 94.0957H254.027Z" fill="white"/>
<path d="M51.8203 44H49.5586V28.7891H41.1445V44H38.8945V26.9375H51.8203V44ZM66.293 37.8008C66.293 39.7305 65.8516 41.2852 64.9688 42.4648C64.0859 43.6445 62.8906 44.2344 61.3828 44.2344C59.8438 44.2344 58.6328 43.7461 57.75 42.7695V48.875H55.582V31.3203H57.5625L57.668 32.7266C58.5508 31.6328 59.7773 31.0859 61.3477 31.0859C62.8711 31.0859 64.0742 31.6602 64.957 32.8086C65.8477 33.957 66.293 35.5547 66.293 37.6016V37.8008ZM64.125 37.5547C64.125 36.125 63.8203 34.9961 63.2109 34.168C62.6016 33.3398 61.7656 32.9258 60.7031 32.9258C59.3906 32.9258 58.4062 33.5078 57.75 34.6719V40.7305C58.3984 41.8867 59.3906 42.4648 60.7266 42.4648C61.7656 42.4648 62.5898 42.0547 63.1992 41.2344C63.8164 40.4062 64.125 39.1797 64.125 37.5547ZM77.2617 31.3203H79.4297V44H77.2617V34.7539L71.4141 44H69.2461V31.3203H71.4141V40.5781L77.2617 31.3203ZM83.1094 44V31.3203H88.0547C89.7422 31.3203 91.0352 31.6172 91.9336 32.2109C92.8398 32.7969 93.293 33.6602 93.293 34.8008C93.293 35.3867 93.1172 35.918 92.7656 36.3945C92.4141 36.8633 91.8945 37.2227 91.207 37.4727C91.9727 37.6523 92.5859 38.0039 93.0469 38.5273C93.5156 39.0508 93.75 39.6758 93.75 40.4023C93.75 41.5664 93.3203 42.457 92.4609 43.0742C91.6094 43.6914 90.4023 44 88.8398 44H83.1094ZM85.2773 38.4336V42.2539H88.8633C89.7695 42.2539 90.4453 42.0859 90.8906 41.75C91.3438 41.4141 91.5703 40.9414 91.5703 40.332C91.5703 39.0664 90.6406 38.4336 88.7812 38.4336H85.2773ZM85.2773 36.6992H88.0781C90.1094 36.6992 91.125 36.1055 91.125 34.918C91.125 33.7305 90.1641 33.1172 88.2422 33.0781H85.2773V36.6992ZM101.883 44.2344C100.164 44.2344 98.7656 43.6719 97.6875 42.5469C96.6094 41.4141 96.0703 39.9023 96.0703 38.0117V37.6133C96.0703 36.3555 96.3086 35.2344 96.7852 34.25C97.2695 33.2578 97.9414 32.4844 98.8008 31.9297C99.668 31.3672 100.605 31.0859 101.613 31.0859C103.262 31.0859 104.543 31.6289 105.457 32.7148C106.371 33.8008 106.828 35.3555 106.828 37.3789V38.2812H98.2383C98.2695 39.5312 98.6328 40.543 99.3281 41.3164C100.031 42.082 100.922 42.4648 102 42.4648C102.766 42.4648 103.414 42.3086 103.945 41.9961C104.477 41.6836 104.941 41.2695 105.34 40.7539L106.664 41.7852C105.602 43.418 104.008 44.2344 101.883 44.2344ZM101.613 32.8672C100.738 32.8672 100.004 33.1875 99.4102 33.8281C98.8164 34.4609 98.4492 35.3516 98.3086 36.5H104.66V36.3359C104.598 35.2344 104.301 34.3828 103.77 33.7812C103.238 33.1719 102.52 32.8672 101.613 32.8672ZM118.629 33.0781H114.375V44H112.207V33.0781H108.035V31.3203H118.629V33.0781ZM120.785 42.8633C120.785 42.4883 120.895 42.1758 121.113 41.9258C121.34 41.6758 121.676 41.5508 122.121 41.5508C122.566 41.5508 122.902 41.6758 123.129 41.9258C123.363 42.1758 123.48 42.4883 123.48 42.8633C123.48 43.2227 123.363 43.5234 123.129 43.7656C122.902 44.0078 122.566 44.1289 122.121 44.1289C121.676 44.1289 121.34 44.0078 121.113 43.7656C120.895 43.5234 120.785 43.2227 120.785 42.8633ZM142.289 44V37.3555H138.352L134.824 44H132.422L136.383 36.7344C134.18 35.8672 133.078 34.3164 133.078 32.082C133.078 30.457 133.609 29.1953 134.672 28.2969C135.742 27.3906 137.227 26.9375 139.125 26.9375H144.551V44H142.289ZM135.328 32.082C135.328 33.1133 135.648 33.9414 136.289 34.5664C136.938 35.1914 137.836 35.5078 138.984 35.5156H142.289V28.7891H139.09C137.871 28.7891 136.938 29.0781 136.289 29.6562C135.648 30.2344 135.328 31.043 135.328 32.082ZM163.676 33.0781H159.422V44H157.254V33.0781H153.082V31.3203H163.676V33.0781ZM170.109 44.2344C168.391 44.2344 166.992 43.6719 165.914 42.5469C164.836 41.4141 164.297 39.9023 164.297 38.0117V37.6133C164.297 36.3555 164.535 35.2344 165.012 34.25C165.496 33.2578 166.168 32.4844 167.027 31.9297C167.895 31.3672 168.832 31.0859 169.84 31.0859C171.488 31.0859 172.77 31.6289 173.684 32.7148C174.598 33.8008 175.055 35.3555 175.055 37.3789V38.2812H166.465C166.496 39.5312 166.859 40.543 167.555 41.3164C168.258 42.082 169.148 42.4648 170.227 42.4648C170.992 42.4648 171.641 42.3086 172.172 41.9961C172.703 41.6836 173.168 41.2695 173.566 40.7539L174.891 41.7852C173.828 43.418 172.234 44.2344 170.109 44.2344ZM169.84 32.8672C168.965 32.8672 168.23 33.1875 167.637 33.8281C167.043 34.4609 166.676 35.3516 166.535 36.5H172.887V36.3359C172.824 35.2344 172.527 34.3828 171.996 33.7812C171.465 33.1719 170.746 32.8672 169.84 32.8672ZM181.828 35.9492L184.641 31.3203H187.172L183.023 37.5898L187.301 44H184.793L181.863 39.2539L178.934 44H176.414L180.691 37.5898L176.543 31.3203H179.051L181.828 35.9492ZM199.84 44H197.672V38.5859H191.848V44H189.668V31.3203H191.848V36.8164H197.672V31.3203H199.84V44ZM211.535 31.3203H213.703V44H211.535V34.7539L205.688 44H203.52V31.3203H205.688V40.5781L211.535 31.3203ZM226.758 44H224.578V39.4062C223.625 39.6562 222.648 39.7812 221.648 39.7812C220.062 39.7812 218.852 39.375 218.016 38.5625C217.188 37.75 216.766 36.5938 216.75 35.0938V31.3086H218.918V35.1641C218.957 37.0547 219.867 38 221.648 38C222.648 38 223.625 37.875 224.578 37.625V31.3203H226.758V44ZM235.5 44.2344C233.781 44.2344 232.383 43.6719 231.305 42.5469C230.227 41.4141 229.688 39.9023 229.688 38.0117V37.6133C229.688 36.3555 229.926 35.2344 230.402 34.25C230.887 33.2578 231.559 32.4844 232.418 31.9297C233.285 31.3672 234.223 31.0859 235.23 31.0859C236.879 31.0859 238.16 31.6289 239.074 32.7148C239.988 33.8008 240.445 35.3555 240.445 37.3789V38.2812H231.855C231.887 39.5312 232.25 40.543 232.945 41.3164C233.648 42.082 234.539 42.4648 235.617 42.4648C236.383 42.4648 237.031 42.3086 237.562 41.9961C238.094 41.6836 238.559 41.2695 238.957 40.7539L240.281 41.7852C239.219 43.418 237.625 44.2344 235.5 44.2344ZM235.23 32.8672C234.355 32.8672 233.621 33.1875 233.027 33.8281C232.434 34.4609 232.066 35.3516 231.926 36.5H238.277V36.3359C238.215 35.2344 237.918 34.3828 237.387 33.7812C236.855 33.1719 236.137 32.8672 235.23 32.8672ZM248.051 42.4648C248.824 42.4648 249.5 42.2305 250.078 41.7617C250.656 41.293 250.977 40.707 251.039 40.0039H253.09C253.051 40.7305 252.801 41.4219 252.34 42.0781C251.879 42.7344 251.262 43.2578 250.488 43.6484C249.723 44.0391 248.91 44.2344 248.051 44.2344C246.324 44.2344 244.949 43.6602 243.926 42.5117C242.91 41.3555 242.402 39.7773 242.402 37.7773V37.4141C242.402 36.1797 242.629 35.082 243.082 34.1211C243.535 33.1602 244.184 32.4141 245.027 31.8828C245.879 31.3516 246.883 31.0859 248.039 31.0859C249.461 31.0859 250.641 31.5117 251.578 32.3633C252.523 33.2148 253.027 34.3203 253.09 35.6797H251.039C250.977 34.8594 250.664 34.1875 250.102 33.6641C249.547 33.1328 248.859 32.8672 248.039 32.8672C246.938 32.8672 246.082 33.2656 245.473 34.0625C244.871 34.8516 244.57 35.9961 244.57 37.4961V37.9062C244.57 39.3672 244.871 40.4922 245.473 41.2812C246.074 42.0703 246.934 42.4648 248.051 42.4648ZM259.477 38.5977H257.895V44H255.715V31.3203H257.895V36.6875H259.312L263.578 31.3203H266.203L261.188 37.4141L266.625 44H263.871L259.477 38.5977ZM276.691 31.3203H278.859V44H276.691V34.7539L270.844 44H268.676V31.3203H270.844V40.5781L276.691 31.3203ZM290.543 31.3203H292.711V44H290.543V34.7539L284.695 44H282.527V31.3203H284.695V40.5781L290.543 31.3203ZM291.129 26.7031C291.129 27.6484 290.805 28.4102 290.156 28.9883C289.516 29.5586 288.672 29.8438 287.625 29.8438C286.578 29.8438 285.73 29.5547 285.082 28.9766C284.434 28.3984 284.109 27.6406 284.109 26.7031H285.879C285.879 27.25 286.027 27.6797 286.324 27.9922C286.621 28.2969 287.055 28.4492 287.625 28.4492C288.172 28.4492 288.598 28.2969 288.902 27.9922C289.215 27.6875 289.371 27.2578 289.371 26.7031H291.129ZM312.516 44H310.348V33.1133H304.512V44H302.332V31.3203H312.516V44ZM324.199 31.3203H326.367V44H324.199V34.7539L318.352 44H316.184V31.3203H318.352V40.5781L324.199 31.3203ZM334.934 42.4648C335.707 42.4648 336.383 42.2305 336.961 41.7617C337.539 41.293 337.859 40.707 337.922 40.0039H339.973C339.934 40.7305 339.684 41.4219 339.223 42.0781C338.762 42.7344 338.145 43.2578 337.371 43.6484C336.605 44.0391 335.793 44.2344 334.934 44.2344C333.207 44.2344 331.832 43.6602 330.809 42.5117C329.793 41.3555 329.285 39.7773 329.285 37.7773V37.4141C329.285 36.1797 329.512 35.082 329.965 34.1211C330.418 33.1602 331.066 32.4141 331.91 31.8828C332.762 31.3516 333.766 31.0859 334.922 31.0859C336.344 31.0859 337.523 31.5117 338.461 32.3633C339.406 33.2148 339.91 34.3203 339.973 35.6797H337.922C337.859 34.8594 337.547 34.1875 336.984 33.6641C336.43 33.1328 335.742 32.8672 334.922 32.8672C333.82 32.8672 332.965 33.2656 332.355 34.0625C331.754 34.8516 331.453 35.9961 331.453 37.4961V37.9062C331.453 39.3672 331.754 40.4922 332.355 41.2812C332.957 42.0703 333.816 42.4648 334.934 42.4648ZM350.238 44C350.113 43.75 350.012 43.3047 349.934 42.6641C348.926 43.7109 347.723 44.2344 346.324 44.2344C345.074 44.2344 344.047 43.8828 343.242 43.1797C342.445 42.4688 342.047 41.5703 342.047 40.4844C342.047 39.1641 342.547 38.1406 343.547 37.4141C344.555 36.6797 345.969 36.3125 347.789 36.3125H349.898V35.3164C349.898 34.5586 349.672 33.957 349.219 33.5117C348.766 33.0586 348.098 32.832 347.215 32.832C346.441 32.832 345.793 33.0273 345.27 33.418C344.746 33.8086 344.484 34.2812 344.484 34.8359H342.305C342.305 34.2031 342.527 33.5938 342.973 33.0078C343.426 32.4141 344.035 31.9453 344.801 31.6016C345.574 31.2578 346.422 31.0859 347.344 31.0859C348.805 31.0859 349.949 31.4531 350.777 32.1875C351.605 32.9141 352.035 33.918 352.066 35.1992V41.0352C352.066 42.1992 352.215 43.125 352.512 43.8125V44H350.238ZM346.641 42.3477C347.32 42.3477 347.965 42.1719 348.574 41.8203C349.184 41.4688 349.625 41.0117 349.898 40.4492V37.8477H348.199C345.543 37.8477 344.215 38.625 344.215 40.1797C344.215 40.8594 344.441 41.3906 344.895 41.7734C345.348 42.1562 345.93 42.3477 346.641 42.3477ZM364.699 33.0781H360.445V44H358.277V33.0781H354.105V31.3203H364.699V33.0781ZM371.133 44.2344C369.414 44.2344 368.016 43.6719 366.938 42.5469C365.859 41.4141 365.32 39.9023 365.32 38.0117V37.6133C365.32 36.3555 365.559 35.2344 366.035 34.25C366.52 33.2578 367.191 32.4844 368.051 31.9297C368.918 31.3672 369.855 31.0859 370.863 31.0859C372.512 31.0859 373.793 31.6289 374.707 32.7148C375.621 33.8008 376.078 35.3555 376.078 37.3789V38.2812H367.488C367.52 39.5312 367.883 40.543 368.578 41.3164C369.281 42.082 370.172 42.4648 371.25 42.4648C372.016 42.4648 372.664 42.3086 373.195 41.9961C373.727 41.6836 374.191 41.2695 374.59 40.7539L375.914 41.7852C374.852 43.418 373.258 44.2344 371.133 44.2344ZM370.863 32.8672C369.988 32.8672 369.254 33.1875 368.66 33.8281C368.066 34.4609 367.699 35.3516 367.559 36.5H373.91V36.3359C373.848 35.2344 373.551 34.3828 373.02 33.7812C372.488 33.1719 371.77 32.8672 370.863 32.8672ZM388.992 31.3203V44H386.812V33.1133H382.5L382.242 37.8594C382.102 40.0391 381.734 41.5977 381.141 42.5352C380.555 43.4727 379.621 43.9609 378.34 44H377.473V42.0898L378.094 42.043C378.797 41.9648 379.301 41.5586 379.605 40.8242C379.91 40.0898 380.105 38.7305 380.191 36.7461L380.426 31.3203H388.992ZM394.84 35.6914H398.133C399.57 35.707 400.707 36.082 401.543 36.8164C402.379 37.5508 402.797 38.5469 402.797 39.8047C402.797 41.0703 402.367 42.0859 401.508 42.8516C400.648 43.6172 399.492 44 398.039 44H392.672V31.3203H394.84V35.6914ZM394.84 37.4609V42.2305H398.062C398.875 42.2305 399.504 42.0234 399.949 41.6094C400.395 41.1875 400.617 40.6133 400.617 39.8867C400.617 39.1836 400.398 38.6094 399.961 38.1641C399.531 37.7109 398.926 37.4766 398.145 37.4609H394.84ZM405.551 42.8633C405.551 42.4883 405.66 42.1758 405.879 41.9258C406.105 41.6758 406.441 41.5508 406.887 41.5508C407.332 41.5508 407.668 41.6758 407.895 41.9258C408.129 42.1758 408.246 42.4883 408.246 42.8633C408.246 43.2227 408.129 43.5234 407.895 43.7656C407.668 44.0078 407.332 44.1289 406.887 44.1289C406.441 44.1289 406.105 44.0078 405.879 43.7656C405.66 43.5234 405.551 43.2227 405.551 42.8633Z" fill="white"/>
<defs>
<linearGradient id="paint0_linear" x1="422.634" y1="9.40741" x2="385.117" y2="196.177" gradientUnits="userSpaceOnUse">
<stop stop-color="#635189"/>
<stop offset="0.411458" stop-color="#B174B1"/>
<stop offset="1" stop-color="#FFABBA"/>
</linearGradient>
</defs>
</svg>
