<svg width="442" height="184" viewBox="0 0 442 184" fill="none" xmlns="http://www.w3.org/2000/svg">
<path d="M36 131L76.5 151.5C68.3267 171.176 49.1142 184 27.8077 184H0C18.0681 178.181 31.2749 162.622 34.0801 143.848L36 131Z" fill="#FFABBB"/>
<rect x="7" width="435" height="165" rx="26" fill="url(#paint0_linear)"/>
<rect x="102.5" y="109.5" width="234.953" height="42.2031" rx="15.5" stroke="white"/>
<path d="M184.186 131.252H182.63V137H180.943V124.203H182.63V129.846H183.949L188.422 124.203H190.523L185.636 130.408L190.883 137H188.818L184.186 131.252ZM191.499 132.157C191.499 131.226 191.68 130.388 192.044 129.644C192.413 128.899 192.922 128.325 193.573 127.921C194.229 127.517 194.976 127.314 195.814 127.314C197.109 127.314 198.155 127.763 198.952 128.659C199.754 129.556 200.156 130.748 200.156 132.236V132.351C200.156 133.276 199.977 134.108 199.62 134.847C199.268 135.579 198.761 136.15 198.099 136.561C197.443 136.971 196.687 137.176 195.832 137.176C194.543 137.176 193.497 136.728 192.694 135.831C191.897 134.935 191.499 133.748 191.499 132.271V132.157ZM193.133 132.351C193.133 133.405 193.377 134.252 193.863 134.891C194.355 135.529 195.011 135.849 195.832 135.849C196.658 135.849 197.314 135.526 197.8 134.882C198.287 134.231 198.53 133.323 198.53 132.157C198.53 131.114 198.281 130.271 197.783 129.626C197.291 128.976 196.634 128.65 195.814 128.65C195.011 128.65 194.364 128.97 193.872 129.608C193.379 130.247 193.133 131.161 193.133 132.351ZM209.964 137H208.338V132.939H203.97V137H202.336V127.49H203.97V131.612H208.338V127.49H209.964V137ZM219.65 128.809H216.46V137H214.834V128.809H211.705V127.49H219.65V128.809ZM226.962 137C226.869 136.812 226.793 136.479 226.734 135.998C225.978 136.783 225.076 137.176 224.027 137.176C223.089 137.176 222.319 136.912 221.715 136.385C221.118 135.852 220.819 135.178 220.819 134.363C220.819 133.373 221.194 132.605 221.944 132.061C222.7 131.51 223.76 131.234 225.126 131.234H226.708V130.487C226.708 129.919 226.538 129.468 226.198 129.134C225.858 128.794 225.357 128.624 224.695 128.624C224.115 128.624 223.628 128.771 223.236 129.063C222.843 129.356 222.647 129.711 222.647 130.127H221.012C221.012 129.652 221.179 129.195 221.513 128.756C221.853 128.311 222.31 127.959 222.884 127.701C223.464 127.443 224.1 127.314 224.792 127.314C225.887 127.314 226.746 127.59 227.367 128.141C227.988 128.686 228.31 129.438 228.334 130.399V134.776C228.334 135.649 228.445 136.344 228.668 136.859V137H226.962ZM224.264 135.761C224.774 135.761 225.257 135.629 225.714 135.365C226.171 135.102 226.502 134.759 226.708 134.337V132.386H225.433C223.441 132.386 222.445 132.969 222.445 134.135C222.445 134.645 222.615 135.043 222.955 135.33C223.294 135.617 223.731 135.761 224.264 135.761ZM233.844 132.948H232.658V137H231.023V127.49H232.658V131.516H233.721L236.92 127.49H238.889L235.127 132.061L239.206 137H237.14L233.844 132.948ZM247.669 128.809H244.479V137H242.853V128.809H239.724V127.49H247.669V128.809ZM251.027 130.769H253.497C254.575 130.78 255.427 131.062 256.054 131.612C256.681 132.163 256.995 132.91 256.995 133.854C256.995 134.803 256.672 135.564 256.028 136.139C255.383 136.713 254.516 137 253.426 137H249.401V127.49H251.027V130.769ZM260.387 137H258.752V127.49H260.387V137ZM251.027 132.096V135.673H253.444C254.053 135.673 254.525 135.518 254.859 135.207C255.193 134.891 255.36 134.46 255.36 133.915C255.36 133.388 255.196 132.957 254.868 132.623C254.545 132.283 254.091 132.107 253.505 132.096H251.027Z" fill="white"/>
<path d="M24.7695 66V59.3555H20.832L17.3047 66H14.9023L18.8633 58.7344C16.6602 57.8672 15.5586 56.3164 15.5586 54.082C15.5586 52.457 16.0898 51.1953 17.1523 50.2969C18.2227 49.3906 19.707 48.9375 21.6055 48.9375H27.0312V66H24.7695ZM17.8086 54.082C17.8086 55.1133 18.1289 55.9414 18.7695 56.5664C19.418 57.1914 20.3164 57.5078 21.4648 57.5156H24.7695V50.7891H21.5703C20.3516 50.7891 19.418 51.0781 18.7695 51.6562C18.1289 52.2344 17.8086 53.043 17.8086 54.082ZM39.3242 59.3203V66H37.0742V48.9375H43.3672C45.2344 48.9375 46.6953 49.4141 47.75 50.3672C48.8125 51.3203 49.3438 52.582 49.3438 54.1523C49.3438 55.8086 48.8242 57.0859 47.7852 57.9844C46.7539 58.875 45.2734 59.3203 43.3438 59.3203H39.3242ZM39.3242 57.4805H43.3672C44.5703 57.4805 45.4922 57.1992 46.1328 56.6367C46.7734 56.0664 47.0938 55.2461 47.0938 54.1758C47.0938 53.1602 46.7734 52.3477 46.1328 51.7383C45.4922 51.1289 44.6133 50.8125 43.4961 50.7891H39.3242V57.4805ZM56.2109 62.8242L59.1641 53.3203H61.4844L56.3867 67.957C55.5977 70.0664 54.3438 71.1211 52.625 71.1211L52.2148 71.0859L51.4062 70.9336V69.1758L51.9922 69.2227C52.7266 69.2227 53.2969 69.0742 53.7031 68.7773C54.1172 68.4805 54.457 67.9375 54.7227 67.1484L55.2031 65.8594L50.6797 53.3203H53.0469L56.2109 62.8242ZM63.6289 66V53.3203H68.5742C70.2617 53.3203 71.5547 53.6172 72.4531 54.2109C73.3594 54.7969 73.8125 55.6602 73.8125 56.8008C73.8125 57.3867 73.6367 57.918 73.2852 58.3945C72.9336 58.8633 72.4141 59.2227 71.7266 59.4727C72.4922 59.6523 73.1055 60.0039 73.5664 60.5273C74.0352 61.0508 74.2695 61.6758 74.2695 62.4023C74.2695 63.5664 73.8398 64.457 72.9805 65.0742C72.1289 65.6914 70.9219 66 69.3594 66H63.6289ZM65.7969 60.4336V64.2539H69.3828C70.2891 64.2539 70.9648 64.0859 71.4102 63.75C71.8633 63.4141 72.0898 62.9414 72.0898 62.332C72.0898 61.0664 71.1602 60.4336 69.3008 60.4336H65.7969ZM65.7969 58.6992H68.5977C70.6289 58.6992 71.6445 58.1055 71.6445 56.918C71.6445 55.7305 70.6836 55.1172 68.7617 55.0781H65.7969V58.6992ZM85.3438 53.3203H87.5117V66H85.3438V56.7539L79.4961 66H77.3281V53.3203H79.4961V62.5781L85.3438 53.3203ZM98.293 63.1289L102.605 53.3203H105.312V66H103.145V56.7773L99.043 66H97.543L93.3594 56.5781V66H91.1914V53.3203H94.0039L98.293 63.1289ZM122.961 53.3203H125.129V66H122.961V56.7539L117.113 66H114.945V53.3203H117.113V62.5781L122.961 53.3203ZM144.254 53.3203V66H142.074V61.0664H138.805L135.816 66H133.473L136.66 60.7383C135.848 60.4414 135.223 59.9844 134.785 59.3672C134.355 58.7422 134.141 58.0156 134.141 57.1875C134.141 56.0312 134.574 55.1016 135.441 54.3984C136.309 53.6875 137.469 53.3281 138.922 53.3203H144.254ZM136.32 57.2109C136.32 57.8281 136.531 58.3281 136.953 58.7109C137.375 59.0859 137.934 59.2773 138.629 59.2852H142.074V55.0781H138.957C138.152 55.0781 137.512 55.2773 137.035 55.6758C136.559 56.0664 136.32 56.5781 136.32 57.2109ZM160.66 56.7891C160.66 56.1953 160.434 55.7266 159.98 55.3828C159.527 55.0312 158.906 54.8555 158.117 54.8555C157.352 54.8555 156.711 55.0547 156.195 55.4531C155.688 55.8516 155.434 56.3203 155.434 56.8594H153.277C153.277 55.7578 153.738 54.8555 154.66 54.1523C155.582 53.4492 156.734 53.0977 158.117 53.0977C159.602 53.0977 160.758 53.418 161.586 54.0586C162.414 54.6914 162.828 55.5977 162.828 56.7773C162.828 57.3477 162.656 57.8711 162.312 58.3477C161.969 58.8242 161.48 59.2031 160.848 59.4844C162.324 59.9844 163.062 60.9688 163.062 62.4375C163.062 63.6016 162.613 64.5234 161.715 65.2031C160.816 65.8828 159.617 66.2227 158.117 66.2227C156.656 66.2227 155.449 65.8672 154.496 65.1562C153.551 64.4375 153.078 63.4688 153.078 62.25H155.234C155.234 62.8672 155.508 63.3984 156.055 63.8438C156.609 64.2812 157.297 64.5 158.117 64.5C158.945 64.5 159.613 64.3086 160.121 63.9258C160.629 63.543 160.883 63.0469 160.883 62.4375C160.883 61.7266 160.668 61.2188 160.238 60.9141C159.816 60.6016 159.156 60.4453 158.258 60.4453H156.09V58.6172H158.445C159.922 58.5781 160.66 57.9688 160.66 56.7891ZM173.703 66C173.578 65.75 173.477 65.3047 173.398 64.6641C172.391 65.7109 171.188 66.2344 169.789 66.2344C168.539 66.2344 167.512 65.8828 166.707 65.1797C165.91 64.4688 165.512 63.5703 165.512 62.4844C165.512 61.1641 166.012 60.1406 167.012 59.4141C168.02 58.6797 169.434 58.3125 171.254 58.3125H173.363V57.3164C173.363 56.5586 173.137 55.957 172.684 55.5117C172.23 55.0586 171.562 54.832 170.68 54.832C169.906 54.832 169.258 55.0273 168.734 55.418C168.211 55.8086 167.949 56.2812 167.949 56.8359H165.77C165.77 56.2031 165.992 55.5938 166.438 55.0078C166.891 54.4141 167.5 53.9453 168.266 53.6016C169.039 53.2578 169.887 53.0859 170.809 53.0859C172.27 53.0859 173.414 53.4531 174.242 54.1875C175.07 54.9141 175.5 55.918 175.531 57.1992V63.0352C175.531 64.1992 175.68 65.125 175.977 65.8125V66H173.703ZM170.105 64.3477C170.785 64.3477 171.43 64.1719 172.039 63.8203C172.648 63.4688 173.09 63.0117 173.363 62.4492V59.8477H171.664C169.008 59.8477 167.68 60.625 167.68 62.1797C167.68 62.8594 167.906 63.3906 168.359 63.7734C168.812 64.1562 169.395 64.3477 170.105 64.3477ZM189.289 66H187.121V60.5859H181.297V66H179.117V53.3203H181.297V58.8164H187.121V53.3203H189.289V66ZM200.984 53.3203H203.152V66H200.984V56.7539L195.137 66H192.969V53.3203H195.137V62.5781L200.984 53.3203ZM213.934 63.1289L218.246 53.3203H220.953V66H218.785V56.7773L214.684 66H213.184L209 56.5781V66H206.832V53.3203H209.645L213.934 63.1289ZM232.273 66C232.148 65.75 232.047 65.3047 231.969 64.6641C230.961 65.7109 229.758 66.2344 228.359 66.2344C227.109 66.2344 226.082 65.8828 225.277 65.1797C224.48 64.4688 224.082 63.5703 224.082 62.4844C224.082 61.1641 224.582 60.1406 225.582 59.4141C226.59 58.6797 228.004 58.3125 229.824 58.3125H231.934V57.3164C231.934 56.5586 231.707 55.957 231.254 55.5117C230.801 55.0586 230.133 54.832 229.25 54.832C228.477 54.832 227.828 55.0273 227.305 55.418C226.781 55.8086 226.52 56.2812 226.52 56.8359H224.34C224.34 56.2031 224.562 55.5938 225.008 55.0078C225.461 54.4141 226.07 53.9453 226.836 53.6016C227.609 53.2578 228.457 53.0859 229.379 53.0859C230.84 53.0859 231.984 53.4531 232.812 54.1875C233.641 54.9141 234.07 55.918 234.102 57.1992V63.0352C234.102 64.1992 234.25 65.125 234.547 65.8125V66H232.273ZM228.676 64.3477C229.355 64.3477 230 64.1719 230.609 63.8203C231.219 63.4688 231.66 63.0117 231.934 62.4492V59.8477H230.234C227.578 59.8477 226.25 60.625 226.25 62.1797C226.25 62.8594 226.477 63.3906 226.93 63.7734C227.383 64.1562 227.965 64.3477 228.676 64.3477ZM247.895 53.3203V66H245.715V55.1133H241.402L241.145 59.8594C241.004 62.0391 240.637 63.5977 240.043 64.5352C239.457 65.4727 238.523 65.9609 237.242 66H236.375V64.0898L236.996 64.043C237.699 63.9648 238.203 63.5586 238.508 62.8242C238.812 62.0898 239.008 60.7305 239.094 58.7461L239.328 53.3203H247.895ZM256.461 64.4648C257.234 64.4648 257.91 64.2305 258.488 63.7617C259.066 63.293 259.387 62.707 259.449 62.0039H261.5C261.461 62.7305 261.211 63.4219 260.75 64.0781C260.289 64.7344 259.672 65.2578 258.898 65.6484C258.133 66.0391 257.32 66.2344 256.461 66.2344C254.734 66.2344 253.359 65.6602 252.336 64.5117C251.32 63.3555 250.812 61.7773 250.812 59.7773V59.4141C250.812 58.1797 251.039 57.082 251.492 56.1211C251.945 55.1602 252.594 54.4141 253.438 53.8828C254.289 53.3516 255.293 53.0859 256.449 53.0859C257.871 53.0859 259.051 53.5117 259.988 54.3633C260.934 55.2148 261.438 56.3203 261.5 57.6797H259.449C259.387 56.8594 259.074 56.1875 258.512 55.6641C257.957 55.1328 257.27 54.8672 256.449 54.8672C255.348 54.8672 254.492 55.2656 253.883 56.0625C253.281 56.8516 252.98 57.9961 252.98 59.4961V59.9062C252.98 61.3672 253.281 62.4922 253.883 63.2812C254.484 64.0703 255.344 64.4648 256.461 64.4648ZM273.629 53.3203V66H271.449V61.0664H268.18L265.191 66H262.848L266.035 60.7383C265.223 60.4414 264.598 59.9844 264.16 59.3672C263.73 58.7422 263.516 58.0156 263.516 57.1875C263.516 56.0312 263.949 55.1016 264.816 54.3984C265.684 53.6875 266.844 53.3281 268.297 53.3203H273.629ZM265.695 57.2109C265.695 57.8281 265.906 58.3281 266.328 58.7109C266.75 59.0859 267.309 59.2773 268.004 59.2852H271.449V55.0781H268.332C267.527 55.0781 266.887 55.2773 266.41 55.6758C265.934 56.0664 265.695 56.5781 265.695 57.2109ZM293.773 59.8008C293.773 61.7305 293.332 63.2852 292.449 64.4648C291.566 65.6445 290.371 66.2344 288.863 66.2344C287.324 66.2344 286.113 65.7461 285.23 64.7695V70.875H283.062V53.3203H285.043L285.148 54.7266C286.031 53.6328 287.258 53.0859 288.828 53.0859C290.352 53.0859 291.555 53.6602 292.438 54.8086C293.328 55.957 293.773 57.5547 293.773 59.6016V59.8008ZM291.605 59.5547C291.605 58.125 291.301 56.9961 290.691 56.168C290.082 55.3398 289.246 54.9258 288.184 54.9258C286.871 54.9258 285.887 55.5078 285.23 56.6719V62.7305C285.879 63.8867 286.871 64.4648 288.207 64.4648C289.246 64.4648 290.07 64.0547 290.68 63.2344C291.297 62.4062 291.605 61.1797 291.605 59.5547ZM304.367 66C304.242 65.75 304.141 65.3047 304.062 64.6641C303.055 65.7109 301.852 66.2344 300.453 66.2344C299.203 66.2344 298.176 65.8828 297.371 65.1797C296.574 64.4688 296.176 63.5703 296.176 62.4844C296.176 61.1641 296.676 60.1406 297.676 59.4141C298.684 58.6797 300.098 58.3125 301.918 58.3125H304.027V57.3164C304.027 56.5586 303.801 55.957 303.348 55.5117C302.895 55.0586 302.227 54.832 301.344 54.832C300.57 54.832 299.922 55.0273 299.398 55.418C298.875 55.8086 298.613 56.2812 298.613 56.8359H296.434C296.434 56.2031 296.656 55.5938 297.102 55.0078C297.555 54.4141 298.164 53.9453 298.93 53.6016C299.703 53.2578 300.551 53.0859 301.473 53.0859C302.934 53.0859 304.078 53.4531 304.906 54.1875C305.734 54.9141 306.164 55.918 306.195 57.1992V63.0352C306.195 64.1992 306.344 65.125 306.641 65.8125V66H304.367ZM300.77 64.3477C301.449 64.3477 302.094 64.1719 302.703 63.8203C303.312 63.4688 303.754 63.0117 304.027 62.4492V59.8477H302.328C299.672 59.8477 298.344 60.625 298.344 62.1797C298.344 62.8594 298.57 63.3906 299.023 63.7734C299.477 64.1562 300.059 64.3477 300.77 64.3477ZM316.566 56.7891C316.566 56.1953 316.34 55.7266 315.887 55.3828C315.434 55.0312 314.812 54.8555 314.023 54.8555C313.258 54.8555 312.617 55.0547 312.102 55.4531C311.594 55.8516 311.34 56.3203 311.34 56.8594H309.184C309.184 55.7578 309.645 54.8555 310.566 54.1523C311.488 53.4492 312.641 53.0977 314.023 53.0977C315.508 53.0977 316.664 53.418 317.492 54.0586C318.32 54.6914 318.734 55.5977 318.734 56.7773C318.734 57.3477 318.562 57.8711 318.219 58.3477C317.875 58.8242 317.387 59.2031 316.754 59.4844C318.23 59.9844 318.969 60.9688 318.969 62.4375C318.969 63.6016 318.52 64.5234 317.621 65.2031C316.723 65.8828 315.523 66.2227 314.023 66.2227C312.562 66.2227 311.355 65.8672 310.402 65.1562C309.457 64.4375 308.984 63.4688 308.984 62.25H311.141C311.141 62.8672 311.414 63.3984 311.961 63.8438C312.516 64.2812 313.203 64.5 314.023 64.5C314.852 64.5 315.52 64.3086 316.027 63.9258C316.535 63.543 316.789 63.0469 316.789 62.4375C316.789 61.7266 316.574 61.2188 316.145 60.9141C315.723 60.6016 315.062 60.4453 314.164 60.4453H311.996V58.6172H314.352C315.828 58.5781 316.566 57.9688 316.566 56.7891ZM332.492 59.8008C332.492 61.7305 332.051 63.2852 331.168 64.4648C330.285 65.6445 329.09 66.2344 327.582 66.2344C326.043 66.2344 324.832 65.7461 323.949 64.7695V70.875H321.781V53.3203H323.762L323.867 54.7266C324.75 53.6328 325.977 53.0859 327.547 53.0859C329.07 53.0859 330.273 53.6602 331.156 54.8086C332.047 55.957 332.492 57.5547 332.492 59.6016V59.8008ZM330.324 59.5547C330.324 58.125 330.02 56.9961 329.41 56.168C328.801 55.3398 327.965 54.9258 326.902 54.9258C325.59 54.9258 324.605 55.5078 323.949 56.6719V62.7305C324.598 63.8867 325.59 64.4648 326.926 64.4648C327.965 64.4648 328.789 64.0547 329.398 63.2344C330.016 62.4062 330.324 61.1797 330.324 59.5547ZM343.086 66C342.961 65.75 342.859 65.3047 342.781 64.6641C341.773 65.7109 340.57 66.2344 339.172 66.2344C337.922 66.2344 336.895 65.8828 336.09 65.1797C335.293 64.4688 334.895 63.5703 334.895 62.4844C334.895 61.1641 335.395 60.1406 336.395 59.4141C337.402 58.6797 338.816 58.3125 340.637 58.3125H342.746V57.3164C342.746 56.5586 342.52 55.957 342.066 55.5117C341.613 55.0586 340.945 54.832 340.062 54.832C339.289 54.832 338.641 55.0273 338.117 55.418C337.594 55.8086 337.332 56.2812 337.332 56.8359H335.152C335.152 56.2031 335.375 55.5938 335.82 55.0078C336.273 54.4141 336.883 53.9453 337.648 53.6016C338.422 53.2578 339.27 53.0859 340.191 53.0859C341.652 53.0859 342.797 53.4531 343.625 54.1875C344.453 54.9141 344.883 55.918 344.914 57.1992V63.0352C344.914 64.1992 345.062 65.125 345.359 65.8125V66H343.086ZM339.488 64.3477C340.168 64.3477 340.812 64.1719 341.422 63.8203C342.031 63.4688 342.473 63.0117 342.746 62.4492V59.8477H341.047C338.391 59.8477 337.062 60.625 337.062 62.1797C337.062 62.8594 337.289 63.3906 337.742 63.7734C338.195 64.1562 338.777 64.3477 339.488 64.3477ZM353.879 54.0469C355.473 54.0469 356.746 54.582 357.699 55.6523C358.66 56.7148 359.141 58.1172 359.141 59.8594V60.0586C359.141 61.2539 358.91 62.3242 358.449 63.2695C357.988 64.207 357.324 64.9375 356.457 65.4609C355.598 65.9766 354.605 66.2344 353.48 66.2344C351.777 66.2344 350.406 65.668 349.367 64.5352C348.328 63.3945 347.809 61.8672 347.809 59.9531V58.8984C347.809 56.2344 348.301 54.1172 349.285 52.5469C350.277 50.9766 351.738 50.0195 353.668 49.6758C354.762 49.4805 355.5 49.2422 355.883 48.9609C356.266 48.6797 356.457 48.293 356.457 47.8008H358.238C358.238 48.7773 358.016 49.5391 357.57 50.0859C357.133 50.6328 356.43 51.0195 355.461 51.2461L353.844 51.6094C352.555 51.9141 351.586 52.4297 350.938 53.1562C350.297 53.875 349.879 54.8359 349.684 56.0391C350.832 54.7109 352.23 54.0469 353.879 54.0469ZM353.457 55.8281C352.395 55.8281 351.551 56.1875 350.926 56.9062C350.301 57.6172 349.988 58.6055 349.988 59.8711V60.0586C349.988 61.418 350.301 62.4961 350.926 63.293C351.559 64.082 352.41 64.4766 353.48 64.4766C354.559 64.4766 355.41 64.0781 356.035 63.2812C356.66 62.4844 356.973 61.3203 356.973 59.7891C356.973 58.5938 356.656 57.6367 356.023 56.918C355.398 56.1914 354.543 55.8281 353.457 55.8281ZM361.004 59.543C361.004 58.3008 361.246 57.1836 361.73 56.1914C362.223 55.1992 362.902 54.4336 363.77 53.8945C364.645 53.3555 365.641 53.0859 366.758 53.0859C368.484 53.0859 369.879 53.6836 370.941 54.8789C372.012 56.0742 372.547 57.6641 372.547 59.6484V59.8008C372.547 61.0352 372.309 62.1445 371.832 63.1289C371.363 64.1055 370.688 64.8672 369.805 65.4141C368.93 65.9609 367.922 66.2344 366.781 66.2344C365.062 66.2344 363.668 65.6367 362.598 64.4414C361.535 63.2461 361.004 61.6641 361.004 59.6953V59.543ZM363.184 59.8008C363.184 61.207 363.508 62.3359 364.156 63.1875C364.812 64.0391 365.688 64.4648 366.781 64.4648C367.883 64.4648 368.758 64.0352 369.406 63.1758C370.055 62.3086 370.379 61.0977 370.379 59.543C370.379 58.1523 370.047 57.0273 369.383 56.168C368.727 55.3008 367.852 54.8672 366.758 54.8672C365.688 54.8672 364.824 55.293 364.168 56.1445C363.512 56.9961 363.184 58.2148 363.184 59.8008ZM384.43 55.0781H380.176V66H378.008V55.0781H373.836V53.3203H384.43V55.0781ZM390.488 60.5977H388.906V66H386.727V53.3203H388.906V58.6875H390.324L394.59 53.3203H397.215L392.199 59.4141L397.637 66H394.883L390.488 60.5977ZM398.668 59.543C398.668 58.3008 398.91 57.1836 399.395 56.1914C399.887 55.1992 400.566 54.4336 401.434 53.8945C402.309 53.3555 403.305 53.0859 404.422 53.0859C406.148 53.0859 407.543 53.6836 408.605 54.8789C409.676 56.0742 410.211 57.6641 410.211 59.6484V59.8008C410.211 61.0352 409.973 62.1445 409.496 63.1289C409.027 64.1055 408.352 64.8672 407.469 65.4141C406.594 65.9609 405.586 66.2344 404.445 66.2344C402.727 66.2344 401.332 65.6367 400.262 64.4414C399.199 63.2461 398.668 61.6641 398.668 59.6953V59.543ZM400.848 59.8008C400.848 61.207 401.172 62.3359 401.82 63.1875C402.477 64.0391 403.352 64.4648 404.445 64.4648C405.547 64.4648 406.422 64.0352 407.07 63.1758C407.719 62.3086 408.043 61.0977 408.043 59.543C408.043 58.1523 407.711 57.0273 407.047 56.168C406.391 55.3008 405.516 54.8672 404.422 54.8672C403.352 54.8672 402.488 55.293 401.832 56.1445C401.176 56.9961 400.848 58.2148 400.848 59.8008ZM421.133 53.3203H423.301V66H421.133V56.7539L415.285 66H413.117V53.3203H415.285V62.5781L421.133 53.3203ZM421.719 48.7031C421.719 49.6484 421.395 50.4102 420.746 50.9883C420.105 51.5586 419.262 51.8438 418.215 51.8438C417.168 51.8438 416.32 51.5547 415.672 50.9766C415.023 50.3984 414.699 49.6406 414.699 48.7031H416.469C416.469 49.25 416.617 49.6797 416.914 49.9922C417.211 50.2969 417.645 50.4492 418.215 50.4492C418.762 50.4492 419.188 50.2969 419.492 49.9922C419.805 49.6875 419.961 49.2578 419.961 48.7031H421.719ZM103.93 94C103.805 93.75 103.703 93.3047 103.625 92.6641C102.617 93.7109 101.414 94.2344 100.016 94.2344C98.7656 94.2344 97.7383 93.8828 96.9336 93.1797C96.1367 92.4688 95.7383 91.5703 95.7383 90.4844C95.7383 89.1641 96.2383 88.1406 97.2383 87.4141C98.2461 86.6797 99.6602 86.3125 101.48 86.3125H103.59V85.3164C103.59 84.5586 103.363 83.957 102.91 83.5117C102.457 83.0586 101.789 82.832 100.906 82.832C100.133 82.832 99.4844 83.0273 98.9609 83.418C98.4375 83.8086 98.1758 84.2812 98.1758 84.8359H95.9961C95.9961 84.2031 96.2188 83.5938 96.6641 83.0078C97.1172 82.4141 97.7266 81.9453 98.4922 81.6016C99.2656 81.2578 100.113 81.0859 101.035 81.0859C102.496 81.0859 103.641 81.4531 104.469 82.1875C105.297 82.9141 105.727 83.918 105.758 85.1992V91.0352C105.758 92.1992 105.906 93.125 106.203 93.8125V94H103.93ZM100.332 92.3477C101.012 92.3477 101.656 92.1719 102.266 91.8203C102.875 91.4688 103.316 91.0117 103.59 90.4492V87.8477H101.891C99.2344 87.8477 97.9062 88.625 97.9062 90.1797C97.9062 90.8594 98.1328 91.3906 98.5859 91.7734C99.0391 92.1562 99.6211 92.3477 100.332 92.3477ZM119.516 94H117.348V88.5859H111.523V94H109.344V81.3203H111.523V86.8164H117.348V81.3203H119.516V94ZM122.902 92.2305L123.652 91.3047C124.496 90.2109 124.977 88.5703 125.094 86.3828L125.293 81.3203H133.461V92.2305H135.09V97.7266H132.922V94H124.074V97.7266H121.906L121.918 92.2305H122.902ZM125.469 92.2305H131.293V83.3242H127.391L127.262 86.3477C127.129 88.8711 126.531 90.832 125.469 92.2305ZM148.203 87.8008C148.203 89.7305 147.762 91.2852 146.879 92.4648C145.996 93.6445 144.801 94.2344 143.293 94.2344C141.754 94.2344 140.543 93.7461 139.66 92.7695V98.875H137.492V81.3203H139.473L139.578 82.7266C140.461 81.6328 141.688 81.0859 143.258 81.0859C144.781 81.0859 145.984 81.6602 146.867 82.8086C147.758 83.957 148.203 85.5547 148.203 87.6016V87.8008ZM146.035 87.5547C146.035 86.125 145.73 84.9961 145.121 84.168C144.512 83.3398 143.676 82.9258 142.613 82.9258C141.301 82.9258 140.316 83.5078 139.66 84.6719V90.7305C140.309 91.8867 141.301 92.4648 142.637 92.4648C143.676 92.4648 144.5 92.0547 145.109 91.2344C145.727 90.4062 146.035 89.1797 146.035 87.5547ZM150.395 87.543C150.395 86.3008 150.637 85.1836 151.121 84.1914C151.613 83.1992 152.293 82.4336 153.16 81.8945C154.035 81.3555 155.031 81.0859 156.148 81.0859C157.875 81.0859 159.27 81.6836 160.332 82.8789C161.402 84.0742 161.938 85.6641 161.938 87.6484V87.8008C161.938 89.0352 161.699 90.1445 161.223 91.1289C160.754 92.1055 160.078 92.8672 159.195 93.4141C158.32 93.9609 157.312 94.2344 156.172 94.2344C154.453 94.2344 153.059 93.6367 151.988 92.4414C150.926 91.2461 150.395 89.6641 150.395 87.6953V87.543ZM152.574 87.8008C152.574 89.207 152.898 90.3359 153.547 91.1875C154.203 92.0391 155.078 92.4648 156.172 92.4648C157.273 92.4648 158.148 92.0352 158.797 91.1758C159.445 90.3086 159.77 89.0977 159.77 87.543C159.77 86.1523 159.438 85.0273 158.773 84.168C158.117 83.3008 157.242 82.8672 156.148 82.8672C155.078 82.8672 154.215 83.293 153.559 84.1445C152.902 84.9961 152.574 86.2148 152.574 87.8008ZM172.859 81.3203H175.027V94H172.859V84.7539L167.012 94H164.844V81.3203H167.012V90.5781L172.859 81.3203ZM178.402 92.2305L179.152 91.3047C179.996 90.2109 180.477 88.5703 180.594 86.3828L180.793 81.3203H188.961V92.2305H190.59V97.7266H188.422V94H179.574V97.7266H177.406L177.418 92.2305H178.402ZM180.969 92.2305H186.793V83.3242H182.891L182.762 86.3477C182.629 88.8711 182.031 90.832 180.969 92.2305ZM197.504 87.6367H191.785V85.8672H197.504V87.6367ZM209.996 94H207.828V83.1133H201.992V94H199.812V81.3203H209.996V94ZM224.188 87.8008C224.188 89.7305 223.746 91.2852 222.863 92.4648C221.98 93.6445 220.785 94.2344 219.277 94.2344C217.738 94.2344 216.527 93.7461 215.645 92.7695V98.875H213.477V81.3203H215.457L215.562 82.7266C216.445 81.6328 217.672 81.0859 219.242 81.0859C220.766 81.0859 221.969 81.6602 222.852 82.8086C223.742 83.957 224.188 85.5547 224.188 87.6016V87.8008ZM222.02 87.5547C222.02 86.125 221.715 84.9961 221.105 84.168C220.496 83.3398 219.66 82.9258 218.598 82.9258C217.285 82.9258 216.301 83.5078 215.645 84.6719V90.7305C216.293 91.8867 217.285 92.4648 218.621 92.4648C219.66 92.4648 220.484 92.0547 221.094 91.2344C221.711 90.4062 222.02 89.1797 222.02 87.5547ZM235.156 81.3203H237.324V94H235.156V84.7539L229.309 94H227.141V81.3203H229.309V90.5781L235.156 81.3203ZM251.199 81.3203V94H249.02V83.1133H244.707L244.449 87.8594C244.309 90.0391 243.941 91.5977 243.348 92.5352C242.762 93.4727 241.828 93.9609 240.547 94H239.68V92.0898L240.301 92.043C241.004 91.9648 241.508 91.5586 241.812 90.8242C242.117 90.0898 242.312 88.7305 242.398 86.7461L242.633 81.3203H251.199ZM254.105 87.543C254.105 86.3008 254.348 85.1836 254.832 84.1914C255.324 83.1992 256.004 82.4336 256.871 81.8945C257.746 81.3555 258.742 81.0859 259.859 81.0859C261.586 81.0859 262.98 81.6836 264.043 82.8789C265.113 84.0742 265.648 85.6641 265.648 87.6484V87.8008C265.648 89.0352 265.41 90.1445 264.934 91.1289C264.465 92.1055 263.789 92.8672 262.906 93.4141C262.031 93.9609 261.023 94.2344 259.883 94.2344C258.164 94.2344 256.77 93.6367 255.699 92.4414C254.637 91.2461 254.105 89.6641 254.105 87.6953V87.543ZM256.285 87.8008C256.285 89.207 256.609 90.3359 257.258 91.1875C257.914 92.0391 258.789 92.4648 259.883 92.4648C260.984 92.4648 261.859 92.0352 262.508 91.1758C263.156 90.3086 263.48 89.0977 263.48 87.543C263.48 86.1523 263.148 85.0273 262.484 84.168C261.828 83.3008 260.953 82.8672 259.859 82.8672C258.789 82.8672 257.926 83.293 257.27 84.1445C256.613 84.9961 256.285 86.2148 256.285 87.8008ZM278.223 88.4922H276.699V94H274.531V88.4922H273.008L269.457 94H266.715L271.25 87.4375L267.148 81.3203H269.773L273.043 86.5703H274.531V81.3203H276.699V86.5703H278.176L281.469 81.3203H284.094L279.98 87.4492L284.516 94H281.773L278.223 88.4922ZM291.512 94.2344C289.793 94.2344 288.395 93.6719 287.316 92.5469C286.238 91.4141 285.699 89.9023 285.699 88.0117V87.6133C285.699 86.3555 285.938 85.2344 286.414 84.25C286.898 83.2578 287.57 82.4844 288.43 81.9297C289.297 81.3672 290.234 81.0859 291.242 81.0859C292.891 81.0859 294.172 81.6289 295.086 82.7148C296 83.8008 296.457 85.3555 296.457 87.3789V88.2812H287.867C287.898 89.5312 288.262 90.543 288.957 91.3164C289.66 92.082 290.551 92.4648 291.629 92.4648C292.395 92.4648 293.043 92.3086 293.574 91.9961C294.105 91.6836 294.57 91.2695 294.969 90.7539L296.293 91.7852C295.23 93.418 293.637 94.2344 291.512 94.2344ZM291.242 82.8672C290.367 82.8672 289.633 83.1875 289.039 83.8281C288.445 84.4609 288.078 85.3516 287.938 86.5H294.289V86.3359C294.227 85.2344 293.93 84.3828 293.398 83.7812C292.867 83.1719 292.148 82.8672 291.242 82.8672ZM309.336 94H307.168V88.5859H301.344V94H299.164V81.3203H301.344V86.8164H307.168V81.3203H309.336V94ZM321.031 81.3203H323.199V94H321.031V84.7539L315.184 94H313.016V81.3203H315.184V90.5781L321.031 81.3203ZM336.371 81.3203V94H334.191V89.0664H330.922L327.934 94H325.59L328.777 88.7383C327.965 88.4414 327.34 87.9844 326.902 87.3672C326.473 86.7422 326.258 86.0156 326.258 85.1875C326.258 84.0312 326.691 83.1016 327.559 82.3984C328.426 81.6875 329.586 81.3281 331.039 81.3203H336.371ZM328.438 85.2109C328.438 85.8281 328.648 86.3281 329.07 86.7109C329.492 87.0859 330.051 87.2773 330.746 87.2852H334.191V83.0781H331.074C330.27 83.0781 329.629 83.2773 329.152 83.6758C328.676 84.0664 328.438 84.5781 328.438 85.2109ZM339.898 92.8633C339.898 92.4883 340.008 92.1758 340.227 91.9258C340.453 91.6758 340.789 91.5508 341.234 91.5508C341.68 91.5508 342.016 91.6758 342.242 91.9258C342.477 92.1758 342.594 92.4883 342.594 92.8633C342.594 93.2227 342.477 93.5234 342.242 93.7656C342.016 94.0078 341.68 94.1289 341.234 94.1289C340.789 94.1289 340.453 94.0078 340.227 93.7656C340.008 93.5234 339.898 93.2227 339.898 92.8633Z" fill="white"/>
<defs>
<linearGradient id="paint0_linear" x1="429.634" y1="12.2222" x2="367.952" y2="248.57" gradientUnits="userSpaceOnUse">
<stop stop-color="#635189"/>
<stop offset="0.411458" stop-color="#B174B1"/>
<stop offset="1" stop-color="#FFABBA"/>
</linearGradient>
</defs>
</svg>
