<svg width="442" height="184" viewBox="0 0 442 184" fill="none" xmlns="http://www.w3.org/2000/svg">
<path d="M36 131L76.5 151.5C68.3267 171.176 49.1142 184 27.8077 184H0C18.0681 178.181 31.2749 162.622 34.0801 143.848L36 131Z" fill="#FFABBB"/>
<rect x="7" width="435" height="165" rx="26" fill="url(#paint0_linear)"/>
<rect x="102.5" y="109.5" width="234.953" height="42.2031" rx="15.5" stroke="white"/>
<path d="M184.186 131.252H182.63V137H180.943V124.203H182.63V129.846H183.949L188.422 124.203H190.523L185.636 130.408L190.883 137H188.818L184.186 131.252ZM191.499 132.157C191.499 131.226 191.68 130.388 192.044 129.644C192.413 128.899 192.922 128.325 193.573 127.921C194.229 127.517 194.976 127.314 195.814 127.314C197.109 127.314 198.155 127.763 198.952 128.659C199.754 129.556 200.156 130.748 200.156 132.236V132.351C200.156 133.276 199.977 134.108 199.62 134.847C199.268 135.579 198.761 136.15 198.099 136.561C197.443 136.971 196.687 137.176 195.832 137.176C194.543 137.176 193.497 136.728 192.694 135.831C191.897 134.935 191.499 133.748 191.499 132.271V132.157ZM193.133 132.351C193.133 133.405 193.377 134.252 193.863 134.891C194.355 135.529 195.011 135.849 195.832 135.849C196.658 135.849 197.314 135.526 197.8 134.882C198.287 134.231 198.53 133.323 198.53 132.157C198.53 131.114 198.281 130.271 197.783 129.626C197.291 128.976 196.634 128.65 195.814 128.65C195.011 128.65 194.364 128.97 193.872 129.608C193.379 130.247 193.133 131.161 193.133 132.351ZM209.964 137H208.338V132.939H203.97V137H202.336V127.49H203.97V131.612H208.338V127.49H209.964V137ZM219.65 128.809H216.46V137H214.834V128.809H211.705V127.49H219.65V128.809ZM226.962 137C226.869 136.812 226.793 136.479 226.734 135.998C225.978 136.783 225.076 137.176 224.027 137.176C223.089 137.176 222.319 136.912 221.715 136.385C221.118 135.852 220.819 135.178 220.819 134.363C220.819 133.373 221.194 132.605 221.944 132.061C222.7 131.51 223.76 131.234 225.126 131.234H226.708V130.487C226.708 129.919 226.538 129.468 226.198 129.134C225.858 128.794 225.357 128.624 224.695 128.624C224.115 128.624 223.628 128.771 223.236 129.063C222.843 129.356 222.647 129.711 222.647 130.127H221.012C221.012 129.652 221.179 129.195 221.513 128.756C221.853 128.311 222.31 127.959 222.884 127.701C223.464 127.443 224.1 127.314 224.792 127.314C225.887 127.314 226.746 127.59 227.367 128.141C227.988 128.686 228.31 129.438 228.334 130.399V134.776C228.334 135.649 228.445 136.344 228.668 136.859V137H226.962ZM224.264 135.761C224.774 135.761 225.257 135.629 225.714 135.365C226.171 135.102 226.502 134.759 226.708 134.337V132.386H225.433C223.441 132.386 222.445 132.969 222.445 134.135C222.445 134.645 222.615 135.043 222.955 135.33C223.294 135.617 223.731 135.761 224.264 135.761ZM233.844 132.948H232.658V137H231.023V127.49H232.658V131.516H233.721L236.92 127.49H238.889L235.127 132.061L239.206 137H237.14L233.844 132.948ZM247.669 128.809H244.479V137H242.853V128.809H239.724V127.49H247.669V128.809ZM251.027 130.769H253.497C254.575 130.78 255.427 131.062 256.054 131.612C256.681 132.163 256.995 132.91 256.995 133.854C256.995 134.803 256.672 135.564 256.028 136.139C255.383 136.713 254.516 137 253.426 137H249.401V127.49H251.027V130.769ZM260.387 137H258.752V127.49H260.387V137ZM251.027 132.096V135.673H253.444C254.053 135.673 254.525 135.518 254.859 135.207C255.193 134.891 255.36 134.46 255.36 133.915C255.36 133.388 255.196 132.957 254.868 132.623C254.545 132.283 254.091 132.107 253.505 132.096H251.027Z" fill="white"/>
<path d="M73.543 66V59.3555H69.6055L66.0781 66H63.6758L67.6367 58.7344C65.4336 57.8672 64.332 56.3164 64.332 54.082C64.332 52.457 64.8633 51.1953 65.9258 50.2969C66.9961 49.3906 68.4805 48.9375 70.3789 48.9375H75.8047V66H73.543ZM66.582 54.082C66.582 55.1133 66.9023 55.9414 67.543 56.5664C68.1914 57.1914 69.0898 57.5078 70.2383 57.5156H73.543V50.7891H70.3438C69.125 50.7891 68.1914 51.0781 67.543 51.6562C66.9023 52.2344 66.582 53.043 66.582 54.082ZM104.422 58.0195C104.422 59.6914 104.141 61.1523 103.578 62.4023C103.016 63.6445 102.219 64.5938 101.188 65.25C100.156 65.9062 98.9531 66.2344 97.5781 66.2344C96.2812 66.2344 95.1172 65.9219 94.0859 65.2969C93.0625 64.6719 92.2578 63.7773 91.6719 62.6133C91.0938 61.4492 90.7734 60.0898 90.7109 58.5352H88.2617V66H86.0117V48.9375H88.2617V56.7656H90.6992C90.7227 55.1562 91.0156 53.7461 91.5781 52.5352C92.1406 51.3164 92.9414 50.375 93.9805 49.7109C95.0195 49.0391 96.2109 48.7031 97.5547 48.7031C98.9219 48.7031 100.125 49.0352 101.164 49.6992C102.211 50.3555 103.016 51.3125 103.578 52.5703C104.141 53.8203 104.422 55.2773 104.422 56.9414V58.0195ZM102.184 56.918C102.184 54.8945 101.777 53.3438 100.965 52.2656C100.152 51.1797 99.0156 50.6367 97.5547 50.6367C96.1328 50.6367 95.0117 51.1797 94.1914 52.2656C93.3789 53.3438 92.9609 54.8438 92.9375 56.7656V58.0195C92.9375 59.9805 93.3477 61.5234 94.168 62.6484C94.9961 63.7656 96.1328 64.3242 97.5781 64.3242C99.0312 64.3242 100.156 63.7969 100.953 62.7422C101.75 61.6797 102.16 60.1602 102.184 58.1836V56.918ZM117.688 59.8008C117.688 61.7305 117.246 63.2852 116.363 64.4648C115.48 65.6445 114.285 66.2344 112.777 66.2344C111.238 66.2344 110.027 65.7461 109.145 64.7695V70.875H106.977V53.3203H108.957L109.062 54.7266C109.945 53.6328 111.172 53.0859 112.742 53.0859C114.266 53.0859 115.469 53.6602 116.352 54.8086C117.242 55.957 117.688 57.5547 117.688 59.6016V59.8008ZM115.52 59.5547C115.52 58.125 115.215 56.9961 114.605 56.168C113.996 55.3398 113.16 54.9258 112.098 54.9258C110.785 54.9258 109.801 55.5078 109.145 56.6719V62.7305C109.793 63.8867 110.785 64.4648 112.121 64.4648C113.16 64.4648 113.984 64.0547 114.594 63.2344C115.211 62.4062 115.52 61.1797 115.52 59.5547ZM128.281 66C128.156 65.75 128.055 65.3047 127.977 64.6641C126.969 65.7109 125.766 66.2344 124.367 66.2344C123.117 66.2344 122.09 65.8828 121.285 65.1797C120.488 64.4688 120.09 63.5703 120.09 62.4844C120.09 61.1641 120.59 60.1406 121.59 59.4141C122.598 58.6797 124.012 58.3125 125.832 58.3125H127.941V57.3164C127.941 56.5586 127.715 55.957 127.262 55.5117C126.809 55.0586 126.141 54.832 125.258 54.832C124.484 54.832 123.836 55.0273 123.312 55.418C122.789 55.8086 122.527 56.2812 122.527 56.8359H120.348C120.348 56.2031 120.57 55.5938 121.016 55.0078C121.469 54.4141 122.078 53.9453 122.844 53.6016C123.617 53.2578 124.465 53.0859 125.387 53.0859C126.848 53.0859 127.992 53.4531 128.82 54.1875C129.648 54.9141 130.078 55.918 130.109 57.1992V63.0352C130.109 64.1992 130.258 65.125 130.555 65.8125V66H128.281ZM124.684 64.3477C125.363 64.3477 126.008 64.1719 126.617 63.8203C127.227 63.4688 127.668 63.0117 127.941 62.4492V59.8477H126.242C123.586 59.8477 122.258 60.625 122.258 62.1797C122.258 62.8594 122.484 63.3906 122.938 63.7734C123.391 64.1562 123.973 64.3477 124.684 64.3477ZM133.438 69.3984L132.207 68.5547C132.941 67.5312 133.324 66.4766 133.355 65.3906V63.4336H135.477V65.1328C135.477 65.9219 135.281 66.7109 134.891 67.5C134.508 68.2891 134.023 68.9219 133.438 69.3984ZM151.145 56.7891C151.145 56.1953 150.918 55.7266 150.465 55.3828C150.012 55.0312 149.391 54.8555 148.602 54.8555C147.836 54.8555 147.195 55.0547 146.68 55.4531C146.172 55.8516 145.918 56.3203 145.918 56.8594H143.762C143.762 55.7578 144.223 54.8555 145.145 54.1523C146.066 53.4492 147.219 53.0977 148.602 53.0977C150.086 53.0977 151.242 53.418 152.07 54.0586C152.898 54.6914 153.312 55.5977 153.312 56.7773C153.312 57.3477 153.141 57.8711 152.797 58.3477C152.453 58.8242 151.965 59.2031 151.332 59.4844C152.809 59.9844 153.547 60.9688 153.547 62.4375C153.547 63.6016 153.098 64.5234 152.199 65.2031C151.301 65.8828 150.102 66.2227 148.602 66.2227C147.141 66.2227 145.934 65.8672 144.98 65.1562C144.035 64.4375 143.562 63.4688 143.562 62.25H145.719C145.719 62.8672 145.992 63.3984 146.539 63.8438C147.094 64.2812 147.781 64.5 148.602 64.5C149.43 64.5 150.098 64.3086 150.605 63.9258C151.113 63.543 151.367 63.0469 151.367 62.4375C151.367 61.7266 151.152 61.2188 150.723 60.9141C150.301 60.6016 149.641 60.4453 148.742 60.4453H146.574V58.6172H148.93C150.406 58.5781 151.145 57.9688 151.145 56.7891ZM164.188 66C164.062 65.75 163.961 65.3047 163.883 64.6641C162.875 65.7109 161.672 66.2344 160.273 66.2344C159.023 66.2344 157.996 65.8828 157.191 65.1797C156.395 64.4688 155.996 63.5703 155.996 62.4844C155.996 61.1641 156.496 60.1406 157.496 59.4141C158.504 58.6797 159.918 58.3125 161.738 58.3125H163.848V57.3164C163.848 56.5586 163.621 55.957 163.168 55.5117C162.715 55.0586 162.047 54.832 161.164 54.832C160.391 54.832 159.742 55.0273 159.219 55.418C158.695 55.8086 158.434 56.2812 158.434 56.8359H156.254C156.254 56.2031 156.477 55.5938 156.922 55.0078C157.375 54.4141 157.984 53.9453 158.75 53.6016C159.523 53.2578 160.371 53.0859 161.293 53.0859C162.754 53.0859 163.898 53.4531 164.727 54.1875C165.555 54.9141 165.984 55.918 166.016 57.1992V63.0352C166.016 64.1992 166.164 65.125 166.461 65.8125V66H164.188ZM160.59 64.3477C161.27 64.3477 161.914 64.1719 162.523 63.8203C163.133 63.4688 163.574 63.0117 163.848 62.4492V59.8477H162.148C159.492 59.8477 158.164 60.625 158.164 62.1797C158.164 62.8594 158.391 63.3906 158.844 63.7734C159.297 64.1562 159.879 64.3477 160.59 64.3477ZM179.773 66H177.605V60.5859H171.781V66H169.602V53.3203H171.781V58.8164H177.605V53.3203H179.773V66ZM191.469 53.3203H193.637V66H191.469V56.7539L185.621 66H183.453V53.3203H185.621V62.5781L191.469 53.3203ZM204.418 63.1289L208.73 53.3203H211.438V66H209.27V56.7773L205.168 66H203.668L199.484 56.5781V66H197.316V53.3203H200.129L204.418 63.1289ZM222.758 66C222.633 65.75 222.531 65.3047 222.453 64.6641C221.445 65.7109 220.242 66.2344 218.844 66.2344C217.594 66.2344 216.566 65.8828 215.762 65.1797C214.965 64.4688 214.566 63.5703 214.566 62.4844C214.566 61.1641 215.066 60.1406 216.066 59.4141C217.074 58.6797 218.488 58.3125 220.309 58.3125H222.418V57.3164C222.418 56.5586 222.191 55.957 221.738 55.5117C221.285 55.0586 220.617 54.832 219.734 54.832C218.961 54.832 218.312 55.0273 217.789 55.418C217.266 55.8086 217.004 56.2812 217.004 56.8359H214.824C214.824 56.2031 215.047 55.5938 215.492 55.0078C215.945 54.4141 216.555 53.9453 217.32 53.6016C218.094 53.2578 218.941 53.0859 219.863 53.0859C221.324 53.0859 222.469 53.4531 223.297 54.1875C224.125 54.9141 224.555 55.918 224.586 57.1992V63.0352C224.586 64.1992 224.734 65.125 225.031 65.8125V66H222.758ZM219.16 64.3477C219.84 64.3477 220.484 64.1719 221.094 63.8203C221.703 63.4688 222.145 63.0117 222.418 62.4492V59.8477H220.719C218.062 59.8477 216.734 60.625 216.734 62.1797C216.734 62.8594 216.961 63.3906 217.414 63.7734C217.867 64.1562 218.449 64.3477 219.16 64.3477ZM230.352 58.6992H233.398C233.562 57.0117 234.16 55.6562 235.191 54.6328C236.23 53.6016 237.539 53.0859 239.117 53.0859C240.773 53.0859 242.129 53.6445 243.184 54.7617C244.238 55.8789 244.809 57.332 244.895 59.1211L244.906 59.8008C244.906 61.0352 244.664 62.1484 244.18 63.1406C243.695 64.1328 243.016 64.8984 242.141 65.4375C241.266 65.9688 240.266 66.2344 239.141 66.2344C237.508 66.2344 236.172 65.7031 235.133 64.6406C234.094 63.5703 233.512 62.1836 233.387 60.4805H230.352V66H228.184V53.3203H230.352V58.6992ZM235.531 59.8008C235.531 61.207 235.855 62.3359 236.504 63.1875C237.16 64.0391 238.039 64.4648 239.141 64.4648C240.242 64.4648 241.113 64.0312 241.754 63.1641C242.402 62.2969 242.727 61.0898 242.727 59.543C242.727 58.1602 242.398 57.0352 241.742 56.168C241.086 55.3008 240.211 54.8672 239.117 54.8672C238.039 54.8672 237.172 55.293 236.516 56.1445C235.859 56.9961 235.531 58.2148 235.531 59.8008ZM252.664 64.4648C253.438 64.4648 254.113 64.2305 254.691 63.7617C255.27 63.293 255.59 62.707 255.652 62.0039H257.703C257.664 62.7305 257.414 63.4219 256.953 64.0781C256.492 64.7344 255.875 65.2578 255.102 65.6484C254.336 66.0391 253.523 66.2344 252.664 66.2344C250.938 66.2344 249.562 65.6602 248.539 64.5117C247.523 63.3555 247.016 61.7773 247.016 59.7773V59.4141C247.016 58.1797 247.242 57.082 247.695 56.1211C248.148 55.1602 248.797 54.4141 249.641 53.8828C250.492 53.3516 251.496 53.0859 252.652 53.0859C254.074 53.0859 255.254 53.5117 256.191 54.3633C257.137 55.2148 257.641 56.3203 257.703 57.6797H255.652C255.59 56.8594 255.277 56.1875 254.715 55.6641C254.16 55.1328 253.473 54.8672 252.652 54.8672C251.551 54.8672 250.695 55.2656 250.086 56.0625C249.484 56.8516 249.184 57.9961 249.184 59.4961V59.9062C249.184 61.3672 249.484 62.4922 250.086 63.2812C250.688 64.0703 251.547 64.4648 252.664 64.4648ZM262.508 57.6914H265.801C267.238 57.707 268.375 58.082 269.211 58.8164C270.047 59.5508 270.465 60.5469 270.465 61.8047C270.465 63.0703 270.035 64.0859 269.176 64.8516C268.316 65.6172 267.16 66 265.707 66H260.34V53.3203H262.508V57.6914ZM262.508 59.4609V64.2305H265.73C266.543 64.2305 267.172 64.0234 267.617 63.6094C268.062 63.1875 268.285 62.6133 268.285 61.8867C268.285 61.1836 268.066 60.6094 267.629 60.1641C267.199 59.7109 266.594 59.4766 265.812 59.4609H262.508ZM279.465 66V48.9375H285.043C286.895 48.9375 288.285 49.3203 289.215 50.0859C290.152 50.8516 290.621 51.9844 290.621 53.4844C290.621 54.2812 290.395 54.9883 289.941 55.6055C289.488 56.2148 288.871 56.6875 288.09 57.0234C289.012 57.2812 289.738 57.7734 290.27 58.5C290.809 59.2188 291.078 60.0781 291.078 61.0781C291.078 62.6094 290.582 63.8125 289.59 64.6875C288.598 65.5625 287.195 66 285.383 66H279.465ZM281.715 58.0195V64.1602H285.43C286.477 64.1602 287.301 63.8906 287.902 63.3516C288.512 62.8047 288.816 62.0547 288.816 61.1016C288.816 59.0469 287.699 58.0195 285.465 58.0195H281.715ZM281.715 56.2148H285.113C286.098 56.2148 286.883 55.9688 287.469 55.4766C288.062 54.9844 288.359 54.3164 288.359 53.4727C288.359 52.5352 288.086 51.8555 287.539 51.4336C286.992 51.0039 286.16 50.7891 285.043 50.7891H281.715V56.2148ZM301.906 66C301.781 65.75 301.68 65.3047 301.602 64.6641C300.594 65.7109 299.391 66.2344 297.992 66.2344C296.742 66.2344 295.715 65.8828 294.91 65.1797C294.113 64.4688 293.715 63.5703 293.715 62.4844C293.715 61.1641 294.215 60.1406 295.215 59.4141C296.223 58.6797 297.637 58.3125 299.457 58.3125H301.566V57.3164C301.566 56.5586 301.34 55.957 300.887 55.5117C300.434 55.0586 299.766 54.832 298.883 54.832C298.109 54.832 297.461 55.0273 296.938 55.418C296.414 55.8086 296.152 56.2812 296.152 56.8359H293.973C293.973 56.2031 294.195 55.5938 294.641 55.0078C295.094 54.4141 295.703 53.9453 296.469 53.6016C297.242 53.2578 298.09 53.0859 299.012 53.0859C300.473 53.0859 301.617 53.4531 302.445 54.1875C303.273 54.9141 303.703 55.918 303.734 57.1992V63.0352C303.734 64.1992 303.883 65.125 304.18 65.8125V66H301.906ZM298.309 64.3477C298.988 64.3477 299.633 64.1719 300.242 63.8203C300.852 63.4688 301.293 63.0117 301.566 62.4492V59.8477H299.867C297.211 59.8477 295.883 60.625 295.883 62.1797C295.883 62.8594 296.109 63.3906 296.562 63.7734C297.016 64.1562 297.598 64.3477 298.309 64.3477ZM312.219 64.4648C312.992 64.4648 313.668 64.2305 314.246 63.7617C314.824 63.293 315.145 62.707 315.207 62.0039H317.258C317.219 62.7305 316.969 63.4219 316.508 64.0781C316.047 64.7344 315.43 65.2578 314.656 65.6484C313.891 66.0391 313.078 66.2344 312.219 66.2344C310.492 66.2344 309.117 65.6602 308.094 64.5117C307.078 63.3555 306.57 61.7773 306.57 59.7773V59.4141C306.57 58.1797 306.797 57.082 307.25 56.1211C307.703 55.1602 308.352 54.4141 309.195 53.8828C310.047 53.3516 311.051 53.0859 312.207 53.0859C313.629 53.0859 314.809 53.5117 315.746 54.3633C316.691 55.2148 317.195 56.3203 317.258 57.6797H315.207C315.145 56.8594 314.832 56.1875 314.27 55.6641C313.715 55.1328 313.027 54.8672 312.207 54.8672C311.105 54.8672 310.25 55.2656 309.641 56.0625C309.039 56.8516 308.738 57.9961 308.738 59.4961V59.9062C308.738 61.3672 309.039 62.4922 309.641 63.2812C310.242 64.0703 311.102 64.4648 312.219 64.4648ZM323.234 60.1289L321.875 61.5469V66H319.707V48H321.875V58.8867L323.035 57.4922L326.984 53.3203H329.621L324.688 58.6172L330.195 66H327.652L323.234 60.1289ZM336.371 59.6367H330.652V57.8672H336.371V59.6367ZM343.754 66.2344C342.035 66.2344 340.637 65.6719 339.559 64.5469C338.48 63.4141 337.941 61.9023 337.941 60.0117V59.6133C337.941 58.3555 338.18 57.2344 338.656 56.25C339.141 55.2578 339.812 54.4844 340.672 53.9297C341.539 53.3672 342.477 53.0859 343.484 53.0859C345.133 53.0859 346.414 53.6289 347.328 54.7148C348.242 55.8008 348.699 57.3555 348.699 59.3789V60.2812H340.109C340.141 61.5312 340.504 62.543 341.199 63.3164C341.902 64.082 342.793 64.4648 343.871 64.4648C344.637 64.4648 345.285 64.3086 345.816 63.9961C346.348 63.6836 346.812 63.2695 347.211 62.7539L348.535 63.7852C347.473 65.418 345.879 66.2344 343.754 66.2344ZM343.484 54.8672C342.609 54.8672 341.875 55.1875 341.281 55.8281C340.688 56.4609 340.32 57.3516 340.18 58.5H346.531V58.3359C346.469 57.2344 346.172 56.3828 345.641 55.7812C345.109 55.1719 344.391 54.8672 343.484 54.8672ZM353.27 53.3203L353.34 54.9141C354.309 53.6953 355.574 53.0859 357.137 53.0859C359.816 53.0859 361.168 54.5977 361.191 57.6211V66H359.023V57.6094C359.016 56.6953 358.805 56.0195 358.391 55.582C357.984 55.1445 357.348 54.9258 356.48 54.9258C355.777 54.9258 355.16 55.1133 354.629 55.4883C354.098 55.8633 353.684 56.3555 353.387 56.9648V66H351.219V53.3203H353.27ZM363.934 59.5547C363.934 57.6094 364.395 56.0469 365.316 54.8672C366.238 53.6797 367.445 53.0859 368.938 53.0859C370.422 53.0859 371.598 53.5938 372.465 54.6094V48H374.633V66H372.641L372.535 64.6406C371.668 65.7031 370.461 66.2344 368.914 66.2344C367.445 66.2344 366.246 65.6328 365.316 64.4297C364.395 63.2266 363.934 61.6562 363.934 59.7188V59.5547ZM366.102 59.8008C366.102 61.2383 366.398 62.3633 366.992 63.1758C367.586 63.9883 368.406 64.3945 369.453 64.3945C370.828 64.3945 371.832 63.7773 372.465 62.543V56.7188C371.816 55.5234 370.82 54.9258 369.477 54.9258C368.414 54.9258 367.586 55.3359 366.992 56.1562C366.398 56.9766 366.102 58.1914 366.102 59.8008ZM159.992 87.8008C159.992 89.7305 159.551 91.2852 158.668 92.4648C157.785 93.6445 156.59 94.2344 155.082 94.2344C153.543 94.2344 152.332 93.7461 151.449 92.7695V98.875H149.281V81.3203H151.262L151.367 82.7266C152.25 81.6328 153.477 81.0859 155.047 81.0859C156.57 81.0859 157.773 81.6602 158.656 82.8086C159.547 83.957 159.992 85.5547 159.992 87.6016V87.8008ZM157.824 87.5547C157.824 86.125 157.52 84.9961 156.91 84.168C156.301 83.3398 155.465 82.9258 154.402 82.9258C153.09 82.9258 152.105 83.5078 151.449 84.6719V90.7305C152.098 91.8867 153.09 92.4648 154.426 92.4648C155.465 92.4648 156.289 92.0547 156.898 91.2344C157.516 90.4062 157.824 89.1797 157.824 87.5547ZM170.586 94C170.461 93.75 170.359 93.3047 170.281 92.6641C169.273 93.7109 168.07 94.2344 166.672 94.2344C165.422 94.2344 164.395 93.8828 163.59 93.1797C162.793 92.4688 162.395 91.5703 162.395 90.4844C162.395 89.1641 162.895 88.1406 163.895 87.4141C164.902 86.6797 166.316 86.3125 168.137 86.3125H170.246V85.3164C170.246 84.5586 170.02 83.957 169.566 83.5117C169.113 83.0586 168.445 82.832 167.562 82.832C166.789 82.832 166.141 83.0273 165.617 83.418C165.094 83.8086 164.832 84.2812 164.832 84.8359H162.652C162.652 84.2031 162.875 83.5938 163.32 83.0078C163.773 82.4141 164.383 81.9453 165.148 81.6016C165.922 81.2578 166.77 81.0859 167.691 81.0859C169.152 81.0859 170.297 81.4531 171.125 82.1875C171.953 82.9141 172.383 83.918 172.414 85.1992V91.0352C172.414 92.1992 172.562 93.125 172.859 93.8125V94H170.586ZM166.988 92.3477C167.668 92.3477 168.312 92.1719 168.922 91.8203C169.531 91.4688 169.973 91.0117 170.246 90.4492V87.8477H168.547C165.891 87.8477 164.562 88.625 164.562 90.1797C164.562 90.8594 164.789 91.3906 165.242 91.7734C165.695 92.1562 166.277 92.3477 166.988 92.3477ZM182.785 84.7891C182.785 84.1953 182.559 83.7266 182.105 83.3828C181.652 83.0312 181.031 82.8555 180.242 82.8555C179.477 82.8555 178.836 83.0547 178.32 83.4531C177.812 83.8516 177.559 84.3203 177.559 84.8594H175.402C175.402 83.7578 175.863 82.8555 176.785 82.1523C177.707 81.4492 178.859 81.0977 180.242 81.0977C181.727 81.0977 182.883 81.418 183.711 82.0586C184.539 82.6914 184.953 83.5977 184.953 84.7773C184.953 85.3477 184.781 85.8711 184.438 86.3477C184.094 86.8242 183.605 87.2031 182.973 87.4844C184.449 87.9844 185.188 88.9688 185.188 90.4375C185.188 91.6016 184.738 92.5234 183.84 93.2031C182.941 93.8828 181.742 94.2227 180.242 94.2227C178.781 94.2227 177.574 93.8672 176.621 93.1562C175.676 92.4375 175.203 91.4688 175.203 90.25H177.359C177.359 90.8672 177.633 91.3984 178.18 91.8438C178.734 92.2812 179.422 92.5 180.242 92.5C181.07 92.5 181.738 92.3086 182.246 91.9258C182.754 91.543 183.008 91.0469 183.008 90.4375C183.008 89.7266 182.793 89.2188 182.363 88.9141C181.941 88.6016 181.281 88.4453 180.383 88.4453H178.215V86.6172H180.57C182.047 86.5781 182.785 85.9688 182.785 84.7891ZM198.711 87.8008C198.711 89.7305 198.27 91.2852 197.387 92.4648C196.504 93.6445 195.309 94.2344 193.801 94.2344C192.262 94.2344 191.051 93.7461 190.168 92.7695V98.875H188V81.3203H189.98L190.086 82.7266C190.969 81.6328 192.195 81.0859 193.766 81.0859C195.289 81.0859 196.492 81.6602 197.375 82.8086C198.266 83.957 198.711 85.5547 198.711 87.6016V87.8008ZM196.543 87.5547C196.543 86.125 196.238 84.9961 195.629 84.168C195.02 83.3398 194.184 82.9258 193.121 82.9258C191.809 82.9258 190.824 83.5078 190.168 84.6719V90.7305C190.816 91.8867 191.809 92.4648 193.145 92.4648C194.184 92.4648 195.008 92.0547 195.617 91.2344C196.234 90.4062 196.543 89.1797 196.543 87.5547ZM209.305 94C209.18 93.75 209.078 93.3047 209 92.6641C207.992 93.7109 206.789 94.2344 205.391 94.2344C204.141 94.2344 203.113 93.8828 202.309 93.1797C201.512 92.4688 201.113 91.5703 201.113 90.4844C201.113 89.1641 201.613 88.1406 202.613 87.4141C203.621 86.6797 205.035 86.3125 206.855 86.3125H208.965V85.3164C208.965 84.5586 208.738 83.957 208.285 83.5117C207.832 83.0586 207.164 82.832 206.281 82.832C205.508 82.832 204.859 83.0273 204.336 83.418C203.812 83.8086 203.551 84.2812 203.551 84.8359H201.371C201.371 84.2031 201.594 83.5938 202.039 83.0078C202.492 82.4141 203.102 81.9453 203.867 81.6016C204.641 81.2578 205.488 81.0859 206.41 81.0859C207.871 81.0859 209.016 81.4531 209.844 82.1875C210.672 82.9141 211.102 83.918 211.133 85.1992V91.0352C211.133 92.1992 211.281 93.125 211.578 93.8125V94H209.305ZM205.707 92.3477C206.387 92.3477 207.031 92.1719 207.641 91.8203C208.25 91.4688 208.691 91.0117 208.965 90.4492V87.8477H207.266C204.609 87.8477 203.281 88.625 203.281 90.1797C203.281 90.8594 203.508 91.3906 203.961 91.7734C204.414 92.1562 204.996 92.3477 205.707 92.3477ZM220.098 82.0469C221.691 82.0469 222.965 82.582 223.918 83.6523C224.879 84.7148 225.359 86.1172 225.359 87.8594V88.0586C225.359 89.2539 225.129 90.3242 224.668 91.2695C224.207 92.207 223.543 92.9375 222.676 93.4609C221.816 93.9766 220.824 94.2344 219.699 94.2344C217.996 94.2344 216.625 93.668 215.586 92.5352C214.547 91.3945 214.027 89.8672 214.027 87.9531V86.8984C214.027 84.2344 214.52 82.1172 215.504 80.5469C216.496 78.9766 217.957 78.0195 219.887 77.6758C220.98 77.4805 221.719 77.2422 222.102 76.9609C222.484 76.6797 222.676 76.293 222.676 75.8008H224.457C224.457 76.7773 224.234 77.5391 223.789 78.0859C223.352 78.6328 222.648 79.0195 221.68 79.2461L220.062 79.6094C218.773 79.9141 217.805 80.4297 217.156 81.1562C216.516 81.875 216.098 82.8359 215.902 84.0391C217.051 82.7109 218.449 82.0469 220.098 82.0469ZM219.676 83.8281C218.613 83.8281 217.77 84.1875 217.145 84.9062C216.52 85.6172 216.207 86.6055 216.207 87.8711V88.0586C216.207 89.418 216.52 90.4961 217.145 91.293C217.777 92.082 218.629 92.4766 219.699 92.4766C220.777 92.4766 221.629 92.0781 222.254 91.2812C222.879 90.4844 223.191 89.3203 223.191 87.7891C223.191 86.5938 222.875 85.6367 222.242 84.918C221.617 84.1914 220.762 83.8281 219.676 83.8281ZM227.223 87.543C227.223 86.3008 227.465 85.1836 227.949 84.1914C228.441 83.1992 229.121 82.4336 229.988 81.8945C230.863 81.3555 231.859 81.0859 232.977 81.0859C234.703 81.0859 236.098 81.6836 237.16 82.8789C238.23 84.0742 238.766 85.6641 238.766 87.6484V87.8008C238.766 89.0352 238.527 90.1445 238.051 91.1289C237.582 92.1055 236.906 92.8672 236.023 93.4141C235.148 93.9609 234.141 94.2344 233 94.2344C231.281 94.2344 229.887 93.6367 228.816 92.4414C227.754 91.2461 227.223 89.6641 227.223 87.6953V87.543ZM229.402 87.8008C229.402 89.207 229.727 90.3359 230.375 91.1875C231.031 92.0391 231.906 92.4648 233 92.4648C234.102 92.4648 234.977 92.0352 235.625 91.1758C236.273 90.3086 236.598 89.0977 236.598 87.543C236.598 86.1523 236.266 85.0273 235.602 84.168C234.945 83.3008 234.07 82.8672 232.977 82.8672C231.906 82.8672 231.043 83.293 230.387 84.1445C229.73 84.9961 229.402 86.2148 229.402 87.8008ZM250.648 83.0781H246.395V94H244.227V83.0781H240.055V81.3203H250.648V83.0781ZM256.707 88.5977H255.125V94H252.945V81.3203H255.125V86.6875H256.543L260.809 81.3203H263.434L258.418 87.4141L263.855 94H261.102L256.707 88.5977ZM264.887 87.543C264.887 86.3008 265.129 85.1836 265.613 84.1914C266.105 83.1992 266.785 82.4336 267.652 81.8945C268.527 81.3555 269.523 81.0859 270.641 81.0859C272.367 81.0859 273.762 81.6836 274.824 82.8789C275.895 84.0742 276.43 85.6641 276.43 87.6484V87.8008C276.43 89.0352 276.191 90.1445 275.715 91.1289C275.246 92.1055 274.57 92.8672 273.688 93.4141C272.812 93.9609 271.805 94.2344 270.664 94.2344C268.945 94.2344 267.551 93.6367 266.48 92.4414C265.418 91.2461 264.887 89.6641 264.887 87.6953V87.543ZM267.066 87.8008C267.066 89.207 267.391 90.3359 268.039 91.1875C268.695 92.0391 269.57 92.4648 270.664 92.4648C271.766 92.4648 272.641 92.0352 273.289 91.1758C273.938 90.3086 274.262 89.0977 274.262 87.543C274.262 86.1523 273.93 85.0273 273.266 84.168C272.609 83.3008 271.734 82.8672 270.641 82.8672C269.57 82.8672 268.707 83.293 268.051 84.1445C267.395 84.9961 267.066 86.2148 267.066 87.8008ZM287.352 81.3203H289.52V94H287.352V84.7539L281.504 94H279.336V81.3203H281.504V90.5781L287.352 81.3203ZM287.938 76.7031C287.938 77.6484 287.613 78.4102 286.965 78.9883C286.324 79.5586 285.48 79.8438 284.434 79.8438C283.387 79.8438 282.539 79.5547 281.891 78.9766C281.242 78.3984 280.918 77.6406 280.918 76.7031H282.688C282.688 77.25 282.836 77.6797 283.133 77.9922C283.43 78.2969 283.863 78.4492 284.434 78.4492C284.98 78.4492 285.406 78.2969 285.711 77.9922C286.023 77.6875 286.18 77.2578 286.18 76.7031H287.938Z" fill="white"/>
<defs>
<linearGradient id="paint0_linear" x1="429.634" y1="12.2222" x2="367.952" y2="248.57" gradientUnits="userSpaceOnUse">
<stop stop-color="#635189"/>
<stop offset="0.411458" stop-color="#B174B1"/>
<stop offset="1" stop-color="#FFABBA"/>
</linearGradient>
</defs>
</svg>
